{
.appVersion = "3140";
.formatVersion = 3;
DisplayStrings = (
"nn/Placeholder nono/Placeholder oo

aaaaaaaaaaaaaaaaaaaaaaaaaaaaaaaaaaaaaaaaaaaaaaaaaaaaaaaaaaaaaaaaaaaaaaa
Zenobiazenobiazenobiabaooooooo
aaabbbcccdddeeefffggghhhiiijjjkkklllmmmnnn/n.ss01 ooopppqqqrrrssstttuuuvvvwwwxxxyyyzzz
000111222333444555666777888999
AAABBBCCCDDDEEEFFFGGGHHHIIIJJJJKKKLLLMMMNNNOOOPPPQQQRRRSSSTTTUUUVVVWWWXXXYYYZZZ",
"HH/Placeholder HOHO/Placeholder OO
.,:;…!¡?¿*///backslash -()“”‘’\"'@",
"ABCDEFGHIJKLMNOPQRSTUVWXYZ/A.ss01/B.ss01/C.ss01/E.ss01/F.ss01/M.ss01/O.ss01/Q.ss01/E.ss02 abcdefghijklmnopqrsßtuvwxyz/a.ss01/c.ss01/g.ss01/m.ss01/n.ss01/o.ss01/r.ss01/u.ss01/y.ss01/a.ss02/m.ss02/y.ss02 0123456789/three.ss01/six.ss01/seven.ss01  .,:;…!¡?¿*///backslash -()“”‘’\"'@/creature.1/creature.2/creature.3/creature.4"
);
classes = (
{
automatic = 1;
code = "A B C D E F G H I J K L M N O P Q R S T U V W X Y Z A.ss01 B.ss01 C.ss01 E.ss01 F.ss01 M.ss01 O.ss01 Q.ss01 E.ss02 a b c d e f g h i j k l m n o p q r s germandbls t u v w x y z a.ss01 c.ss01 g.ss01 m.ss01 n.ss01 o.ss01 r.ss01 u.ss01 y.ss01 a.ss02 m.ss02 y.ss02 zero one two three four five six seven eight nine three.ss01 six.ss01 seven.ss01 space period comma colon semicolon ellipsis exclam exclamdown question questiondown asterisk slash backslash hyphen parenleft parenright quotedblleft quotedblright quoteleft quoteright quotedbl quotesingle at creature.1 creature.2 creature.3 creature.4";
name = All;
},
{
code = "A.ss01 B.ss01 C.ss01 E.ss01 F.ss01 M.ss01 O.ss01 Q.ss01 a.ss01 c.ss01 g.ss01 m.ss01 n.ss01 o.ss01 r.ss01 u.ss01 y.ss01 three.ss01 six.ss01 seven.ss01 
";
name = alt1;
},
{
code = "E.ss02 a.ss02 m.ss02 y.ss02 ";
name = alt2;
},
{
code = "A B C E F M O Q a c g m n o r u y three six seven 
";
name = non_alt1;
},
{
code = "E a m y ";
name = non_alt2;
}
);
customParameters = (
{
name = "Disable Subroutines";
value = 1;
}
);
date = "2022-06-25 04:25:34 +0000";
familyName = MIP;
featurePrefixes = (
{
automatic = 1;

glyphs = (
{
glyphname = A;
lastChange = "2022-08-11 03:51:07 +0000";
layers = (
{
backgroundImage = {
imagePath = "../../../Screenshots/Screen Shot 2022-08-11 at 1.28.32 pm.png";
locked = 1;
pos = (-222,-412);
scale = (2.5778,2.5778);
};
layerId = m01;
shapes = (
{
closed = 1;
nodes = (
(1050,-32,o),
(1059,-9,o),
(1037,8,cs),
(975,58,o),
(937,121,o),
(917,168,cs),
(899,212,o),
(862,259,o),
(809,283,cs),
(759,306,o),
(688,352,o),
(630,410,cs),
(578,463,o),
(524,486,o),
(466,493,cs),
(417,499,o),
(333,530,o),
(292,582,cs),
(251,635,o),
(138,717,o),
(96,717,cs),
(74,717,o),
(55,699,o),
(55,672,cs),
(55,652,o),
(48,633,o),
(42,614,cs),
(36,598,o),
(30,581,o),
(30,565,cs),
(30,514,o),
(75,474,o),
(118,436,cs),
(127,428,o),
(136,420,o),
(144,413,cs),
(174,386,o),
(198,358,o),
(211,326,cs),
(232,272,o),
(265,235,o),
(307,222,cs),
(347,210,o),
(369,191,o),
(369,158,cs),
(369,136,o),
(362,119,o),
(353,100,cs),
(345,80,o),
(335,58,o),
(335,30,cs),
(335,6,o),
(347,-9,o),
(372,-5,cs),
(408,0,ls),
(429,3,o),
(440,11,o),
(440,36,cs),
(440,115,o),
(478,177,o),
(490,177,cs),
(507,177,o),
(540,131,o),
(578,61,cs),
(588,43,o),
(600,37,o),
(625,40,cs),
(686,49,ls),
(703,52,o),
(718,63,o),
(724,85,cs),
(728,99,o),
(730,99,o),
(741,86,cs),
(781,35,o),
(813,12,o),
(853,12,cs),
(878,12,o),
(921,-2,o),
(959,-14,cs),
(987,-24,o),
(1013,-32,o),
(1026,-32,cs)
);
},
{
closed = 1;
nodes = (
(1016,-12,o),
(993,-4,o),
(965,5,cs),
(927,17,o),
(882,32,o),
(853,32,cs),
(820,32,o),
(795,50,o),
(757,98,cs),
(737,122,o),
(713,119,o),
(704,91,cs),
(700,76,o),
(694,70,o),
(684,69,cs),
(623,60,ls),
(605,57,o),
(602,59,o),
(596,71,cs),
(556,142,o),
(519,197,o),
(490,197,cs),
(463,197,o),
(420,121,o),
(420,36,cs),
(420,22,o),
(420,22,o),
(406,20,cs),
(370,15,ls),
(357,13,o),
(355,15,o),
(355,30,cs),
(355,54,o),
(363,72,o),
(372,92,cs),
(380,111,o),
(389,132,o),
(389,158,cs),
(389,200,o),
(358,228,o),
(313,242,cs),
(277,253,o),
(249,283,o),
(229,334,cs),
(216,368,o),
(188,400,o),
(158,427,cs),
(149,435,o),
(140,443,o),
(132,451,cs),
(88,489,o),
(50,523,o),
(50,565,cs),
(50,578,o),
(55,591,o),
(61,608,cs),
(67,627,o),
(75,648,o),
(75,672,cs),
(75,689,o),
(84,697,o),
(96,697,cs),
(131,697,o),
(237,620,o),
(276,570,cs),
(321,513,o),
(412,479,o),
(464,473,cs),
(518,466,o),
(566,446,o),
(616,396,cs),
(676,336,o),
(749,288,o),
(801,265,cs),
(849,243,o),
(881,202,o),
(899,160,cs),
(919,111,o),
(959,44,o),
(1025,-8,cs),
(1030,-12,o),
(1030,-12,o),
(1026,-12,cs)
);
},
{
closed = 1;
nodes = (
(351,287,o),
(347,287,o),
(347,295,cs),
(346,381,ls),
(346,390,o),
(346,390,o),
(355,383,cs),
(440,318,ls),
(453,308,o),
(453,308,o),
(441,309,cs),
(406,313,o),
(377,305,o),
(361,294,cs)
);
},
{
closed = 1;
nodes = (
(385,287,o),
(408,293,o),
(439,289,cs),
(471,286,o),
(480,311,o),
(452,334,cs),
(367,399,ls),
(346,415,o),
(326,407,o),
(326,381,cs),
(327,295,ls),
(327,272,o),
(352,262,o),
(373,278,cs)
);
}
);
width = 1070;
}
);
unicode = 65;
},
{
glyphname = B;
lastChange = "2022-08-11 03:56:53 +0000";
layers = (
{
backgroundImage = {
angle = 14.78168;
imagePath = "../../../Screenshots/Screen Shot 2022-08-11 at 1.28.38 pm.png";
locked = 1;
pos = (-77,-303);
scale = (2.5859,2.5859);
};
layerId = m01;
shapes = (
{
closed = 1;
nodes = (
(177,630,o),
(275,703,o),
(294,703,cs),
(302,703,o),
(303,702,o),
(303,695,cs),
(303,693,o),
(293,677,o),
(281,657,cs),
(265,632,o),
(247,603,o),
(247,590,cs),
(247,568,o),
(267,558,o),
(281,555,cs),
(325,547,ls),
(378,537,o),
(424,404,o),
(424,382,cs),
(424,359,o),
(418,355,o),
(405,352,cs),
(340,335,ls),
(320,329,o),
(314,318,o),
(314,306,cs),
(314,299,o),
(319,291,o),
(327,282,cs),
(343,261,o),
(373,223,o),
(373,144,cs),
(373,97,o),
(362,67,o),
(332,67,cs),
(317,67,o),
(291,77,o),
(263,86,cs),
(238,96,o),
(211,105,o),
(196,105,cs),
(171,105,o),
(140,73,o),
(140,43,cs),
(140,26,o),
(154,-49,o),
(161,-64,cs),
(163,-70,o),
(166,-68,o),
(165,-65,c),
(152,-43,o),
(144,-9,o),
(139,19,cs),
(136,31,o),
(134,42,o),
(132,49,cs),
(128,59,o),
(121,74,o),
(114,90,cs),
(103,112,o),
(93,134,o),
(93,141,cs),
(93,151,o),
(96,167,o),
(113,187,cs),
(175,264,ls),
(215,313,o),
(240,369,o),
(240,413,cs),
(240,429,o),
(229,447,o),
(218,465,cs),
(201,490,o),
(183,519,o),
(183,557,cs),
(183,573,o),
(185,591,o),
(191,612,c),
(192,619,o),
(187,625,o),
(181,625,cs),
(176,625,o),
(173,622,o),
(171,618,c),
(165,595,o),
(163,573,o),
(163,557,cs),
(163,513,o),
(184,479,o),
(201,454,cs),
(212,436,o),
(220,424,o),
(220,413,cs),
(220,373,o),
(197,323,o),
(159,276,cs),
(97,199,ls),
(78,175,o),
(73,153,o),
(73,141,cs),
(73,130,o),
(85,104,o),
(96,81,cs),
(103,66,o),
(110,51,o),
(112,43,cs),
(114,37,o),
(117,27,o),
(119,15,cs),
(125,-13,o),
(133,-51,o),
(147,-75,cs),
(161,-98,o),
(189,-82,o),
(179,-56,cs),
(174,-43,o),
(160,28,o),
(160,43,cs),
(160,63,o),
(181,85,o),
(196,85,cs),
(208,85,o),
(231,77,o),
(256,68,cs),
(284,58,o),
(314,47,o),
(332,47,cs),
(377,47,o),
(393,92,o),
(393,144,cs),
(393,229,o),
(359,273,o),
(342,295,cs),
(336,303,o),
(334,305,o),
(334,306,cs),
(334,311,o),
(335,312,o),
(346,315,cs),
(411,332,ls),
(427,337,o),
(444,348,o),
(444,382,cs),
(444,409,o),
(395,555,o),
(329,567,cs),
(285,575,ls),
(274,577,o),
(267,581,o),
(267,590,cs),
(267,597,o),
(283,622,o),
(298,647,cs),
(311,668,o),
(323,687,o),
(323,695,cs),
(323,710,o),
(313,723,o),
(294,723,cs),
(267,723,o),
(163,644,o),
(141,615,c),
(140,613,o),
(139,611,o),
(139,609,cs),
(139,603,o),
(143,599,o),
(149,599,cs),
(152,599,o),
(155,601,o),
(157,603,cs)
);
},
{
closed = 1;
nodes = (
(317,419,o),
(281,431,o),
(281,438,cs),
(281,447,o),
(301,478,o),
(306,478,cs),
(319,478,o),
(359,460,o),
(359,449,cs),
(359,445,o),
(359,444,o),
(353,440,cs),
(351,438,o),
(350,435,o),
(350,432,cs),
(350,426,o),
(354,422,o),
(360,422,cs),
(362,422,o),
(365,423,o),
(367,424,c),
(376,432,o),
(379,441,o),
(379,449,cs),
(379,475,o),
(324,498,o),
(306,498,cs),
(289,498,o),
(261,457,o),
(261,438,cs),
(261,416,o),
(307,399,o),
(348,399,cs),
(354,399,o),
(358,403,o),
(358,409,cs),
(358,415,o),
(354,419,o),
(348,419,cs)
);
},
{
closed = 1;
nodes = (
(244,128,o),
(211,154,o),
(211,200,cs),
(211,258,o),
(230,291,o),
(257,291,cs),
(289,291,o),
(318,246,o),
(318,186,cs),
(318,173,o),
(313,140,o),
(300,126,cs),
(298,124,o),
(297,122,o),
(297,119,cs),
(297,113,o),
(301,109,o),
(307,109,cs),
(310,109,o),
(313,110,o),
(314,112,c),
(332,132,o),
(338,171,o),
(338,186,cs),
(338,252,o),
(301,311,o),
(257,311,cs),
(216,311,o),
(191,264,o),
(191,200,cs),
(191,143,o),
(235,110,o),
(279,98,c),
(286,97,o),
(292,102,o),
(292,108,cs),
(292,113,o),
(289,117,o),
(285,118,cs)
);
}
);
width = 499;
}
);
unicode = 66;
},
{
glyphname = C;
lastChange = "2022-08-11 03:59:36 +0000";
layers = (
{
backgroundImage = {
imagePath = "../../../Screenshots/Screen Shot 2022-08-11 at 1.40.56 pm.png";
locked = 1;
pos = (-67,-167);
scale = (2.9666,2.9666);
};
layerId = m01;
shapes = (
{
closed = 1;
nodes = (
(832,600,o),
(703,548,o),
(601,533,cs),
(579,530,o),
(552,519,o),
(526,509,cs),
(492,496,o),
(459,483,o),
(432,483,cs),
(399,483,o),
(363,465,o),
(347,438,cs),
(324,403,o),
(300,375,o),
(275,365,cs),
(249,357,o),
(236,337,o),
(236,317,cs),
(236,287,o),
(278,182,o),
(400,182,cs),
(596,182,o),
(624,157,o),
(624,134,cs),
(624,105,o),
(604,102,o),
(582,101,cs),
(558,100,o),
(539,96,o),
(524,86,cs),
(515,79,o),
(486,77,o),
(434,77,c),
(422,60,o),
(395,52,o),
(264,52,cs),
(223,52,o),
(180,35,o),
(168,19,cs),
(154,2,o),
(147,-6,o),
(136,-6,cs),
(120,-6,o),
(92,27,o),
(92,61,cs),
(92,116,o),
(86,196,o),
(82,225,cs),
(77,252,o),
(82,269,o),
(104,295,cs),
(169,371,o),
(211,422,o),
(220,458,cs),
(235,520,o),
(263,559,o),
(287,591,cs),
(297,605,o),
(307,618,o),
(314,630,cs),
(321,644,o),
(331,652,o),
(373,652,cs),
(381,652,o),
(399,656,o),
(421,661,cs),
(462,671,o),
(521,685,o),
(565,685,cs),
(586,685,o),
(629,676,o),
(679,665,cs),
(726,655,o),
(779,643,o),
(823,638,cs),
(828,637,o),
(834,642,o),
(834,648,cs),
(834,653,o),
(830,657,o),
(825,658,cs),
(782,663,o),
(730,674,o),
(683,685,cs),
(633,695,o),
(588,705,o),
(565,705,cs),
(518,705,o),
(458,691,o),
(417,681,cs),
(395,676,o),
(379,672,o),
(373,672,cs),
(322,672,o),
(306,657,o),
(296,640,cs),
(290,628,o),
(281,616,o),
(271,603,cs),
(247,570,o),
(216,528,o),
(200,462,cs),
(193,432,o),
(153,383,o),
(88,307,cs),
(64,278,o),
(57,253,o),
(62,221,cs),
(66,194,o),
(72,116,o),
(72,61,cs),
(72,19,o),
(108,-26,o),
(136,-26,cs),
(156,-26,o),
(169,-12,o),
(184,7,cs),
(192,18,o),
(228,32,o),
(264,32,cs),
(383,32,o),
(423,39,o),
(443,57,c),
(491,57,o),
(523,59,o),
(536,70,cs),
(547,78,o),
(560,80,o),
(582,81,cs),
(606,82,o),
(644,88,o),
(644,134,cs),
(644,168,o),
(607,202,o),
(400,202,cs),
(293,202,o),
(256,292,o),
(256,317,cs),
(256,330,o),
(263,341,o),
(281,347,cs),
(312,358,o),
(340,391,o),
(363,428,cs),
(377,449,o),
(404,463,o),
(432,463,cs),
(463,463,o),
(500,477,o),
(534,491,cs),
(560,501,o),
(584,510,o),
(603,513,cs),
(709,528,o),
(850,585,o),
(865,680,cs),
(866,686,o),
(861,692,o),
(855,692,cs),
(850,692,o),
(846,688,o),
(845,684,cs)
);
}
);
width = 905;
}
);
unicode = 67;
},
{
glyphname = D;
lastChange = "2022-08-11 04:02:32 +0000";
layers = (
{
backgroundImage = {
imagePath = "../../../Screenshots/Screen Shot 2022-08-11 at 1.32.02 pm.png";
locked = 1;
pos = (-117,-141);
scale = (5.4485,5.4485);
};
layerId = m01;
shapes = (
{
closed = 1;
nodes = (
(162,-18,o),
(178,-16,o),
(195,-14,cs),
(215,-12,o),
(235,-10,o),
(260,-10,cs),
(280,-10,o),
(291,-5,o),
(305,9,cs),
(405,110,o),
(451,156,o),
(492,171,cs),
(555,192,o),
(584,230,o),
(584,258,cs),
(584,272,o),
(577,283,o),
(574,290,c),
(571,294,o),
(571,296,o),
(571,294,cs),
(571,303,o),
(576,312,o),
(583,323,cs),
(589,333,o),
(597,346,o),
(597,360,cs),
(597,391,o),
(561,442,o),
(524,455,cs),
(507,461,o),
(507,463,o),
(504,484,cs),
(491,573,o),
(456,627,o),
(401,622,cs),
(351,618,ls),
(337,617,o),
(328,622,o),
(320,635,cs),
(300,667,o),
(266,720,o),
(235,720,cs),
(209,720,o),
(147,708,o),
(147,672,cs),
(147,599,ls),
(147,585,o),
(143,574,o),
(139,563,cs),
(137,556,o),
(134,548,o),
(134,540,cs),
(134,530,o),
(141,517,o),
(148,504,cs),
(158,484,o),
(171,460,o),
(171,433,cs),
(171,404,o),
(161,379,o),
(152,354,cs),
(142,329,o),
(132,304,o),
(133,277,cs),
(134,233,ls),
(134,222,o),
(132,215,o),
(123,208,cs),
(93,183,o),
(67,161,o),
(67,128,cs),
(67,112,o),
(73,98,o),
(77,86,cs),
(80,77,o),
(83,70,o),
(83,65,cs),
(83,59,o),
(79,52,o),
(74,42,cs),
(67,28,o),
(58,9,o),
(62,-11,c),
(71,-9,o),
(82,-11,o),
(97,-13,cs),
(110,-15,o),
(127,-18,o),
(145,-18,cs)
);
},
{
closed = 1;
nodes = (
(128,2,o),
(113,4,o),
(100,7,cs),
(94,8,o),
(88,9,o),
(82,9,c),
(84,17,o),
(88,25,o),
(92,33,cs),
(97,43,o),
(103,54,o),
(103,65,cs),
(103,74,o),
(99,84,o),
(96,93,cs),
(91,105,o),
(87,116,o),
(87,128,cs),
(87,151,o),
(106,168,o),
(135,192,cs),
(150,203,o),
(154,219,o),
(154,233,cs),
(153,277,ls),
(153,301,o),
(161,322,o),
(170,347,cs),
(180,372,o),
(191,400,o),
(191,433,cs),
(191,465,o),
(176,493,o),
(165,514,cs),
(158,526,o),
(154,535,o),
(154,540,cs),
(154,544,o),
(156,549,o),
(158,557,cs),
(162,567,o),
(167,582,o),
(167,599,cs),
(167,672,ls),
(167,690,o),
(211,700,o),
(235,700,cs),
(255,700,o),
(284,656,o),
(304,625,cs),
(314,607,o),
(331,597,o),
(353,598,cs),
(403,602,ls),
(445,606,o),
(472,564,o),
(484,482,cs),
(487,455,o),
(494,445,o),
(518,437,cs),
(548,426,o),
(577,384,o),
(577,360,cs),
(577,352,o),
(572,344,o),
(566,333,cs),
(559,322,o),
(551,308,o),
(551,294,cs),
(551,290,o),
(553,285,o),
(556,280,cs),
(560,273,o),
(564,267,o),
(564,258,cs),
(564,238,o),
(542,208,o),
(486,189,cs),
(441,174,o),
(391,124,o),
(291,23,cs),
(280,12,o),
(275,10,o),
(260,10,cs),
(234,10,o),
(212,8,o),
(193,6,cs),
(176,4,o),
(161,2,o),
(145,2,cs)
);
}
);
width = 642;
}
);
unicode = 68;
},
{
glyphname = E;
lastChange = "2022-08-15 07:19:31 +0000";
layers = (
{
backgroundImage = {
imagePath = "../../../Screenshots/Screen Shot 2022-08-11 at 1.35.23 pm.png";
locked = 1;
pos = (-96,-127);
scale = (6.0887,6.0887);
};
layerId = m01;
shapes = (
{
closed = 1;
nodes = (
(393,-6,o),
(437,40,o),
(437,81,cs),
(437,112,o),
(412,136,o),
(374,147,cs),
(293,171,ls),
(276,176,o),
(268,183,o),
(268,190,cs),
(268,193,o),
(275,197,o),
(298,197,cs),
(309,197,o),
(333,194,o),
(361,190,cs),
(404,184,o),
(457,176,o),
(497,176,cs),
(580,176,o),
(685,203,o),
(685,243,cs),
(685,273,o),
(653,285,o),
(609,285,cs),
(534,285,ls),
(488,285,o),
(457,310,o),
(457,341,cs),
(457,365,o),
(477,381,o),
(533,381,cs),
(602,381,o),
(624,361,o),
(647,339,cs),
(667,320,o),
(689,300,o),
(742,298,cs),
(966,289,ls),
(1002,288,o),
(1030,317,o),
(1030,349,cs),
(1030,392,o),
(1009,424,o),
(956,440,cs),
(671,523,ls),
(608,541,o),
(595,552,o),
(595,577,cs),
(595,659,o),
(518,703,o),
(474,703,cs),
(408,703,o),
(357,639,o),
(357,579,cs),
(357,548,o),
(356,547,o),
(333,547,cs),
(213,547,o),
(178,511,o),
(178,492,cs),
(178,472,o),
(191,462,o),
(199,455,cs),
(207,449,o),
(210,446,o),
(210,440,cs),
(210,438,o),
(202,434,o),
(187,426,cs),
(163,413,o),
(129,396,o),
(129,363,cs),
(129,339,o),
(144,328,o),
(156,319,cs),
(167,310,o),
(174,305,o),
(174,292,cs),
(174,278,o),
(162,270,o),
(135,270,cs),
(89,270,o),
(55,237,o),
(55,193,cs),
(55,153,o),
(75,117,o),
(146,94,cs),
(204,77,o),
(232,53,o),
(257,32,cs),
(280,12,o),
(301,-6,o),
(340,-6,cs)
);
},
{
closed = 1;
nodes = (
(309,14,o),
(293,27,o),
(270,47,cs),
(245,68,o),
(214,95,o),
(152,114,cs),
(90,133,o),
(75,160,o),
(75,193,cs),
(75,228,o),
(98,250,o),
(135,250,cs),
(168,250,o),
(194,266,o),
(194,292,cs),
(194,315,o),
(179,326,o),
(168,335,cs),
(156,344,o),
(149,349,o),
(149,363,cs),
(149,383,o),
(173,396,o),
(196,408,cs),
(216,419,o),
(230,427,o),
(230,440,cs),
(230,454,o),
(222,462,o),
(212,470,cs),
(203,477,o),
(198,482,o),
(198,492,cs),
(198,500,o),
(224,527,o),
(333,527,cs),
(363,527,o),
(377,536,o),
(377,579,cs),
(377,631,o),
(419,683,o),
(474,683,cs),
(511,683,o),
(575,646,o),
(575,577,cs),
(575,541,o),
(597,523,o),
(665,503,cs),
(950,420,ls),
(996,407,o),
(1010,385,o),
(1010,349,cs),
(1010,327,o),
(993,308,o),
(966,309,cs),
(742,318,ls),
(698,320,o),
(681,335,o),
(661,354,cs),
(637,376,o),
(610,401,o),
(533,401,cs),
(468,401,o),
(437,376,o),
(437,341,cs),
(437,298,o),
(480,265,o),
(534,265,cs),
(609,265,ls),
(648,265,o),
(665,258,o),
(665,243,cs),
(665,222,o),
(578,196,o),
(497,196,cs),
(458,196,o),
(406,203,o),
(364,209,cs),
(335,213,o),
(311,217,o),
(298,217,cs),
(265,217,o),
(248,205,o),
(248,190,cs),
(248,172,o),
(265,158,o),
(287,151,cs),
(368,127,ls),
(401,118,o),
(417,103,o),
(417,81,cs),
(417,50,o),
(384,14,o),
(340,14,cs)
);
}
);
width = 1075;
}
);
unicode = 69;
},
{
glyphname = F;
lastChange = "2022-08-11 03:37:00 +0000";
layers = (
{
layerId = m01;
shapes = (
{
closed = 1;
nodes = (
(215,-13,ls),
(235,-13,o),
(250,3,o),
(250,27,cs),
(250,61,o),
(253,94,o),
(256,122,cs),
(257,142,o),
(259,160,o),
(259,172,cs),
(259,195,o),
(264,228,o),
(270,265,cs),
(277,306,o),
(284,352,o),
(284,387,cs),
(284,432,o),
(297,447,o),
(352,447,cs),
(405,447,o),
(447,482,o),
(447,523,cs),
(447,541,o),
(424,553,o),
(399,553,cs),
(387,553,o),
(372,550,o),
(358,548,cs),
(343,545,o),
(329,543,o),
(317,543,cs),
(278,543,o),
(244,565,o),
(244,585,cs),
(244,608,o),
(279,639,o),
(305,639,cs),
(326,639,o),
(353,641,o),
(368,643,cs),
(396,647,o),
(410,663,o),
(410,686,cs),
(410,784,o),
(374,814,o),
(328,814,cs),
(271,814,ls),
(226,814,o),
(125,690,o),
(125,586,cs),
(124,32,ls),
(124,5,o),
(144,-13,o),
(170,-13,cs)
);
},
{
closed = 1;
nodes = (
(153,7,o),
(144,15,o),
(144,32,cs),
(145,586,ls),
(145,682,o),
(238,794,o),
(271,794,cs),
(328,794,ls),
(365,794,o),
(390,773,o),
(390,686,cs),
(390,672,o),
(385,665,o),
(366,663,cs),
(351,661,o),
(326,659,o),
(305,659,cs),
(270,659,o),
(224,619,o),
(224,585,cs),
(224,552,o),
(272,523,o),
(317,523,cs),
(331,523,o),
(347,526,o),
(361,528,cs),
(376,531,o),
(389,533,o),
(399,533,cs),
(416,533,o),
(427,528,o),
(427,523,cs),
(427,493,o),
(397,467,o),
(352,467,cs),
(287,467,o),
(264,441,o),
(264,387,cs),
(264,353,o),
(257,309,o),
(250,268,cs),
(245,231,o),
(239,196,o),
(239,172,cs),
(239,160,o),
(237,144,o),
(236,124,cs),
(233,96,o),
(230,61,o),
(230,27,cs),
(230,12,o),
(225,7,o),
(215,7,cs),
(170,7,ls)
);
}
);
width = 497;
}
);
unicode = 70;
},
{
glyphname = G;
lastChange = "2022-08-15 07:21:54 +0000";
layers = (
{
backgroundImage = {
imagePath = "../../../Screenshots/Screen Shot 2022-08-11 at 1.41.37 pm.png";
locked = 1;
pos = (-132,-138);
scale = (3.6461,3.6461);
};
layerId = m01;
shapes = (
{
closed = 1;
nodes = (
(316,0,o),
(334,27,o),
(349,48,cs),
(362,67,o),
(371,80,o),
(381,80,cs),
(395,80,o),
(414,74,o),
(434,68,cs),
(451,63,o),
(469,58,o),
(481,58,cs),
(516,58,o),
(573,118,o),
(573,155,cs),
(573,275,o),
(512,348,o),
(437,348,cs),
(307,348,o),
(248,298,o),
(248,260,cs),
(248,242,o),
(265,213,o),
(291,213,cs),
(306,213,o),
(322,218,o),
(336,222,cs),
(350,226,o),
(363,229,o),
(373,229,cs),
(385,229,o),
(395,217,o),
(395,205,cs),
(395,170,o),
(362,139,o),
(327,139,cs),
(244,139,o),
(152,196,o),
(152,251,cs),
(152,267,o),
(155,278,o),
(169,299,cs),
(222,377,ls),
(236,397,o),
(255,416,o),
(272,424,cs),
(333,455,o),
(412,550,o),
(412,602,cs),
(412,658,o),
(377,693,o),
(349,693,cs),
(321,693,o),
(313,675,o),
(313,651,cs),
(313,610,o),
(260,555,o),
(198,492,cs),
(160,452,o),
(119,410,o),
(88,368,cs),
(72,345,o),
(65,319,o),
(65,305,cs),
(65,290,o),
(60,270,o),
(55,249,cs),
(50,230,o),
(45,210,o),
(45,196,cs),
(45,103,o),
(249,0,o),
(289,0,cs)
);
},
{
closed = 1;
nodes = (
(254,20,o),
(65,117,o),
(65,196,cs),
(65,208,o),
(69,225,o),
(74,245,cs),
(79,265,o),
(85,288,o),
(85,305,cs),
(85,317,o),
(90,337,o),
(104,356,cs),
(134,398,o),
(174,438,o),
(212,478,cs),
(274,541,o),
(333,601,o),
(333,651,cs),
(333,670,o),
(334,673,o),
(349,673,cs),
(367,673,o),
(392,649,o),
(392,602,cs),
(392,559,o),
(320,471,o),
(262,442,cs),
(243,432,o),
(220,409,o),
(206,389,cs),
(153,311,ls),
(137,286,o),
(132,269,o),
(132,251,cs),
(132,182,o),
(238,119,o),
(327,119,cs),
(371,119,o),
(415,161,o),
(415,205,cs),
(415,225,o),
(396,249,o),
(373,249,cs),
(360,249,o),
(345,245,o),
(331,241,cs),
(316,237,o),
(303,233,o),
(291,233,cs),
(278,233,o),
(268,249,o),
(268,260,cs),
(268,286,o),
(317,328,o),
(437,328,cs),
(501,328,o),
(553,266,o),
(553,155,cs),
(553,128,o),
(506,78,o),
(481,78,cs),
(472,78,o),
(457,82,o),
(439,88,cs),
(420,93,o),
(398,100,o),
(381,100,cs),
(361,100,o),
(346,78,o),
(333,59,cs),
(318,38,o),
(306,20,o),
(289,20,cs)
);
}
);
width = 618;
}
);
unicode = 71;
},
{
glyphname = H;
lastChange = "2022-08-11 03:22:44 +0000";
layers = (
{
backgroundImage = {
angle = 24.12927;
imagePath = "../../../Screenshots/Screen Shot 2022-08-11 at 12.51.47 pm.png";
locked = 1;
pos = (-23,-438);
scale = (2.1106,2.1106);
};
layerId = m01;
shapes = (
{
closed = 1;
nodes = (
(139,70,o),
(150,116,o),
(150,140,cs),
(150,168,o),
(155,199,o),
(167,218,cs),
(188,250,o),
(196,281,o),
(196,324,cs),
(196,358,o),
(200,384,o),
(203,407,cs),
(205,423,o),
(207,437,o),
(207,451,cs),
(207,482,o),
(194,548,o),
(180,595,cs),
(177,605,o),
(179,612,o),
(185,619,cs),
(209,644,o),
(243,669,o),
(280,686,cs),
(291,690,o),
(293,688,o),
(299,677,cs),
(373,524,ls),
(381,508,o),
(385,493,o),
(387,476,cs),
(394,404,ls),
(395,394,o),
(391,385,o),
(387,376,cs),
(384,370,o),
(382,364,o),
(382,359,cs),
(382,340,o),
(394,330,o),
(408,330,cs),
(414,330,o),
(419,333,o),
(424,336,cs),
(428,339,o),
(429,340,o),
(431,340,cs),
(433,340,o),
(436,337,o),
(443,332,cs),
(450,327,o),
(458,321,o),
(465,321,cs),
(479,321,o),
(490,333,o),
(490,365,cs),
(490,375,o),
(489,393,o),
(488,416,cs),
(486,450,o),
(483,494,o),
(483,529,cs),
(483,544,o),
(477,560,o),
(472,574,cs),
(467,586,o),
(464,595,o),
(464,602,cs),
(464,628,o),
(455,649,o),
(444,666,c),
(443,669,o),
(443,669,o),
(447,667,cs),
(483,650,o),
(551,685,o),
(578,701,cs),
(589,708,o),
(592,704,o),
(592,682,cs),
(592,632,o),
(601,580,o),
(628,516,cs),
(644,479,o),
(666,406,o),
(666,286,cs),
(666,243,o),
(659,202,o),
(652,168,cs),
(648,145,o),
(645,126,o),
(645,113,cs),
(645,82,o),
(643,44,o),
(639,31,cs),
(636,24,o),
(630,24,o),
(610,32,cs),
(591,40,o),
(564,26,o),
(542,15,cs),
(527,8,o),
(516,2,o),
(509,2,cs),
(485,2,o),
(474,7,o),
(469,28,cs),
(447,109,o),
(410,177,o),
(355,177,cs),
(297,177,o),
(215,115,o),
(215,22,cs),
(215,-15,o),
(209,-31,o),
(204,-31,cs),
(200,-31,o),
(199,-26,o),
(195,-15,cs),
(189,0,o),
(183,13,o),
(168,13,cs),
(160,13,o),
(151,9,o),
(141,5,cs),
(126,-1,o),
(110,-7,o),
(93,-7,cs),
(70,-7,o),
(54,6,o),
(49,17,cs),
(47,21,o),
(44,23,o),
(40,23,cs),
(32,23,o),
(28,15,o),
(31,9,cs),
(38,-7,o),
(62,-27,o),
(93,-27,cs),
(113,-27,o),
(133,-19,o),
(148,-13,cs),
(158,-10,o),
(164,-7,o),
(168,-7,cs),
(171,-7,o),
(172,-11,o),
(176,-22,cs),
(182,-38,o),
(188,-51,o),
(204,-51,cs),
(223,-51,o),
(235,-25,o),
(235,22,cs),
(235,105,o),
(305,157,o),
(355,157,cs),
(397,157,o),
(429,100,o),
(449,22,cs),
(458,-8,o),
(480,-18,o),
(509,-18,cs),
(520,-18,o),
(536,-10,o),
(551,-2,cs),
(572,8,o),
(592,18,o),
(602,14,cs),
(633,1,o),
(651,6,o),
(657,25,cs),
(663,40,o),
(665,82,o),
(665,113,cs),
(665,124,o),
(668,142,o),
(672,164,cs),
(678,198,o),
(686,242,o),
(686,286,cs),
(686,410,o),
(662,485,o),
(646,524,cs),
(621,586,o),
(612,634,o),
(612,682,cs),
(612,717,o),
(591,733,o),
(568,719,cs),
(542,703,o),
(482,672,o),
(455,685,cs),
(429,697,o),
(413,676,o),
(428,656,c),
(437,639,o),
(444,624,o),
(444,602,cs),
(444,591,o),
(449,579,o),
(453,567,cs),
(458,553,o),
(463,541,o),
(463,529,cs),
(463,493,o),
(466,449,o),
(468,414,cs),
(469,392,o),
(470,374,o),
(470,365,cs),
(470,344,o),
(468,341,o),
(465,341,cs),
(464,341,o),
(461,343,o),
(455,348,cs),
(448,354,o),
(439,360,o),
(431,360,cs),
(424,360,o),
(418,357,o),
(412,353,c),
(409,350,o),
(409,350,o),
(408,350,cs),
(403,350,o),
(402,351,o),
(402,359,cs),
(402,360,o),
(403,363,o),
(406,368,c),
(409,377,o),
(415,391,o),
(414,406,cs),
(407,478,ls),
(405,497,o),
(399,516,o),
(391,532,cs),
(317,685,ls),
(308,702,o),
(294,714,o),
(272,704,cs),
(233,687,o),
(195,660,o),
(171,633,cs),
(161,622,o),
(155,606,o),
(160,589,cs),
(174,544,o),
(187,480,o),
(187,451,cs),
(187,439,o),
(185,426,o),
(183,409,cs),
(180,387,o),
(176,360,o),
(176,324,cs),
(176,283,o),
(170,258,o),
(151,230,cs),
(135,207,o),
(130,170,o),
(130,140,cs),
(130,119,o),
(121,81,o),
(66,40,cs),
(64,38,o),
(62,35,o),
(62,32,cs),
(62,26,o),
(66,22,o),
(72,22,cs),
(74,22,o),
(76,23,o),
(78,24,c)
);
}
);
width = 741;
}
);
unicode = 72;
},
{
glyphname = I;
lastChange = "2022-08-15 07:24:40 +0000";
layers = (
{
backgroundImage = {
imagePath = "../../../Screenshots/Screen Shot 2022-08-15 at 5.23.07 pm.png";
locked = 1;
pos = (-166,-165);
scale = (3.5127,3.5127);
};
layerId = m01;
shapes = (
{
closed = 1;
nodes = (
(211,0,o),
(241,36,o),
(241,72,cs),
(241,95,o),
(250,114,o),
(260,135,cs),
(269,154,o),
(279,174,o),
(279,195,cs),
(279,260,o),
(263,311,o),
(249,355,cs),
(238,386,o),
(230,413,o),
(229,439,cs),
(222,661,ls),
(221,684,o),
(210,706,o),
(188,706,cs),
(145,706,o),
(112,665,o),
(113,611,cs),
(119,335,ls),
(120,304,o),
(114,272,o),
(109,240,cs),
(105,211,o),
(100,182,o),
(100,155,cs),
(100,63,o),
(133,0,o),
(179,0,cs)
);
},
{
closed = 1;
nodes = (
(147,20,o),
(120,70,o),
(120,155,cs),
(120,180,o),
(124,208,o),
(129,237,cs),
(134,269,o),
(140,302,o),
(139,335,cs),
(133,611,ls),
(132,657,o),
(157,686,o),
(188,686,cs),
(197,686,o),
(201,677,o),
(202,661,cs),
(209,439,ls),
(210,410,o),
(219,380,o),
(230,349,cs),
(243,305,o),
(259,257,o),
(259,195,cs),
(259,178,o),
(251,162,o),
(242,144,cs),
(232,123,o),
(221,99,o),
(221,72,cs),
(221,44,o),
(200,20,o),
(179,20,cs)
);
}
);
width = 374;
}
);
unicode = 73;
},
{
glyphname = J;
lastChange = "2022-08-15 07:29:50 +0000";
layers = (
{
backgroundImage = {
imagePath = "../../../Screenshots/Screen Shot 2022-08-11 at 1.46.51 pm.png";
locked = 1;
pos = (-135,-99);
scale = (1.7023,1.7023);
};
layerId = m01;
shapes = (
{
closed = 1;
nodes = (
(363,685,ls),
(370,697,o),
(359,692,o),
(359,690,cs),
(359,664,o),
(396,604,o),
(427,604,cs),
(446,604,o),
(460,620,o),
(471,633,cs),
(482,646,o),
(489,655,o),
(498,655,c),
(498,655,o),
(498,655,o),
(499,651,cs),
(506,624,o),
(560,594,o),
(612,594,cs),
(642,594,o),
(671,606,o),
(688,614,cs),
(696,617,o),
(701,619,o),
(702,619,cs),
(703,619,o),
(706,608,o),
(706,559,cs),
(706,549,o),
(694,523,o),
(684,523,cs),
(677,523,o),
(673,526,o),
(666,530,cs),
(659,534,o),
(650,540,o),
(638,540,cs),
(627,540,o),
(618,536,o),
(610,533,cs),
(601,529,o),
(592,525,o),
(579,525,cs),
(552,525,o),
(511,535,o),
(493,546,cs),
(479,555,o),
(465,547,o),
(465,528,cs),
(467,475,ls),
(468,457,o),
(462,448,o),
(454,436,cs),
(443,422,o),
(430,403,o),
(430,361,cs),
(430,346,o),
(424,338,o),
(417,329,cs),
(412,322,o),
(405,313,o),
(405,300,cs),
(405,282,o),
(422,265,o),
(444,265,cs),
(456,265,o),
(459,256,o),
(466,241,cs),
(470,233,o),
(474,222,o),
(482,215,cs),
(502,196,o),
(519,174,o),
(519,155,cs),
(519,146,o),
(514,145,o),
(494,145,cs),
(454,145,o),
(434,128,o),
(434,78,cs),
(434,46,o),
(396,2,o),
(323,2,cs),
(305,2,o),
(301,10,o),
(301,35,cs),
(301,76,o),
(270,89,o),
(212,66,cs),
(192,58,o),
(176,63,o),
(166,82,cs),
(161,91,o),
(148,110,o),
(132,117,cs),
(90,137,o),
(55,175,o),
(55,209,cs),
(55,223,o),
(58,228,o),
(67,228,cs),
(80,228,o),
(95,214,o),
(95,180,cs),
(95,130,o),
(130,109,o),
(168,109,cs),
(190,109,o),
(211,112,o),
(232,116,cs),
(255,120,o),
(279,124,o),
(308,124,cs),
(333,124,o),
(355,132,o),
(367,151,cs),
(385,179,ls),
(396,195,o),
(388,214,o),
(373,220,cs),
(346,232,o),
(333,246,o),
(333,268,cs),
(333,278,o),
(340,288,o),
(348,300,cs),
(360,318,o),
(376,342,o),
(355,369,cs),
(353,371,o),
(353,371,o),
(358,374,cs),
(375,385,o),
(401,416,o),
(401,459,cs),
(401,467,o),
(403,473,o),
(409,480,cs),
(418,491,o),
(427,507,o),
(405,526,cs),
(383,546,ls),
(375,554,o),
(374,559,o),
(372,569,cs),
(369,584,o),
(365,605,o),
(335,641,cs),
(333,644,o),
(330,645,o),
(327,645,cs),
(321,645,o),
(317,641,o),
(317,635,cs),
(317,633,o),
(318,630,o),
(319,629,cs),
(347,596,o),
(350,580,o),
(352,566,cs),
(354,555,o),
(356,544,o),
(369,532,cs),
(391,512,ls),
(401,503,o),
(401,502,o),
(393,492,cs),
(385,483,o),
(381,471,o),
(381,459,cs),
(381,424,o),
(361,400,o),
(348,392,cs),
(332,382,o),
(331,368,o),
(339,357,cs),
(351,341,o),
(344,329,o),
(331,311,cs),
(323,299,o),
(313,285,o),
(313,268,cs),
(313,237,o),
(333,216,o),
(365,202,cs),
(371,199,o),
(373,196,o),
(369,189,cs),
(351,161,ls),
(342,149,o),
(329,144,o),
(308,144,cs),
(278,144,o),
(252,140,o),
(229,136,cs),
(208,132,o),
(188,129,o),
(168,129,cs),
(137,129,o),
(115,143,o),
(115,180,cs),
(115,223,o),
(90,248,o),
(67,248,cs),
(46,248,o),
(35,230,o),
(35,209,cs),
(35,166,o),
(77,121,o),
(124,99,cs),
(135,94,o),
(144,81,o),
(148,74,cs),
(163,44,o),
(193,37,o),
(220,48,cs),
(267,66,o),
(281,61,o),
(281,35,cs),
(281,3,o),
(292,-18,o),
(323,-18,cs),
(406,-18,o),
(454,36,o),
(454,78,cs),
(454,117,o),
(463,125,o),
(494,125,cs),
(522,125,o),
(539,131,o),
(539,155,cs),
(539,181,o),
(517,209,o),
(496,229,cs),
(491,234,o),
(488,240,o),
(484,249,cs),
(478,264,o),
(469,285,o),
(444,285,cs),
(431,285,o),
(425,292,o),
(425,300,cs),
(425,306,o),
(428,310,o),
(433,317,cs),
(440,326,o),
(450,339,o),
(450,361,cs),
(450,396,o),
(460,410,o),
(470,425,cs),
(478,437,o),
(488,451,o),
(487,475,cs),
(485,528,ls),
(485,545,o),
(470,537,o),
(483,528,cs),
(503,517,o),
(550,505,o),
(579,505,cs),
(596,505,o),
(609,510,o),
(618,514,cs),
(626,518,o),
(631,520,o),
(638,520,cs),
(644,520,o),
(648,517,o),
(655,513,cs),
(662,509,o),
(672,503,o),
(684,503,cs),
(708,503,o),
(726,545,o),
(726,559,cs),
(726,618,o),
(718,639,o),
(702,639,cs),
(697,639,o),
(690,636,o),
(680,632,cs),
(663,624,o),
(638,614,o),
(612,614,cs),
(566,614,o),
(523,639,o),
(519,655,cs),
(515,668,o),
(507,675,o),
(498,675,cs),
(480,675,o),
(466,659,o),
(456,646,cs),
(445,633,o),
(437,624,o),
(427,624,cs),
(409,624,o),
(379,670,o),
(379,690,cs),
(379,710,o),
(359,718,o),
(345,695,cs),
(310,637,ls),
(307,631,o),
(310,622,o),
(319,622,cs),
(323,622,o),
(326,624,o),
(328,627,cs)
);
}
);
width = 761;
}
);
unicode = 74;
},
{
glyphname = K;
lastChange = "2022-08-15 07:32:47 +0000";
layers = (
{
backgroundImage = {
imagePath = "../../../Screenshots/Screen Shot 2022-08-11 at 1.42.44 pm.png";
locked = 1;
pos = (-558,-213);
scale = (3.7505,3.7505);
};
layerId = m01;
shapes = (
{
closed = 1;
nodes = (
(230,-6,o),
(239,10,o),
(240,31,cs),
(258,310,ls),
(259,324,o),
(261,327,o),
(279,328,cs),
(484,334,l),
(484,205,ls),
(484,179,o),
(498,167,o),
(527,167,cs),
(606,167,ls),
(636,167,o),
(650,183,o),
(650,206,cs),
(650,283,ls),
(650,310,o),
(632,321,o),
(607,322,cs),
(508,325,l),
(509,495,ls),
(509,505,o),
(511,508,o),
(529,508,cs),
(593,508,ls),
(612,508,o),
(622,520,o),
(622,547,cs),
(622,585,o),
(628,614,o),
(639,645,cs),
(648,670,o),
(636,682,o),
(610,683,cs),
(408,693,ls),
(382,694,o),
(366,683,o),
(366,662,cs),
(366,553,ls),
(366,533,o),
(361,529,o),
(338,529,cs),
(244,529,ls),
(227,529,o),
(225,532,o),
(225,550,cs),
(225,654,ls),
(225,674,o),
(214,692,o),
(187,692,cs),
(145,692,ls),
(120,692,o),
(106,681,o),
(105,654,cs),
(80,41,ls),
(79,6,o),
(94,-2,o),
(124,-3,cs),
(194,-5,ls)
);
},
{
closed = 1;
nodes = (
(124,17,ls),
(101,18,o),
(99,19,o),
(100,41,cs),
(125,654,ls),
(126,670,o),
(128,672,o),
(145,672,cs),
(187,672,ls),
(202,672,o),
(205,667,o),
(205,654,cs),
(205,550,ls),
(205,525,o),
(214,509,o),
(244,509,cs),
(338,509,ls),
(370,509,o),
(386,523,o),
(386,553,cs),
(386,662,ls),
(386,671,o),
(390,674,o),
(408,673,cs),
(610,663,ls),
(624,662,o),
(624,662,o),
(621,651,c),
(608,620,o),
(602,587,o),
(602,547,cs),
(602,530,o),
(601,528,o),
(593,528,cs),
(529,528,ls),
(502,528,o),
(489,515,o),
(489,495,cs),
(488,305,l),
(607,302,ls),
(625,301,o),
(630,298,o),
(630,283,cs),
(630,206,ls),
(630,192,o),
(626,187,o),
(606,187,cs),
(527,187,ls),
(507,187,o),
(504,189,o),
(504,205,cs),
(504,354,l),
(279,348,ls),
(248,347,o),
(239,331,o),
(238,312,cs),
(220,33,ls),
(219,17,o),
(217,14,o),
(194,15,cs)
);
}
);
width = 695;
}
);
unicode = 75;
},
{
glyphname = L;
lastChange = "2022-08-15 07:34:51 +0000";
layers = (
{
backgroundImage = {
imagePath = "../../../Screenshots/Screen Shot 2022-08-11 at 1.42.53 pm.png";
locked = 1;
pos = (-34,-447);
scale = (2.4394,2.4394);
};
layerId = m01;
shapes = (
{
closed = 1;
nodes = (
(777,-2,o),
(790,7,o),
(790,22,cs),
(790,54,ls),
(790,71,o),
(779,82,o),
(761,82,cs),
(687,82,o),
(653,110,o),
(615,141,cs),
(575,174,o),
(530,211,o),
(432,211,cs),
(422,211,o),
(421,212,o),
(421,218,cs),
(421,296,o),
(400,318,o),
(356,345,cs),
(341,354,o),
(334,363,o),
(334,375,cs),
(334,411,ls),
(334,461,o),
(269,490,o),
(216,490,cs),
(182,490,o),
(160,500,o),
(160,521,cs),
(160,535,o),
(163,550,o),
(165,566,cs),
(168,580,o),
(170,596,o),
(170,609,cs),
(170,638,o),
(146,693,o),
(127,693,cs),
(109,693,o),
(106,678,o),
(106,662,cs),
(106,625,o),
(106,590,o),
(106,556,cs),
(106,387,o),
(107,236,o),
(100,32,cs),
(100,11,o),
(112,2,o),
(134,3,cs),
(309,12,o),
(477,7,o),
(759,-2,cs)
);
},
{
closed = 1;
nodes = (
(477,27,o),
(309,32,o),
(132,23,cs),
(120,22,o),
(120,22,o),
(120,32,cs),
(127,236,o),
(126,387,o),
(126,556,cs),
(126,590,o),
(126,625,o),
(126,662,cs),
(126,671,o),
(126,673,o),
(127,673,cs),
(131,673,o),
(150,630,o),
(150,609,cs),
(150,597,o),
(148,584,o),
(145,569,cs),
(143,553,o),
(140,537,o),
(140,521,cs),
(140,485,o),
(177,470,o),
(216,470,cs),
(264,470,o),
(314,447,o),
(314,411,cs),
(314,375,ls),
(314,356,o),
(327,339,o),
(346,327,cs),
(387,302,o),
(401,287,o),
(401,218,cs),
(401,203,o),
(410,191,o),
(432,191,cs),
(523,191,o),
(562,159,o),
(603,126,cs),
(641,94,o),
(680,62,o),
(761,62,cs),
(770,62,o),
(770,62,o),
(770,54,cs),
(770,22,ls),
(770,19,o),
(768,18,o),
(759,18,cs)
);
}
);
width = 820;
}
);
unicode = 76;
},
{
glyphname = M;
lastChange = "2022-08-15 07:39:23 +0000";
layers = (
{
backgroundImage = {
imagePath = "../../../Screenshots/Screen Shot 2022-08-11 at 1.42.59 pm.png";
locked = 1;
pos = (-116,-467);
scale = (4.3936,4.3936);
};
layerId = m01;
shapes = (
{
closed = 1;
nodes = (
(384,-9,o),
(458,-2,o),
(475,1,cs),
(503,6,o),
(513,22,o),
(513,46,cs),
(513,72,o),
(500,90,o),
(477,105,cs),
(446,125,o),
(434,146,o),
(434,160,cs),
(434,172,o),
(437,174,o),
(448,174,cs),
(476,174,o),
(490,186,o),
(493,210,cs),
(494,218,o),
(497,221,o),
(510,221,cs),
(524,221,o),
(533,206,o),
(536,188,cs),
(543,141,o),
(590,68,o),
(619,68,cs),
(638,68,o),
(652,90,o),
(652,126,cs),
(652,143,o),
(645,158,o),
(641,168,cs),
(638,174,o),
(636,177,o),
(636,179,cs),
(636,183,o),
(638,185,o),
(652,185,cs),
(661,185,o),
(668,182,o),
(677,178,cs),
(688,173,o),
(701,167,o),
(719,167,cs),
(739,167,o),
(760,176,o),
(777,184,cs),
(790,190,o),
(800,194,o),
(807,194,cs),
(814,194,o),
(814,194,o),
(814,191,cs),
(814,188,o),
(810,182,o),
(804,172,cs),
(795,158,o),
(783,140,o),
(783,121,cs),
(783,96,o),
(798,82,o),
(816,82,cs),
(834,82,o),
(851,96,o),
(866,108,cs),
(882,121,o),
(894,131,o),
(906,130,cs),
(945,127,ls),
(981,125,o),
(1006,147,o),
(1006,186,cs),
(1006,262,o),
(991,292,o),
(945,320,cs),
(895,350,l),
(881,360,o),
(879,362,o),
(879,369,cs),
(879,377,o),
(884,385,o),
(897,399,cs),
(911,416,o),
(920,437,o),
(920,470,cs),
(920,503,o),
(908,528,o),
(899,549,cs),
(892,564,o),
(887,575,o),
(886,587,cs),
(879,661,o),
(801,710,o),
(752,709,cs),
(725,708,o),
(699,693,o),
(685,677,cs),
(656,645,o),
(582,561,o),
(538,561,cs),
(521,561,o),
(507,572,o),
(490,587,cs),
(471,604,o),
(448,624,o),
(413,624,cs),
(322,624,ls),
(302,624,o),
(282,633,o),
(262,643,cs),
(244,651,o),
(226,659,o),
(210,659,cs),
(194,659,o),
(176,650,o),
(162,627,cs),
(84,508,ls),
(69,485,o),
(60,441,o),
(60,396,cs),
(60,332,o),
(96,298,o),
(134,291,cs),
(160,287,o),
(187,272,o),
(195,254,cs),
(202,239,o),
(218,221,o),
(240,214,cs),
(265,207,o),
(275,191,o),
(275,170,cs),
(275,144,o),
(277,117,o),
(278,92,cs),
(280,72,o),
(281,54,o),
(281,40,cs),
(281,11,o),
(306,-9,o),
(346,-9,cs)
);
},
{
closed = 1;
nodes = (
(314,11,o),
(301,22,o),
(301,40,cs),
(301,55,o),
(300,73,o),
(298,94,cs),
(297,118,o),
(295,145,o),
(295,170,cs),
(295,198,o),
(278,223,o),
(246,234,cs),
(230,239,o),
(218,251,o),
(213,262,cs),
(203,287,o),
(167,307,o),
(138,311,cs),
(107,316,o),
(80,341,o),
(80,396,cs),
(80,439,o),
(87,477,o),
(100,498,cs),
(178,617,ls),
(190,634,o),
(199,639,o),
(210,639,cs),
(222,639,o),
(236,632,o),
(253,624,cs),
(274,615,o),
(298,604,o),
(322,604,cs),
(413,604,ls),
(440,604,o),
(458,589,o),
(477,572,cs),
(494,557,o),
(513,541,o),
(538,541,cs),
(592,541,o),
(670,631,o),
(699,663,cs),
(711,677,o),
(731,688,o),
(752,689,cs),
(794,690,o),
(860,648,o),
(866,585,cs),
(867,570,o),
(874,556,o),
(881,541,cs),
(890,520,o),
(900,498,o),
(900,470,cs),
(900,441,o),
(893,426,o),
(881,413,cs),
(868,397,o),
(859,383,o),
(859,369,cs),
(859,354,o),
(867,345,o),
(885,334,cs),
(935,302,ls),
(975,278,o),
(986,257,o),
(986,186,cs),
(986,157,o),
(972,145,o),
(947,147,cs),
(908,150,ls),
(888,151,o),
(869,136,o),
(854,124,cs),
(839,112,o),
(827,102,o),
(816,102,cs),
(808,102,o),
(803,106,o),
(803,121,cs),
(803,134,o),
(812,148,o),
(821,161,cs),
(828,173,o),
(834,183,o),
(834,191,cs),
(834,203,o),
(826,214,o),
(807,214,cs),
(796,214,o),
(782,208,o),
(769,202,cs),
(752,195,o),
(735,187,o),
(719,187,cs),
(705,187,o),
(696,191,o),
(686,196,cs),
(676,200,o),
(665,205,o),
(652,205,cs),
(626,205,o),
(616,190,o),
(616,179,cs),
(616,174,o),
(619,167,o),
(622,159,cs),
(627,149,o),
(632,138,o),
(632,126,cs),
(632,99,o),
(626,88,o),
(619,88,cs),
(603,88,o),
(563,149,o),
(556,192,cs),
(552,215,o),
(535,241,o),
(510,241,cs),
(488,241,o),
(476,229,o),
(473,212,cs),
(471,197,o),
(467,194,o),
(448,194,cs),
(430,194,o),
(414,183,o),
(414,160,cs),
(414,139,o),
(431,111,o),
(465,89,cs),
(485,76,o),
(493,65,o),
(493,46,cs),
(493,29,o),
(490,24,o),
(471,21,cs),
(456,18,o),
(384,11,o),
(346,11,cs)
);
}
);
width = 1061;
}
);
unicode = 77;
},
{
glyphname = N;
lastChange = "2022-08-15 07:42:39 +0000";
layers = (
{
backgroundImage = {
imagePath = "../../../Screenshots/Screen Shot 2022-08-11 at 1.43.37 pm.png";
locked = 1;
pos = (-151,-226);
scale = (2.9702,2.9702);
};
layerId = m01;
shapes = (
{
closed = 1;
nodes = (
(373,0,ls),
(388,0,o),
(402,7,o),
(409,25,cs),
(428,68,o),
(445,93,o),
(490,140,cs),
(616,271,ls),
(684,341,o),
(731,366,o),
(876,425,cs),
(897,434,o),
(904,453,o),
(894,477,cs),
(884,502,ls),
(876,524,o),
(855,527,o),
(835,519,cs),
(722,480,o),
(616,418,o),
(510,334,cs),
(499,325,o),
(498,326,o),
(503,335,cs),
(573,463,o),
(687,579,o),
(761,635,cs),
(787,654,o),
(778,676,o),
(747,676,cs),
(652,676,o),
(525,622,o),
(408,552,cs),
(307,491,o),
(208,421,o),
(160,322,cs),
(148,298,o),
(135,272,o),
(122,247,cs),
(83,172,o),
(45,99,o),
(45,54,cs),
(45,36,o),
(52,21,o),
(73,20,cs),
(148,15,ls),
(169,14,o),
(182,21,o),
(189,39,cs),
(212,94,o),
(333,215,o),
(419,283,cs),
(424,287,o),
(421,290,o),
(416,285,cs),
(330,207,o),
(259,85,o),
(259,34,cs),
(259,10,o),
(271,0,o),
(293,0,cs)
);
},
{
closed = 1;
nodes = (
(280,20,o),
(279,21,o),
(279,34,cs),
(279,79,o),
(346,195,o),
(430,271,cs),
(451,290,o),
(429,316,o),
(407,299,cs),
(319,229,o),
(196,106,o),
(171,47,cs),
(166,36,o),
(163,34,o),
(150,35,cs),
(75,40,ls),
(65,41,o),
(65,41,o),
(65,54,cs),
(65,94,o),
(101,163,o),
(139,238,cs),
(153,263,o),
(166,289,o),
(178,314,cs),
(224,407,o),
(317,475,o),
(418,534,cs),
(535,604,o),
(656,656,o),
(747,656,cs),
(756,656,o),
(756,656,o),
(749,651,cs),
(673,595,o),
(557,475,o),
(485,345,cs),
(473,321,o),
(494,296,o),
(522,318,cs),
(628,402,o),
(730,462,o),
(841,501,cs),
(856,506,o),
(862,505,o),
(866,494,cs),
(876,469,ls),
(882,454,o),
(880,448,o),
(868,443,cs),
(723,384,o),
(672,357,o),
(602,285,cs),
(476,154,ls),
(429,105,o),
(410,78,o),
(391,33,cs),
(386,22,o),
(382,20,o),
(373,20,cs),
(293,20,ls)
);
}
);
width = 933;
}
);
unicode = 78;
},
{
glyphname = O;
lastChange = "2022-08-11 03:18:21 +0000";
layers = (
{
backgroundImage = {
imagePath = "../../../Screenshots/Screen Shot 2022-08-11 at 12.50.50 pm.png";
locked = 1;
pos = (-74,-74);
scale = (1.6436,1.6436);
};
layerId = m01;
shapes = (
{
closed = 1;
nodes = (
(501,-14,o),
(561,2,o),
(648,59,cs),
(741,118,o),
(781,167,o),
(784,188,cs),
(785,195,o),
(787,199,o),
(796,206,c),
(815,217,o),
(824,223,o),
(824,234,cs),
(824,239,o),
(822,243,o),
(820,246,c),
(820,246,o),
(830,251,o),
(830,266,cs),
(830,281,o),
(821,292,o),
(813,302,cs),
(799,318,o),
(784,337,o),
(784,383,cs),
(784,394,o),
(786,407,o),
(789,420,cs),
(792,435,o),
(795,451,o),
(795,465,cs),
(795,528,o),
(756,561,o),
(660,597,cs),
(636,606,o),
(630,617,o),
(625,627,cs),
(621,635,o),
(615,642,o),
(605,642,cs),
(596,642,o),
(590,637,o),
(585,630,cs),
(581,626,o),
(580,625,o),
(579,625,cs),
(553,625,o),
(517,630,o),
(486,643,cs),
(451,658,o),
(431,675,o),
(422,697,cs),
(414,719,o),
(402,730,o),
(380,730,cs),
(352,730,o),
(325,703,o),
(325,680,cs),
(325,674,o),
(327,667,o),
(328,662,cs),
(330,657,o),
(331,653,o),
(331,649,cs),
(331,633,o),
(314,618,o),
(279,599,cs),
(266,592,o),
(256,582,o),
(256,566,cs),
(256,559,o),
(242,539,o),
(239,539,cs),
(236,539,o),
(231,547,o),
(231,560,cs),
(231,619,o),
(196,677,o),
(130,677,cs),
(68,677,o),
(45,625,o),
(45,562,cs),
(45,489,o),
(80,457,o),
(110,429,cs),
(120,419,o),
(130,410,o),
(138,400,cs),
(163,368,o),
(167,358,o),
(167,350,cs),
(167,337,o),
(158,327,o),
(127,311,cs),
(82,286,o),
(67,271,o),
(67,255,cs),
(67,245,o),
(78,230,o),
(100,212,cs),
(125,191,o),
(156,175,o),
(197,172,cs),
(231,169,o),
(276,145,o),
(297,96,cs),
(305,77,o),
(320,66,o),
(339,61,cs),
(359,57,o),
(383,43,o),
(394,22,cs),
(408,-6,o),
(435,-14,o),
(461,-14,cs)
);
},
{
closed = 1;
nodes = (
(543,147,o),
(546,156,o),
(542,162,cs),
(529,184,o),
(516,199,o),
(502,199,cs),
(495,199,o),
(488,196,o),
(483,192,cs),
(478,189,o),
(475,188,o),
(471,188,cs),
(449,188,o),
(429,226,o),
(429,294,cs),
(429,312,o),
(453,339,o),
(535,339,cs),
(545,339,o),
(555,340,o),
(565,342,cs),
(574,343,o),
(583,344,o),
(592,344,cs),
(609,344,o),
(620,330,o),
(620,303,cs),
(620,298,o),
(621,291,o),
(623,283,cs),
(625,271,o),
(628,255,o),
(628,236,cs),
(628,201,o),
(622,192,o),
(610,192,cs),
(595,192,o),
(584,188,o),
(573,185,cs),
(562,181,o),
(551,178,o),
(534,178,cs),
(528,178,o),
(524,174,o),
(524,168,cs),
(524,162,o),
(528,158,o),
(534,158,cs),
(555,158,o),
(568,162,o),
(579,166,cs),
(590,169,o),
(598,172,o),
(610,172,cs),
(634,172,o),
(648,192,o),
(648,236,cs),
(648,256,o),
(645,274,o),
(642,287,cs),
(641,295,o),
(640,300,o),
(640,303,cs),
(640,337,o),
(621,364,o),
(592,364,cs),
(582,364,o),
(572,363,o),
(562,361,cs),
(553,360,o),
(544,359,o),
(535,359,cs),
(443,359,o),
(409,322,o),
(409,294,cs),
(409,220,o),
(435,168,o),
(471,168,cs),
(481,168,o),
(488,172,o),
(493,175,cs),
(497,178,o),
(499,179,o),
(502,179,cs),
(506,179,o),
(514,170,o),
(526,152,c),
(527,149,o),
(530,147,o),
(534,147,cs)
);
},
{
closed = 1;
nodes = (
(439,6,o),
(422,11,o),
(412,32,cs),
(398,58,o),
(367,75,o),
(343,81,cs),
(329,84,o),
(321,90,o),
(315,104,cs),
(292,160,o),
(238,189,o),
(199,192,cs),
(162,195,o),
(137,207,o),
(112,228,cs),
(95,242,o),
(87,252,o),
(87,255,cs),
(87,262,o),
(95,271,o),
(137,293,cs),
(171,311,o),
(187,328,o),
(187,350,cs),
(187,362,o),
(181,378,o),
(154,412,cs),
(145,424,o),
(134,434,o),
(124,443,cs),
(94,471,o),
(65,498,o),
(65,562,cs),
(65,620,o),
(81,657,o),
(130,657,cs),
(183,657,o),
(211,612,o),
(211,560,cs),
(211,538,o),
(225,519,o),
(239,519,cs),
(254,519,o),
(276,551,o),
(276,566,cs),
(276,573,o),
(279,576,o),
(289,581,cs),
(327,602,o),
(351,624,o),
(351,649,cs),
(351,655,o),
(349,662,o),
(348,667,cs),
(346,672,o),
(345,676,o),
(345,680,cs),
(345,693,o),
(361,710,o),
(380,710,cs),
(393,710,o),
(397,706,o),
(404,689,cs),
(415,663,o),
(440,641,o),
(478,625,cs),
(511,610,o),
(551,605,o),
(579,605,cs),
(588,605,o),
(594,610,o),
(599,617,cs),
(603,621,o),
(604,622,o),
(605,622,c),
(605,622,o),
(605,622,o),
(607,617,c),
(613,608,o),
(622,590,o),
(654,579,cs),
(745,544,o),
(775,518,o),
(775,465,cs),
(775,453,o),
(772,439,o),
(770,424,cs),
(767,410,o),
(764,396,o),
(764,383,cs),
(764,330,o),
(784,305,o),
(797,289,cs),
(806,279,o),
(810,274,o),
(810,266,cs),
(810,264,o),
(810,264,o),
(807,261,cs),
(804,258,o),
(800,253,o),
(800,246,cs),
(800,241,o),
(802,237,o),
(804,234,c),
(804,234,o),
(800,232,o),
(786,222,cs),
(771,213,o),
(765,201,o),
(764,190,cs),
(762,176,o),
(726,133,o),
(638,75,cs),
(553,20,o),
(499,6,o),
(461,6,cs)
);
},
{
closed = 1;
nodes = (
(421,70,o),
(430,75,o),
(437,79,cs),
(446,83,o),
(452,86,o),
(461,86,cs),
(587,86,ls),
(623,86,o),
(644,104,o),
(644,133,cs),
(644,146,o),
(649,154,o),
(663,156,cs),
(682,159,o),
(695,177,o),
(699,194,cs),
(700,201,o),
(706,207,o),
(715,212,cs),
(730,221,o),
(737,233,o),
(737,250,cs),
(737,265,o),
(733,276,o),
(729,286,cs),
(726,297,o),
(722,307,o),
(722,323,cs),
(722,391,ls),
(722,438,o),
(678,452,o),
(591,452,cs),
(578,452,o),
(572,455,o),
(566,457,cs),
(561,459,o),
(556,461,o),
(551,461,cs),
(545,461,o),
(538,458,o),
(532,456,cs),
(526,453,o),
(522,451,o),
(517,451,cs),
(513,451,o),
(511,452,o),
(507,455,cs),
(502,458,o),
(494,462,o),
(483,462,cs),
(474,462,o),
(464,458,o),
(455,455,cs),
(444,451,o),
(433,447,o),
(421,447,cs),
(376,447,o),
(345,413,o),
(347,378,cs),
(354,280,ls),
(355,265,o),
(360,250,o),
(366,241,cs),
(373,230,o),
(377,216,o),
(377,202,cs),
(377,185,o),
(387,163,o),
(404,153,cs),
(414,147,o),
(418,143,o),
(418,137,cs),
(418,128,o),
(411,120,o),
(406,116,cs),
(383,100,o),
(388,70,o),
(410,70,cs)
);
},
{
closed = 1;
nodes = (
(408,90,o),
(408,93,o),
(418,100,cs),
(425,105,o),
(438,120,o),
(438,137,cs),
(438,150,o),
(428,162,o),
(414,171,cs),
(403,177,o),
(397,190,o),
(397,202,cs),
(397,218,o),
(391,238,o),
(382,251,cs),
(378,258,o),
(375,269,o),
(374,282,cs),
(367,380,ls),
(365,404,o),
(386,427,o),
(421,427,cs),
(437,427,o),
(451,432,o),
(462,436,cs),
(471,440,o),
(478,442,o),
(483,442,cs),
(489,442,o),
(492,440,o),
(497,437,cs),
(503,434,o),
(509,431,o),
(517,431,cs),
(526,431,o),
(534,435,o),
(540,437,cs),
(546,440,o),
(548,441,o),
(551,441,cs),
(553,441,o),
(554,440,o),
(558,439,c),
(564,436,o),
(574,432,o),
(591,432,cs),
(673,432,o),
(702,423,o),
(702,391,cs),
(702,323,ls),
(702,303,o),
(707,290,o),
(711,279,cs),
(714,269,o),
(717,262,o),
(717,250,cs),
(717,239,o),
(715,235,o),
(705,230,cs),
(692,223,o),
(682,210,o),
(679,198,cs),
(677,186,o),
(670,177,o),
(661,176,cs),
(636,172,o),
(624,153,o),
(624,133,cs),
(624,115,o),
(614,106,o),
(587,106,cs),
(461,106,ls),
(447,106,o),
(436,100,o),
(428,96,cs),
(421,92,o),
(416,90,o),
(410,90,cs)
);
},
{
closed = 1;
nodes = (
(559,238,ls),
(573,238,o),
(581,245,o),
(587,257,cs),
(590,262,o),
(586,271,o),
(578,271,cs),
(574,271,o),
(571,269,o),
(569,265,cs),
(566,258,o),
(565,258,o),
(559,258,cs),
(551,258,ls),
(545,258,o),
(540,264,o),
(540,269,cs),
(540,272,o),
(542,274,o),
(550,274,cs),
(552,274,o),
(552,274,o),
(556,272,cs),
(560,269,o),
(566,266,o),
(573,266,cs),
(574,266,o),
(576,264,o),
(579,258,c),
(580,254,o),
(584,251,o),
(588,251,cs),
(597,251,o),
(599,259,o),
(597,264,cs),
(593,279,o),
(581,286,o),
(573,286,cs),
(570,286,o),
(569,287,o),
(566,289,cs),
(562,291,o),
(556,294,o),
(550,294,cs),
(531,294,o),
(520,280,o),
(520,269,cs),
(520,253,o),
(536,238,o),
(551,238,cs)
);
}
);
width = 875;
}
);
unicode = 79;
},
{
glyphname = P;
lastChange = "2022-10-24 05:06:20 +0000";
layers = (
{
layerId = m01;
shapes = (
{
closed = 1;
nodes = (
(288,4,o),
(344,3,o),
(425,3,cs),
(457,3,o),
(469,26,o),
(469,55,cs),
(469,187,ls),
(469,188,o),
(466,186,o),
(473,186,cs),
(588,186,ls),
(609,186,o),
(620,200,o),
(620,223,cs),
(617,399,ls),
(617,422,o),
(609,449,o),
(601,475,cs),
(591,509,o),
(580,543,o),
(582,573,cs),
(587,662,ls),
(588,685,o),
(574,693,o),
(558,693,cs),
(107,697,ls),
(89,697,o),
(80,686,o),
(79,668,cs),
(71,535,ls),
(69,515,o),
(81,505,o),
(103,508,cs),
(127,512,o),
(157,510,o),
(187,504,c),
(187,324,o),
(190,178,o),
(202,24,cs),
(203,-1,o),
(219,-7,o),
(239,-5,c)
);
},
{
closed = 1;
nodes = (
(223,13,o),
(223,14,o),
(222,26,cs),
(210,184,o),
(207,332,o),
(207,520,c),
(170,530,o),
(131,532,o),
(101,528,cs),
(90,527,o),
(90,527,o),
(91,533,cs),
(99,666,ls),
(100,677,o),
(100,677,o),
(107,677,cs),
(558,673,ls),
(567,673,o),
(568,673,o),
(567,664,cs),
(562,575,ls),
(560,540,o),
(571,503,o),
(581,470,cs),
(589,443,o),
(597,419,o),
(597,399,cs),
(600,223,ls),
(600,208,o),
(598,206,o),
(588,206,cs),
(473,206,ls),
(456,206,o),
(449,197,o),
(449,187,cs),
(449,55,ls),
(449,32,o),
(444,23,o),
(425,23,cs),
(344,23,o),
(286,24,o),
(235,15,cs)
);
},
{
closed = 1;
nodes = (
(455,337,o),
(459,341,o),
(459,347,cs),
(459,482,ls),
(459,508,o),
(444,517,o),
(425,517,cs),
(349,517,ls),
(322,517,o),
(313,490,o),
(327,471,cs),
(332,464,o),
(334,448,o),
(334,387,cs),
(334,366,o),
(349,353,o),
(369,353,cs),
(442,353,ls),
(448,353,o),
(452,357,o),
(452,363,cs),
(452,369,o),
(448,373,o),
(442,373,cs),
(369,373,ls),
(358,373,o),
(354,376,o),
(354,387,cs),
(354,449,o),
(352,472,o),
(343,483,cs),
(336,492,o),
(338,497,o),
(349,497,cs),
(425,497,ls),
(437,497,o),
(439,496,o),
(439,482,cs),
(439,347,ls),
(439,341,o),
(443,337,o),
(449,337,cs)
);
}
);
width = 680;
}
);
unicode = 80;
},
{
glyphname = Q;
lastChange = "2022-08-15 07:53:40 +0000";
layers = (
{
backgroundImage = {
imagePath = "../../../Screenshots/Screen Shot 2022-08-11 at 1.44.18 pm.png";
locked = 1;
pos = (-12,-66);
scale = (1.275,1.275);
};
layerId = m01;
shapes = (
{
closed = 1;
nodes = (
(451,-6,o),
(488,10,o),
(546,84,cs),
(594,145,o),
(633,236,o),
(633,361,cs),
(633,449,o),
(597,523,o),
(564,579,cs),
(510,671,o),
(456,707,o),
(370,707,cs),
(323,707,o),
(285,699,o),
(246,673,cs),
(170,622,ls),
(113,584,o),
(70,484,o),
(70,364,cs),
(70,274,o),
(90,233,o),
(107,199,cs),
(116,182,o),
(123,168,o),
(127,150,cs),
(150,54,o),
(246,-6,o),
(345,-6,cs)
);
},
{
closed = 1;
nodes = (
(253,14,o),
(168,67,o),
(147,154,cs),
(142,175,o),
(134,191,o),
(125,208,cs),
(108,242,o),
(90,279,o),
(90,364,cs),
(90,479,o),
(130,571,o),
(182,606,cs),
(258,657,ls),
(293,681,o),
(325,687,o),
(370,687,cs),
(449,687,o),
(496,656,o),
(546,569,cs),
(579,513,o),
(613,445,o),
(613,361,cs),
(613,240,o),
(576,155,o),
(530,96,cs),
(476,27,o),
(446,14,o),
(345,14,cs)
);
},
{
closed = 1;
nodes = (
(706,-17,o),
(715,-11,o),
(722,-7,cs),
(730,-2,o),
(737,3,o),
(751,3,cs),
(765,3,o),
(773,11,o),
(773,22,cs),
(773,33,o),
(764,42,o),
(753,42,cs),
(739,42,o),
(724,33,o),
(711,26,cs),
(701,20,o),
(694,16,o),
(690,16,cs),
(679,16,o),
(663,23,o),
(643,31,cs),
(618,42,o),
(588,54,o),
(562,54,cs),
(522,54,ls),
(496,54,o),
(480,74,o),
(480,83,cs),
(480,106,o),
(466,118,o),
(446,118,cs),
(412,119,ls),
(406,119,o),
(406,119,o),
(406,119,c),
(406,125,o),
(410,133,o),
(414,143,cs),
(419,154,o),
(424,166,o),
(424,176,cs),
(424,188,o),
(426,200,o),
(428,210,cs),
(430,216,o),
(431,222,o),
(431,227,cs),
(431,233,o),
(428,241,o),
(424,250,cs),
(420,259,o),
(417,268,o),
(417,274,cs),
(415,341,ls),
(415,354,o),
(422,364,o),
(430,375,cs),
(437,385,o),
(446,397,o),
(446,410,cs),
(446,424,o),
(448,427,o),
(456,428,cs),
(480,429,ls),
(503,429,o),
(506,456,o),
(479,456,cs),
(450,456,l),
(428,468,o),
(399,481,o),
(359,481,cs),
(334,481,o),
(334,450,o),
(359,450,cs),
(407,450,o),
(420,446,o),
(420,435,cs),
(420,420,o),
(410,403,o),
(401,387,cs),
(393,375,o),
(386,362,o),
(385,351,cs),
(382,295,ls),
(381,285,o),
(378,277,o),
(375,273,cs),
(370,267,o),
(365,252,o),
(365,243,cs),
(365,226,o),
(370,212,o),
(374,201,cs),
(379,189,o),
(382,180,o),
(382,168,cs),
(382,137,ls),
(382,123,o),
(368,107,o),
(359,99,cs),
(346,89,o),
(353,71,o),
(370,71,cs),
(375,71,o),
(381,74,o),
(389,79,cs),
(398,84,o),
(407,90,o),
(416,90,cs),
(429,90,o),
(439,85,o),
(440,74,cs),
(444,42,o),
(464,22,o),
(496,21,cs),
(574,17,ls),
(601,16,o),
(630,4,o),
(654,-5,cs),
(671,-11,o),
(686,-17,o),
(695,-17,cs)
);
},
{
closed = 1;
nodes = (
(689,3,o),
(678,7,o),
(662,14,cs),
(637,23,o),
(605,36,o),
(574,37,cs),
(496,41,ls),
(473,42,o),
(463,53,o),
(460,76,cs),
(457,98,o),
(436,110,o),
(416,110,cs),
(401,110,o),
(387,101,o),
(378,96,cs),
(372,92,o),
(370,91,o),
(370,91,c),
(369,91,o),
(376,87,o),
(371,83,c),
(382,93,o),
(402,115,o),
(402,137,cs),
(402,168,ls),
(402,184,o),
(397,196,o),
(393,208,cs),
(389,219,o),
(385,230,o),
(385,243,cs),
(385,248,o),
(388,257,o),
(391,261,cs),
(396,267,o),
(401,281,o),
(402,293,cs),
(405,349,ls),
(405,356,o),
(411,365,o),
(418,377,cs),
(428,393,o),
(440,414,o),
(440,435,cs),
(440,462,o),
(411,470,o),
(359,470,cs),
(357,470,o),
(357,461,o),
(359,461,cs),
(397,461,o),
(423,448,o),
(444,436,c),
(479,436,ls),
(477,436,o),
(482,449,o),
(480,449,cs),
(454,448,ls),
(435,446,o),
(426,431,o),
(426,410,cs),
(426,403,o),
(421,397,o),
(414,387,cs),
(406,376,o),
(394,360,o),
(395,341,cs),
(397,274,ls),
(397,264,o),
(402,252,o),
(406,242,cs),
(409,235,o),
(411,230,o),
(411,227,cs),
(411,225,o),
(410,220,o),
(409,214,cs),
(407,204,o),
(404,190,o),
(404,176,cs),
(404,170,o),
(400,162,o),
(396,152,cs),
(391,141,o),
(386,129,o),
(386,119,cs),
(386,109,o),
(395,99,o),
(412,99,cs),
(446,98,ls),
(457,98,o),
(460,96,o),
(460,83,cs),
(460,64,o),
(486,34,o),
(522,34,cs),
(562,34,ls),
(584,34,o),
(610,23,o),
(635,13,cs),
(655,4,o),
(676,-4,o),
(690,-4,cs),
(698,-4,o),
(709,2,o),
(721,9,cs),
(733,16,o),
(745,22,o),
(753,22,c),
(751,23,l),
(731,23,o),
(719,15,o),
(711,10,cs),
(704,5,o),
(700,3,o),
(695,3,cs)
);
}
);
width = 773;
}
);
unicode = 81;
},
{
glyphname = R;
lastChange = "2022-08-15 07:57:00 +0000";
layers = (
{
backgroundImage = {
imagePath = "../../../Screenshots/Screen Shot 2022-08-11 at 1.52.08 pm.png";
locked = 1;
pos = (898,-133);
scale = (-2.3163,2.3163);
};
layerId = m01;
shapes = (
{
closed = 1;
nodes = (
(483,-48,o),
(497,-32,o),
(497,-5,cs),
(497,52,o),
(464,95,o),
(437,130,cs),
(419,154,o),
(405,172,o),
(405,188,cs),
(405,207,o),
(417,222,o),
(484,222,cs),
(580,222,o),
(641,269,o),
(641,340,cs),
(641,403,o),
(611,437,o),
(588,464,cs),
(572,483,o),
(560,496,o),
(560,514,cs),
(560,525,o),
(563,539,o),
(566,551,cs),
(567,559,o),
(569,567,o),
(569,572,cs),
(569,620,o),
(506,708,o),
(465,708,cs),
(427,708,o),
(369,650,o),
(360,586,cs),
(352,526,o),
(325,511,o),
(292,511,cs),
(281,511,o),
(261,513,o),
(240,515,cs),
(220,517,o),
(199,519,o),
(187,519,cs),
(151,519,o),
(119,502,o),
(119,464,cs),
(119,416,o),
(115,382,o),
(111,357,cs),
(110,342,o),
(108,330,o),
(108,320,cs),
(108,310,o),
(110,293,o),
(111,276,cs),
(113,260,o),
(115,243,o),
(115,233,cs),
(115,191,o),
(102,167,o),
(90,143,cs),
(80,124,o),
(70,105,o),
(70,80,cs),
(70,40,o),
(109,-11,o),
(151,-11,cs),
(198,-11,o),
(251,74,o),
(251,146,cs),
(251,159,o),
(248,178,o),
(245,200,cs),
(241,227,o),
(237,258,o),
(237,282,cs),
(237,321,o),
(247,339,o),
(252,339,cs),
(254,339,o),
(257,336,o),
(261,327,cs),
(330,133,ls),
(354,64,o),
(423,-48,o),
(467,-48,cs)
);
},
{
closed = 1;
nodes = (
(436,-28,o),
(372,72,o),
(348,139,cs),
(279,333,ls),
(274,349,o),
(263,359,o),
(252,359,cs),
(234,359,o),
(217,331,o),
(217,282,cs),
(217,257,o),
(221,225,o),
(225,197,cs),
(228,176,o),
(231,157,o),
(231,146,cs),
(231,80,o),
(185,9,o),
(151,9,cs),
(121,9,o),
(90,48,o),
(90,80,cs),
(90,100,o),
(98,115,o),
(108,134,cs),
(120,157,o),
(135,187,o),
(135,233,cs),
(135,244,o),
(133,262,o),
(131,279,cs),
(130,295,o),
(128,311,o),
(128,320,cs),
(128,329,o),
(129,340,o),
(131,355,cs),
(135,380,o),
(139,415,o),
(139,464,cs),
(139,489,o),
(158,499,o),
(187,499,cs),
(198,499,o),
(218,497,o),
(239,495,cs),
(259,493,o),
(280,491,o),
(292,491,cs),
(332,491,o),
(370,513,o),
(380,584,cs),
(387,640,o),
(437,688,o),
(465,688,cs),
(494,688,o),
(549,613,o),
(549,572,cs),
(549,569,o),
(548,564,o),
(546,555,cs),
(543,543,o),
(540,527,o),
(540,514,cs),
(540,489,o),
(557,469,o),
(573,450,cs),
(596,424,o),
(621,395,o),
(621,340,cs),
(621,281,o),
(572,242,o),
(484,242,cs),
(405,242,o),
(385,215,o),
(385,188,cs),
(385,166,o),
(403,142,o),
(422,118,cs),
(448,83,o),
(477,45,o),
(477,-5,cs),
(477,-21,o),
(473,-28,o),
(467,-28,cs)
);
},
{
closed = 1;
nodes = (
(454,349,o),
(426,365,o),
(426,373,cs),
(426,378,o),
(430,380,o),
(446,380,cs),
(471,380,o),
(511,368,o),
(511,365,cs),
(511,359,o),
(499,349,o),
(479,349,cs)
);
},
{
closed = 1;
nodes = (
(509,329,o),
(531,349,o),
(531,365,cs),
(531,385,o),
(478,400,o),
(446,400,cs),
(419,400,o),
(406,388,o),
(406,373,cs),
(406,352,o),
(445,329,o),
(479,329,cs)
);
}
);
width = 691;
}
);
unicode = 82;
},
{
glyphname = S;
lastChange = "2022-08-15 08:02:32 +0000";
layers = (
{
backgroundImage = {
imagePath = "../../../Screenshots/Screen Shot 2022-08-11 at 1.41.19 pm.png";
locked = 1;
pos = (-162,-180);
scale = (3.207,3.207);
};
layerId = m01;
shapes = (
{
closed = 1;
nodes = (
(491,16,o),
(509,21,o),
(524,24,cs),
(534,27,o),
(542,29,o),
(547,29,cs),
(554,29,o),
(567,28,o),
(585,27,cs),
(615,24,o),
(655,21,o),
(692,21,cs),
(784,21,o),
(862,99,o),
(862,209,cs),
(862,291,o),
(752,345,o),
(674,349,cs),
(645,351,o),
(631,369,o),
(624,386,cs),
(617,407,o),
(598,410,o),
(582,399,cs),
(556,383,o),
(511,370,o),
(475,370,cs),
(424,370,o),
(392,357,o),
(376,345,cs),
(369,340,o),
(357,335,o),
(341,330,cs),
(314,320,o),
(275,306,o),
(232,274,cs),
(224,268,o),
(213,271,o),
(213,289,cs),
(213,304,o),
(227,321,o),
(245,331,cs),
(260,339,o),
(272,356,o),
(278,370,cs),
(300,414,o),
(348,447,o),
(355,447,cs),
(364,447,o),
(382,458,o),
(404,473,cs),
(444,499,o),
(498,534,o),
(536,534,cs),
(564,534,o),
(587,505,o),
(580,475,cs),
(573,449,o),
(602,442,o),
(614,462,cs),
(618,470,o),
(633,476,o),
(653,476,cs),
(685,476,o),
(721,463,o),
(730,453,cs),
(745,435,o),
(773,449,o),
(762,475,cs),
(698,630,o),
(640,683,o),
(532,683,cs),
(469,683,o),
(416,639,o),
(407,619,cs),
(394,593,o),
(375,579,o),
(341,579,cs),
(288,579,ls),
(249,579,o),
(231,553,o),
(232,523,cs),
(233,501,o),
(209,473,o),
(193,471,cs),
(142,463,o),
(114,424,o),
(114,391,cs),
(114,317,o),
(98,272,o),
(59,234,cs),
(19,195,o),
(50,140,o),
(144,140,cs),
(232,140,o),
(285,178,o),
(333,212,cs),
(373,240,o),
(406,264,o),
(452,264,cs),
(487,264,o),
(500,257,o),
(500,256,cs),
(502,244,o),
(512,234,o),
(538,234,cs),
(589,234,o),
(610,215,o),
(610,187,cs),
(610,170,o),
(591,153,o),
(525,141,cs),
(467,130,o),
(406,102,o),
(406,67,cs),
(406,39,o),
(443,16,o),
(475,16,cs)
);
},
{
closed = 1;
nodes = (
(449,36,o),
(426,51,o),
(426,67,cs),
(426,88,o),
(473,110,o),
(529,121,cs),
(601,135,o),
(630,158,o),
(630,187,cs),
(630,225,o),
(599,254,o),
(538,254,cs),
(522,254,o),
(520,255,o),
(520,258,cs),
(518,272,o),
(495,284,o),
(452,284,cs),
(400,284,o),
(361,256,o),
(322,229,cs),
(275,195,o),
(225,160,o),
(144,160,cs),
(65,160,o),
(46,193,o),
(73,220,cs),
(116,261,o),
(134,313,o),
(134,391,cs),
(134,417,o),
(155,445,o),
(197,451,cs),
(220,455,o),
(253,492,o),
(252,523,cs),
(251,546,o),
(260,559,o),
(288,559,cs),
(341,559,ls),
(382,559,o),
(410,579,o),
(425,611,cs),
(432,626,o),
(477,663,o),
(532,663,cs),
(631,663,o),
(682,617,o),
(744,467,cs),
(757,434,o),
(762,447,o),
(746,467,c),
(732,481,o),
(689,496,o),
(653,496,cs),
(628,496,o),
(604,487,o),
(596,472,cs),
(594,467,o),
(599,467,o),
(600,471,cs),
(609,511,o),
(576,554,o),
(536,554,cs),
(492,554,o),
(433,515,o),
(393,490,cs),
(372,476,o),
(358,467,o),
(355,467,cs),
(340,467,o),
(284,428,o),
(260,378,cs),
(254,366,o),
(246,355,o),
(235,349,cs),
(213,337,o),
(193,312,o),
(193,289,cs),
(193,253,o),
(226,245,o),
(244,258,cs),
(285,288,o),
(320,301,o),
(348,311,cs),
(364,317,o),
(378,322,o),
(388,329,cs),
(402,339,o),
(428,350,o),
(475,350,cs),
(513,350,o),
(564,365,o),
(592,383,cs),
(601,388,o),
(603,388,o),
(606,380,cs),
(613,359,o),
(634,331,o),
(672,329,cs),
(745,325,o),
(842,278,o),
(842,209,cs),
(842,108,o),
(775,41,o),
(692,41,cs),
(656,41,o),
(616,44,o),
(586,46,cs),
(569,48,o),
(555,49,o),
(547,49,cs),
(540,49,o),
(529,46,o),
(519,44,cs),
(505,40,o),
(489,36,o),
(475,36,cs)
);
}
);
width = 922;
}
);
unicode = 83;
},
{
glyphname = T;
lastChange = "2022-08-16 04:32:12 +0000";
layers = (
{
backgroundImage = {
imagePath = "../../../Screenshots/Screen Shot 2022-08-11 at 1.44.50 pm.png";
locked = 1;
pos = (-53,-123);
scale = (3.3313,3.3313);
};
layerId = m01;
shapes = (
{
closed = 1;
nodes = (
(173,554,o),
(189,556,o),
(203,561,cs),
(237,573,o),
(272,581,o),
(319,586,cs),
(369,592,o),
(512,610,o),
(777,677,cs),
(816,687,o),
(845,695,o),
(866,704,cs),
(879,708,o),
(891,710,o),
(907,711,cs),
(937,714,o),
(964,717,o),
(981,726,cs),
(985,728,o),
(987,731,o),
(987,735,cs),
(987,743,o),
(978,747,o),
(973,744,cs),
(958,737,o),
(935,734,o),
(905,731,cs),
(889,730,o),
(875,728,o),
(860,722,cs),
(839,715,o),
(810,707,o),
(773,697,cs),
(508,630,o),
(367,612,o),
(317,606,cs),
(268,601,o),
(231,592,o),
(197,579,cs),
(185,575,o),
(173,574,o),
(154,575,cs),
(25,581,ls),
(19,581,o),
(15,577,o),
(15,571,cs),
(15,565,o),
(19,561,o),
(25,561,cs),
(154,555,ls)
);
},
{
closed = 1;
nodes = (
(674,-4,o),
(677,-2,o),
(679,0,cs),
(686,9,o),
(690,21,o),
(690,44,cs),
(690,55,o),
(686,74,o),
(682,97,cs),
(676,130,o),
(669,171,o),
(669,202,cs),
(669,236,o),
(662,261,o),
(653,279,cs),
(640,307,o),
(638,348,o),
(638,408,cs),
(638,454,o),
(609,524,o),
(525,632,cs),
(523,634,o),
(520,636,o),
(517,636,cs),
(511,636,o),
(507,632,o),
(507,626,cs),
(507,624,o),
(508,622,o),
(509,620,c),
(591,514,o),
(618,450,o),
(618,408,cs),
(618,348,o),
(620,301,o),
(635,271,cs),
(644,253,o),
(649,234,o),
(649,202,cs),
(649,169,o),
(657,127,o),
(663,93,cs),
(667,71,o),
(670,53,o),
(670,44,cs),
(670,25,o),
(668,19,o),
(663,12,cs),
(662,10,o),
(661,8,o),
(661,6,cs),
(661,0,o),
(665,-4,o),
(671,-4,cs)
);
}
);
width = 997;
}
);
unicode = 84;
},
{
glyphname = U;
lastChange = "2022-08-16 04:34:53 +0000";
layers = (
{
backgroundImage = {
imagePath = "../../../Screenshots/Screen Shot 2022-08-11 at 1.44.55 pm.png";
locked = 1;
pos = (-71,-111);
scale = (3.0644,3.0644);
};
layerId = m01;
shapes = (
{
closed = 1;
nodes = (
(151,664,o),
(187,673,o),
(216,681,cs),
(236,686,o),
(252,690,o),
(262,690,cs),
(283,690,o),
(295,680,o),
(295,655,cs),
(295,584,o),
(287,521,o),
(279,460,cs),
(272,403,o),
(265,348,o),
(265,290,cs),
(265,262,o),
(284,246,o),
(311,246,cs),
(319,246,o),
(330,247,o),
(342,249,cs),
(356,250,o),
(371,252,o),
(382,252,cs),
(395,252,o),
(401,246,o),
(409,239,cs),
(417,232,o),
(424,226,o),
(435,226,cs),
(460,226,o),
(469,264,o),
(469,350,cs),
(469,609,ls),
(469,635,o),
(475,645,o),
(498,645,cs),
(569,645,ls),
(589,645,o),
(599,637,o),
(599,617,cs),
(599,608,o),
(597,598,o),
(596,586,cs),
(593,570,o),
(590,551,o),
(590,529,cs),
(590,501,o),
(580,455,o),
(572,433,cs),
(561,406,o),
(555,380,o),
(556,344,cs),
(561,72,ls),
(561,47,o),
(557,40,o),
(537,36,cs),
(475,24,o),
(356,21,o),
(118,21,cs),
(103,21,o),
(95,26,o),
(95,38,cs),
(95,89,o),
(103,156,o),
(118,205,cs),
(136,268,o),
(143,352,o),
(140,424,cs),
(130,654,ls),
(130,660,o),
(126,664,o),
(120,664,cs),
(114,664,o),
(110,660,o),
(110,654,cs),
(120,424,ls),
(123,352,o),
(116,272,o),
(98,211,cs),
(83,160,o),
(75,91,o),
(75,38,cs),
(75,14,o),
(96,1,o),
(118,1,cs),
(356,1,o),
(477,4,o),
(541,16,cs),
(572,22,o),
(581,42,o),
(581,72,cs),
(576,344,ls),
(575,378,o),
(581,400,o),
(590,425,cs),
(600,449,o),
(610,499,o),
(610,529,cs),
(610,550,o),
(613,567,o),
(615,583,cs),
(617,595,o),
(619,607,o),
(619,617,cs),
(619,648,o),
(598,665,o),
(569,665,cs),
(498,665,ls),
(463,665,o),
(449,642,o),
(449,609,cs),
(449,350,ls),
(449,274,o),
(444,246,o),
(435,246,cs),
(431,246,o),
(429,248,o),
(423,254,cs),
(414,261,o),
(402,272,o),
(382,272,cs),
(370,272,o),
(354,270,o),
(340,269,cs),
(328,267,o),
(318,266,o),
(311,266,cs),
(293,266,o),
(285,273,o),
(285,290,cs),
(285,347,o),
(292,401,o),
(299,458,cs),
(307,519,o),
(315,583,o),
(315,655,cs),
(315,691,o),
(292,710,o),
(262,710,cs),
(250,710,o),
(231,705,o),
(211,700,cs),
(182,693,o),
(148,684,o),
(120,684,cs),
(114,684,o),
(110,680,o),
(110,674,cs),
(110,668,o),
(114,664,o),
(120,664,cs)
);
}
);
width = 699;
}
);
unicode = 85;
},
{
glyphname = V;
lastChange = "2022-08-16 04:37:34 +0000";
layers = (
{
backgroundImage = {
imagePath = "../../../Screenshots/Screen Shot 2022-08-11 at 1.45.29 pm.png";
locked = 1;
pos = (-190,-193);
scale = (3.3049,3.3049);
};
layerId = m01;
shapes = (
{
closed = 1;
nodes = (
(354,13,o),
(390,29,o),
(400,84,cs),
(402,98,o),
(407,112,o),
(412,127,cs),
(420,151,o),
(428,176,o),
(428,202,cs),
(428,362,o),
(429,449,o),
(438,530,cs),
(441,561,o),
(449,580,o),
(475,601,cs),
(500,621,o),
(543,643,o),
(581,662,cs),
(605,674,o),
(627,686,o),
(639,694,c),
(641,696,o),
(643,699,o),
(643,702,cs),
(643,708,o),
(639,712,o),
(633,712,cs),
(631,712,o),
(629,711,o),
(627,710,cs),
(617,703,o),
(596,692,o),
(572,680,cs),
(534,661,o),
(489,638,o),
(463,617,cs),
(433,592,o),
(421,567,o),
(418,532,cs),
(409,451,o),
(408,362,o),
(408,202,cs),
(408,180,o),
(401,157,o),
(393,133,cs),
(388,118,o),
(383,103,o),
(380,88,cs),
(372,44,o),
(348,33,o),
(224,33,cs),
(208,33,o),
(200,40,o),
(200,53,cs),
(200,77,o),
(191,95,o),
(185,109,cs),
(180,120,o),
(176,128,o),
(176,136,cs),
(176,171,o),
(166,205,o),
(144,244,cs),
(126,275,o),
(120,299,o),
(120,352,cs),
(120,396,o),
(111,442,o),
(83,509,cs),
(56,573,o),
(45,613,o),
(45,691,cs),
(45,697,o),
(41,701,o),
(35,701,cs),
(29,701,o),
(25,697,o),
(25,691,cs),
(25,611,o),
(38,567,o),
(65,501,cs),
(91,436,o),
(100,394,o),
(100,352,cs),
(100,297,o),
(108,267,o),
(126,234,cs),
(148,197,o),
(156,169,o),
(156,136,cs),
(156,124,o),
(162,112,o),
(167,101,cs),
(173,86,o),
(180,72,o),
(180,53,cs),
(180,30,o),
(199,13,o),
(224,13,cs)
);
}
);
width = 658;
}
);
unicode = 86;
},
{
glyphname = W;
lastChange = "2022-08-16 04:40:39 +0000";
layers = (
{
backgroundImage = {
imagePath = "../../../Screenshots/Screen Shot 2022-08-11 at 1.46.03 pm.png";
locked = 1;
pos = (-186,-83);
scale = (5.7102,5.7102);
};
layerId = m01;
shapes = (
{
closed = 1;
nodes = (
(844,98,o),
(859,125,o),
(862,157,cs),
(873,252,o),
(893,325,o),
(937,337,cs),
(991,353,o),
(1026,378,o),
(1049,462,cs),
(1057,493,o),
(1069,510,o),
(1091,510,cs),
(1116,510,o),
(1141,495,o),
(1162,397,cs),
(1187,280,o),
(1235,187,o),
(1289,187,cs),
(1363,187,o),
(1446,302,o),
(1475,360,cs),
(1493,398,o),
(1507,412,o),
(1541,415,cs),
(1578,418,o),
(1607,419,o),
(1638,419,cs),
(1679,419,o),
(1705,413,o),
(1751,385,cs),
(1950,266,ls),
(1956,263,o),
(1965,266,o),
(1965,275,cs),
(1965,279,o),
(1963,282,o),
(1960,284,cs),
(1761,403,ls),
(1713,431,o),
(1681,439,o),
(1638,439,cs),
(1607,439,o),
(1576,438,o),
(1539,435,cs),
(1497,432,o),
(1477,410,o),
(1457,368,cs),
(1429,313,o),
(1352,207,o),
(1289,207,cs),
(1249,207,o),
(1205,287,o),
(1182,401,cs),
(1158,509,o),
(1124,530,o),
(1091,530,cs),
(1058,530,o),
(1039,502,o),
(1029,468,cs),
(1008,391,o),
(981,371,o),
(931,357,cs),
(876,341,o),
(853,257,o),
(842,159,cs),
(839,132,o),
(831,118,o),
(809,118,cs),
(790,118,o),
(759,130,o),
(723,162,cs),
(704,179,o),
(677,191,o),
(650,204,cs),
(618,220,o),
(584,236,o),
(560,259,cs),
(514,306,o),
(393,386,o),
(341,386,cs),
(303,386,o),
(281,350,o),
(262,318,cs),
(241,284,o),
(223,254,o),
(191,254,cs),
(130,254,o),
(55,294,o),
(55,353,cs),
(55,373,o),
(61,397,o),
(69,429,cs),
(74,451,o),
(80,476,o),
(86,504,cs),
(87,510,o),
(82,516,o),
(76,516,cs),
(71,516,o),
(67,512,o),
(66,508,cs),
(61,480,o),
(55,456,o),
(50,434,cs),
(42,402,o),
(35,375,o),
(35,353,cs),
(35,281,o),
(123,234,o),
(191,234,cs),
(234,234,o),
(258,273,o),
(279,307,cs),
(298,339,o),
(314,366,o),
(341,366,cs),
(386,366,o),
(502,290,o),
(546,245,cs),
(573,219,o),
(609,202,o),
(642,186,cs),
(669,173,o),
(693,162,o),
(709,148,cs),
(749,112,o),
(786,98,o),
(809,98,cs)
);
}
);
width = 1980;
}
);
unicode = 87;
},
{
glyphname = X;
lastChange = "2022-08-16 04:44:36 +0000";
layers = (
{
backgroundImage = {
imagePath = "../../../Screenshots/Screen Shot 2022-08-11 at 1.46.15 pm.png";
locked = 1;
pos = (-104,-158);
scale = (1.3773,1.3773);
};
layerId = m01;
shapes = (
{
closed = 1;
nodes = (
(139,-67,o),
(153,-61,o),
(158,-49,cs),
(210,95,o),
(271,179,o),
(316,225,c),
(322,230,o),
(322,231,o),
(328,225,cs),
(406,147,o),
(508,106,o),
(586,106,cs),
(610,106,o),
(614,127,o),
(598,135,cs),
(497,192,o),
(424,236,o),
(381,290,cs),
(378,294,o),
(378,294,o),
(382,298,cs),
(492,402,o),
(547,435,o),
(659,447,cs),
(676,449,o),
(682,468,o),
(665,478,cs),
(584,525,o),
(531,537,o),
(481,537,cs),
(424,537,o),
(299,498,o),
(251,455,cs),
(246,451,o),
(253,448,o),
(253,452,cs),
(253,530,o),
(271,622,o),
(303,665,c),
(313,681,o),
(294,696,o),
(282,684,cs),
(247,652,o),
(218,603,o),
(203,546,cs),
(200,534,o),
(196,523,o),
(191,511,cs),
(180,484,o),
(168,454,o),
(168,388,cs),
(168,373,o),
(165,362,o),
(159,354,cs),
(91,254,o),
(55,135,o),
(55,47,cs),
(55,-7,o),
(65,-25,o),
(79,-33,cs),
(127,-60,ls)
);
},
{
closed = 1;
nodes = (
(89,-15,l),
(80,-11,o),
(75,0,o),
(75,47,cs),
(75,133,o),
(109,246,o),
(175,342,cs),
(183,354,o),
(188,371,o),
(188,388,cs),
(188,450,o),
(199,477,o),
(210,504,cs),
(214,515,o),
(219,527,o),
(223,542,cs),
(236,595,o),
(263,640,o),
(296,670,cs),
(291,665,o),
(284,672,o),
(287,677,cs),
(253,630,o),
(233,532,o),
(233,452,cs),
(233,433,o),
(248,425,o),
(265,441,cs),
(309,480,o),
(428,517,o),
(481,517,cs),
(529,517,o),
(576,507,o),
(655,460,cs),
(648,464,o),
(665,468,o),
(657,467,cs),
(541,455,o),
(480,418,o),
(368,312,cs),
(357,301,o),
(357,288,o),
(365,278,cs),
(410,220,o),
(487,174,o),
(588,117,cs),
(580,121,o),
(600,126,o),
(586,126,cs),
(512,126,o),
(417,165,o),
(342,239,cs),
(329,252,o),
(313,250,o),
(302,239,cs),
(255,193,o),
(192,105,o),
(140,-41,cs),
(139,-43,o),
(139,-43,o),
(137,-42,cs)
);
}
);
width = 715;
}
);
unicode = 88;
},
{
glyphname = Y;
lastChange = "2022-08-16 04:49:59 +0000";
layers = (
{
layerId = m01;
shapes = (
{
closed = 1;
nodes = (
(289,-19,o),
(305,5,o),
(306,37,cs),
(312,135,o),
(321,154,o),
(348,169,cs),
(370,182,o),
(389,208,o),
(389,240,cs),
(389,280,o),
(413,339,o),
(426,339,cs),
(434,339,o),
(438,337,o),
(444,334,cs),
(448,331,o),
(455,328,o),
(464,328,cs),
(478,328,o),
(488,343,o),
(488,367,cs),
(488,431,ls),
(488,447,o),
(490,458,o),
(503,477,cs),
(586,595,ls),
(610,628,o),
(603,662,o),
(571,662,cs),
(523,662,o),
(494,631,o),
(468,603,cs),
(444,577,o),
(423,554,o),
(389,554,cs),
(370,554,o),
(362,562,o),
(353,571,cs),
(345,578,o),
(336,588,o),
(320,588,cs),
(309,588,o),
(299,582,o),
(290,577,cs),
(278,570,o),
(267,563,o),
(251,563,cs),
(215,563,ls),
(203,563,o),
(200,565,o),
(200,578,cs),
(200,692,ls),
(200,714,o),
(188,721,o),
(176,721,cs),
(150,721,o),
(67,638,o),
(67,571,cs),
(67,480,o),
(164,434,o),
(259,409,cs),
(280,404,o),
(290,396,o),
(290,375,cs),
(290,335,ls),
(290,324,o),
(286,314,o),
(280,307,cs),
(239,267,o),
(208,216,o),
(201,173,cs),
(193,124,o),
(149,88,o),
(121,81,cs),
(96,76,o),
(89,60,o),
(89,45,cs),
(89,16,o),
(134,-7,o),
(157,-7,cs),
(169,-7,o),
(180,-2,o),
(189,2,cs),
(199,7,o),
(207,10,o),
(215,10,cs),
(223,10,o),
(228,5,o),
(236,-3,cs),
(244,-11,o),
(253,-19,o),
(266,-19,cs)
);
},
{
closed = 1;
nodes = (
(261,1,o),
(257,5,o),
(250,12,cs),
(243,19,o),
(232,30,o),
(215,30,cs),
(202,30,o),
(191,25,o),
(181,20,cs),
(172,16,o),
(165,13,o),
(157,13,cs),
(140,13,o),
(109,30,o),
(109,45,cs),
(109,55,o),
(111,58,o),
(125,61,cs),
(159,70,o),
(211,113,o),
(221,169,cs),
(228,208,o),
(255,255,o),
(294,293,cs),
(304,304,o),
(310,320,o),
(310,335,cs),
(310,375,ls),
(310,407,o),
(289,422,o),
(265,429,cs),
(171,452,o),
(87,493,o),
(87,571,cs),
(87,628,o),
(161,701,o),
(176,701,cs),
(180,701,o),
(180,701,o),
(180,692,cs),
(180,578,ls),
(180,555,o),
(194,543,o),
(215,543,cs),
(251,543,ls),
(273,543,o),
(288,552,o),
(300,559,cs),
(309,565,o),
(315,568,o),
(320,568,cs),
(327,568,o),
(331,564,o),
(339,557,cs),
(348,547,o),
(362,534,o),
(389,534,cs),
(432,534,o),
(459,563,o),
(483,590,cs),
(509,617,o),
(531,642,o),
(571,642,cs),
(586,642,o),
(585,628,o),
(570,607,cs),
(487,489,ls),
(472,466,o),
(468,449,o),
(468,431,cs),
(468,367,ls),
(468,352,o),
(466,348,o),
(464,348,cs),
(460,348,o),
(458,349,o),
(453,352,cs),
(447,355,o),
(439,359,o),
(426,359,cs),
(396,359,o),
(369,283,o),
(369,240,cs),
(369,215,o),
(356,197,o),
(338,187,cs),
(304,168,o),
(292,142,o),
(286,37,cs),
(285,12,o),
(277,1,o),
(266,1,cs)
);
}
);
width = 600;
}
);
unicode = 89;
},
{
glyphname = Z;
lastChange = "2022-08-16 04:49:00 +0000";
layers = (
{
backgroundImage = {
imagePath = "../../../Screenshots/Screen Shot 2022-08-11 at 1.46.59 pm.png";
locked = 1;
pos = (-436,-168);
scale = (2.3966,2.3966);
};
layerId = m01;
shapes = (
{
closed = 1;
nodes = (
(830,5,ls),
(857,5,o),
(870,12,o),
(885,28,cs),
(924,72,o),
(1001,122,o),
(1034,122,cs),
(1092,122,o),
(1115,148,o),
(1115,194,cs),
(1115,228,o),
(1094,253,o),
(1054,253,cs),
(1029,253,o),
(1011,245,o),
(994,237,cs),
(975,229,o),
(958,221,o),
(930,221,cs),
(888,221,o),
(850,211,o),
(827,198,cs),
(809,187,o),
(752,166,o),
(629,129,c),
(619,125,o),
(619,125,o),
(619,126,c),
(796,323,o),
(857,479,o),
(857,561,cs),
(857,634,ls),
(857,676,o),
(814,693,o),
(716,693,cs),
(583,693,o),
(463,618,o),
(416,543,cs),
(324,398,ls),
(318,390,o),
(314,388,o),
(306,388,cs),
(299,388,o),
(289,393,o),
(273,400,cs),
(250,410,o),
(218,425,o),
(182,425,cs),
(159,425,o),
(145,413,o),
(136,394,cs),
(98,311,ls),
(86,286,o),
(69,272,o),
(45,255,cs),
(28,245,o),
(34,226,o),
(48,226,cs),
(64,226,o),
(77,238,o),
(88,249,cs),
(101,262,o),
(114,274,o),
(134,274,cs),
(164,274,o),
(196,254,o),
(225,235,cs),
(248,221,o),
(271,206,o),
(290,206,cs),
(316,206,o),
(354,238,o),
(392,270,cs),
(421,294,o),
(450,319,o),
(473,330,cs),
(495,341,o),
(516,359,o),
(518,363,c),
(530,380,o),
(546,392,o),
(564,392,cs),
(577,392,o),
(579,389,o),
(579,373,cs),
(579,340,o),
(550,210,o),
(523,192,c),
(513,187,o),
(507,179,o),
(501,171,cs),
(490,155,o),
(475,137,o),
(425,113,cs),
(399,102,o),
(390,88,o),
(390,71,cs),
(390,48,o),
(412,27,o),
(444,25,cs),
(453,24,o),
(464,22,o),
(479,19,cs),
(509,13,o),
(552,5,o),
(603,5,cs)
);
},
{
closed = 1;
nodes = (
(554,25,o),
(513,33,o),
(483,39,cs),
(468,42,o),
(456,44,o),
(446,45,cs),
(421,47,o),
(410,58,o),
(410,71,cs),
(410,81,o),
(414,86,o),
(433,95,cs),
(488,121,o),
(505,143,o),
(517,159,cs),
(523,167,o),
(527,172,o),
(533,176,cs),
(569,199,o),
(599,338,o),
(599,373,cs),
(599,398,o),
(587,412,o),
(564,412,cs),
(539,412,o),
(516,395,o),
(502,375,c),
(500,373,o),
(483,357,o),
(465,348,cs),
(439,336,o),
(408,310,o),
(379,285,cs),
(342,254,o),
(308,226,o),
(290,226,cs),
(277,226,o),
(259,238,o),
(236,252,cs),
(206,271,o),
(170,294,o),
(134,294,cs),
(106,294,o),
(88,276,o),
(74,263,cs),
(63,253,o),
(56,246,o),
(48,246,cs),
(59,246,o),
(51,236,o),
(55,239,cs),
(81,256,o),
(102,274,o),
(116,303,cs),
(154,386,ls),
(161,400,o),
(167,405,o),
(182,405,cs),
(213,405,o),
(241,392,o),
(265,382,cs),
(280,375,o),
(295,368,o),
(306,368,cs),
(319,368,o),
(331,374,o),
(340,388,cs),
(432,533,ls),
(477,603,o),
(589,673,o),
(716,673,cs),
(807,673,o),
(837,661,o),
(837,634,cs),
(837,561,ls),
(837,483,o),
(778,333,o),
(605,140,cs),
(590,124,o),
(599,99,o),
(635,109,cs),
(758,148,o),
(817,169,o),
(837,180,cs),
(858,193,o),
(890,201,o),
(930,201,cs),
(962,201,o),
(983,211,o),
(1002,219,cs),
(1019,227,o),
(1033,233,o),
(1054,233,cs),
(1083,233,o),
(1095,219,o),
(1095,194,cs),
(1095,157,o),
(1082,142,o),
(1034,142,cs),
(994,142,o),
(911,88,o),
(869,42,cs),
(858,28,o),
(852,25,o),
(830,25,cs),
(603,25,ls)
);
}
);
width = 1160;
}
);
unicode = 90;
},
{
glyphname = A.ss01;
lastChange = "2022-10-21 04:45:19 +0000";
layers = (
{
background = {
shapes = (
{
attr = {
lineCapEnd = "1";
lineCapStart = "1";
strokeWidth = 20;
};
closed = 0;
nodes = (
(520,796,l)
);
},
{
attr = {
lineCapEnd = "1";
lineCapStart = "1";
strokeWidth = 20;
};
closed = 0;
nodes = (
(524,763,l)
);
},
{
attr = {
lineCapEnd = "1";
lineCapStart = "1";
strokeWidth = 20;
};
closed = 0;
nodes = (
(524,701,l)
);
},
{
attr = {
lineCapEnd = "1";
lineCapStart = "1";
strokeWidth = 20;
};
closed = 0;
nodes = (
(520,664,l)
);
},
{
attr = {
lineCapEnd = "1";
lineCapStart = "1";
strokeWidth = 20;
};
closed = 0;
nodes = (
(437,701,l)
);
},
{
attr = {
lineCapEnd = "1";
lineCapStart = "1";
strokeWidth = 20;
};
closed = 0;
nodes = (
(442,610,l)
);
},
{
attr = {
lineCapEnd = "1";
lineCapStart = "1";
strokeWidth = 20;
};
closed = 0;
nodes = (
(460,658,l)
);
},
{
attr = {
lineCapEnd = "1";
lineCapStart = "1";
strokeWidth = 20;
};
closed = 0;
nodes = (
(460,568,l)
);
},
{
attr = {
lineCapEnd = "1";
lineCapStart = "1";
strokeWidth = 20;
};
closed = 0;
nodes = (
(416,503,l)
);
},
{
attr = {
lineCapEnd = "1";
lineCapStart = "1";
strokeWidth = 20;
};
closed = 0;
nodes = (
(385,583,l)
);
},
{
attr = {
lineCapEnd = "1";
lineCapStart = "1";
strokeWidth = 20;
};
closed = 0;
nodes = (
(411,549,l)
);
},
{
attr = {
lineCapEnd = "1";
lineCapStart = "1";
strokeWidth = 20;
};
closed = 0;
nodes = (
(418,454,l)
);
},
{
attr = {
lineCapEnd = "1";
lineCapStart = "1";
strokeWidth = 20;
};
closed = 0;
nodes = (
(362,426,l)
);
},
{
attr = {
lineCapEnd = "1";
lineCapStart = "1";
strokeWidth = 20;
};
closed = 0;
nodes = (
(340,464,l)
);
},
{
attr = {
lineCapEnd = "1";
lineCapStart = "1";
strokeWidth = 20;
};
closed = 0;
nodes = (
(336,404,l)
);
},
{
attr = {
lineCapEnd = "1";
lineCapStart = "1";
strokeWidth = 20;
};
closed = 0;
nodes = (
(367,394,l)
);
},
{
attr = {
lineCapEnd = "1";
lineCapStart = "1";
strokeWidth = 20;
};
closed = 0;
nodes = (
(336,313,l)
);
},
{
attr = {
lineCapEnd = "1";
lineCapStart = "1";
strokeWidth = 20;
};
closed = 0;
nodes = (
(277,373,l)
);
},
{
attr = {
lineCapEnd = "1";
lineCapStart = "1";
strokeWidth = 20;
};
closed = 0;
nodes = (
(238,285,l)
);
},
{
attr = {
lineCapEnd = "1";
lineCapStart = "1";
strokeWidth = 20;
};
closed = 0;
nodes = (
(296,333,l)
);
},
{
attr = {
lineCapEnd = "1";
lineCapStart = "1";
strokeWidth = 20;
};
closed = 0;
nodes = (
(264,224,l)
);
},
{
attr = {
lineCapEnd = "1";
lineCapStart = "1";
strokeWidth = 20;
};
closed = 0;
nodes = (
(201,186,l)
);
},
{
attr = {
lineCapEnd = "1";
lineCapStart = "1";
strokeWidth = 20;
};
closed = 0;
nodes = (
(302,285,l)
);
},
{
attr = {
lineCapEnd = "1";
lineCapStart = "1";
strokeWidth = 20;
};
closed = 0;
nodes = (
(292,149,l)
);
},
{
attr = {
lineCapEnd = "1";
lineCapStart = "1";
strokeWidth = 20;
};
closed = 0;
nodes = (
(249,129,l)
);
},
{
attr = {
lineCapEnd = "1";
lineCapStart = "1";
strokeWidth = 20;
};
closed = 0;
nodes = (
(234,177,l)
);
},
{
attr = {
lineCapEnd = "1";
lineCapStart = "1";
strokeWidth = 20;
};
closed = 0;
nodes = (
(210,232,l)
);
},
{
attr = {
lineCapEnd = "1";
lineCapStart = "1";
strokeWidth = 20;
};
closed = 0;
nodes = (
(201,129,l)
);
},
{
attr = {
lineCapEnd = "1";
lineCapStart = "1";
strokeWidth = 20;
};
closed = 0;
nodes = (
(238,73,l)
);
},
{
attr = {
lineCapEnd = "1";
lineCapStart = "1";
strokeWidth = 20;
};
closed = 0;
nodes = (
(595,276,l)
);
},
{
attr = {
lineCapEnd = "1";
lineCapStart = "1";
strokeWidth = 20;
};
closed = 0;
nodes = (
(613,270,l)
);
},
{
attr = {
lineCapEnd = "1";
lineCapStart = "1";
strokeWidth = 20;
};
closed = 0;
nodes = (
(665,270,l)
);
},
{
attr = {
lineCapEnd = "1";
lineCapStart = "1";
strokeWidth = 20;
};
closed = 0;
nodes = (
(725,280,l)
);
},
{
attr = {
lineCapEnd = "1";
lineCapStart = "1";
strokeWidth = 20;
};
closed = 0;
nodes = (
(741,285,l)
);
},
{
attr = {
lineCapEnd = "1";
lineCapStart = "1";
strokeWidth = 20;
};
closed = 0;
nodes = (
(824,280,l)
);
},
{
attr = {
lineCapEnd = "1";
lineCapStart = "1";
strokeWidth = 20;
};
closed = 0;
nodes = (
(845,280,l)
);
},
{
attr = {
lineCapEnd = "1";
lineCapStart = "1";
strokeWidth = 20;
};
closed = 0;
nodes = (
(887,280,l)
);
},
{
attr = {
lineCapEnd = "1";
lineCapStart = "1";
strokeWidth = 20;
};
closed = 0;
nodes = (
(915,280,l)
);
},
{
attr = {
lineCapEnd = "1";
lineCapStart = "1";
strokeWidth = 20;
};
closed = 0;
nodes = (
(931,257,l)
);
},
{
attr = {
lineCapEnd = "1";
lineCapStart = "1";
strokeWidth = 20;
};
closed = 0;
nodes = (
(931,242,l)
);
},
{
attr = {
lineCapEnd = "1";
lineCapStart = "1";
strokeWidth = 20;
};
closed = 0;
nodes = (
(759,232,l)
);
},
{
attr = {
lineCapEnd = "1";
lineCapStart = "1";
strokeWidth = 20;
};
closed = 0;
nodes = (
(708,224,l)
);
},
{
attr = {
lineCapEnd = "1";
lineCapStart = "1";
strokeWidth = 20;
};
closed = 0;
nodes = (
(640,204,l)
);
},
{
attr = {
lineCapEnd = "1";
lineCapStart = "1";
strokeWidth = 20;
};
closed = 0;
nodes = (
(575,200,l)
);
},
{
attr = {
lineCapEnd = "1";
lineCapStart = "1";
strokeWidth = 20;
};
closed = 0;
nodes = (
(628,220,l)
);
},
{
attr = {
lineCapEnd = "1";
lineCapStart = "1";
strokeWidth = 20;
};
closed = 0;
nodes = (
(759,224,l)
);
},
{
attr = {
lineCapEnd = "1";
lineCapStart = "1";
strokeWidth = 20;
};
closed = 0;
nodes = (
(806,226,l)
);
},
{
attr = {
lineCapEnd = "1";
lineCapStart = "1";
strokeWidth = 20;
};
closed = 0;
nodes = (
(823,226,l)
);
},
{
attr = {
lineCapEnd = "1";
lineCapStart = "1";
strokeWidth = 20;
};
closed = 0;
nodes = (
(876,226,l)
);
},
{
attr = {
lineCapEnd = "1";
lineCapStart = "1";
strokeWidth = 20;
};
closed = 0;
nodes = (
(898,226,l)
);
},
{
attr = {
lineCapEnd = "1";
lineCapStart = "1";
strokeWidth = 20;
};
closed = 0;
nodes = (
(963,242,l)
);
},
{
attr = {
lineCapEnd = "1";
lineCapStart = "1";
strokeWidth = 20;
};
closed = 0;
nodes = (
(980,242,l)
);
},
{
attr = {
lineCapEnd = "1";
lineCapStart = "1";
strokeWidth = 20;
};
closed = 0;
nodes = (
(1038,242,l)
);
},
{
attr = {
lineCapEnd = "1";
lineCapStart = "1";
strokeWidth = 20;
};
closed = 0;
nodes = (
(1038,260,l)
);
},
{
attr = {
lineCapEnd = "1";
lineCapStart = "1";
strokeWidth = 20;
};
closed = 0;
nodes = (
(1223,384,l)
);
},
{
attr = {
lineCapEnd = "1";
lineCapStart = "1";
strokeWidth = 20;
};
closed = 0;
nodes = (
(1152,437,l)
);
},
{
attr = {
lineCapEnd = "1";
lineCapStart = "1";
strokeWidth = 20;
};
closed = 0;
nodes = (
(1123,481,l)
);
},
{
attr = {
lineCapEnd = "1";
lineCapStart = "1";
strokeWidth = 20;
};
closed = 0;
nodes = (
(1071,583,l)
);
},
{
attr = {
lineCapEnd = "1";
lineCapStart = "1";
strokeWidth = 20;
};
closed = 0;
nodes = (
(1056,595,l)
);
},
{
attr = {
lineCapEnd = "1";
lineCapStart = "1";
strokeWidth = 20;
};
closed = 0;
nodes = (
(1000,664,l)
);
},
{
attr = {
lineCapEnd = "1";
lineCapStart = "1";
strokeWidth = 20;
};
closed = 0;
nodes = (
(980,681,l)
);
},
{
attr = {
lineCapEnd = "1";
lineCapStart = "1";
strokeWidth = 20;
};
closed = 0;
nodes = (
(963,704,l)
);
},
{
attr = {
lineCapEnd = "1";
lineCapStart = "1";
strokeWidth = 20;
};
closed = 0;
nodes = (
(925,743,l)
);
},
{
attr = {
lineCapEnd = "1";
lineCapStart = "1";
strokeWidth = 20;
};
closed = 0;
nodes = (
(905,757,l)
);
},
{
attr = {
lineCapEnd = "1";
lineCapStart = "1";
strokeWidth = 20;
};
closed = 0;
nodes = (
(872,796,l)
);
},
{
attr = {
lineCapEnd = "1";
lineCapStart = "1";
strokeWidth = 20;
};
closed = 0;
nodes = (
(779,800,l)
);
},
{
attr = {
lineCapEnd = "1";
lineCapStart = "1";
strokeWidth = 20;
};
closed = 0;
nodes = (
(797,729,l)
);
},
{
attr = {
lineCapEnd = "1";
lineCapStart = "1";
strokeWidth = 20;
};
closed = 0;
nodes = (
(883,724,l)
);
},
{
attr = {
lineCapEnd = "1";
lineCapStart = "1";
strokeWidth = 20;
};
closed = 0;
nodes = (
(954,643,l)
);
},
{
attr = {
lineCapEnd = "1";
lineCapStart = "1";
strokeWidth = 20;
};
closed = 0;
nodes = (
(963,634,l)
);
},
{
attr = {
lineCapEnd = "1";
lineCapStart = "1";
strokeWidth = 20;
};
closed = 0;
nodes = (
(1007,549,l)
);
},
{
attr = {
lineCapEnd = "1";
lineCapStart = "1";
strokeWidth = 20;
};
closed = 0;
nodes = (
(1019,541,l)
);
},
{
attr = {
lineCapEnd = "1";
lineCapStart = "1";
strokeWidth = 20;
};
closed = 0;
nodes = (
(1047,503,l)
);
},
{
attr = {
lineCapEnd = "1";
lineCapStart = "1";
strokeWidth = 20;
};
closed = 0;
nodes = (
(1084,469,l)
);
},
{
attr = {
lineCapEnd = "1";
lineCapStart = "1";
strokeWidth = 20;
};
closed = 0;
nodes = (
(1132,426,l)
);
},
{
attr = {
lineCapEnd = "1";
lineCapStart = "1";
strokeWidth = 20;
};
closed = 0;
nodes = (
(1175,377,l)
);
},
{
attr = {
lineCapEnd = "1";
lineCapStart = "1";
strokeWidth = 20;
};
closed = 0;
nodes = (
(1208,346,l)
);
},
{
attr = {
lineCapEnd = "1";
lineCapStart = "1";
strokeWidth = 20;
};
closed = 0;
nodes = (
(1231,302,l)
);
},
{
attr = {
lineCapEnd = "1";
lineCapStart = "1";
strokeWidth = 20;
};
closed = 0;
nodes = (
(1255,265,l)
);
},
{
attr = {
lineCapEnd = "1";
lineCapStart = "1";
strokeWidth = 20;
};
closed = 0;
nodes = (
(1284,232,l)
);
},
{
attr = {
lineCapEnd = "1";
lineCapStart = "1";
strokeWidth = 20;
};
closed = 0;
nodes = (
(1307,189,l)
);
},
{
attr = {
lineCapEnd = "1";
lineCapStart = "1";
strokeWidth = 20;
};
closed = 0;
nodes = (
(1344,129,l)
);
},
{
attr = {
lineCapEnd = "1";
lineCapStart = "1";
strokeWidth = 20;
};
closed = 0;
nodes = (
(216,110,l)
);
},
{
attr = {
lineCapEnd = "1";
lineCapStart = "1";
strokeWidth = 20;
};
closed = 0;
nodes = (
(216,53,l)
);
},
{
attr = {
lineCapEnd = "1";
lineCapStart = "1";
strokeWidth = 20;
};
closed = 0;
nodes = (
(216,10,l)
);
},
{
attr = {
lineCapEnd = "1";
lineCapStart = "1";
strokeWidth = 20;
};
closed = 0;
nodes = (
(221,-66,l)
);
},
{
attr = {
lineCapEnd = "1";
lineCapStart = "1";
strokeWidth = 20;
};
closed = 0;
nodes = (
(221,-70,l)
);
},
{
attr = {
lineCapEnd = "1";
lineCapStart = "1";
strokeWidth = 20;
};
closed = 0;
nodes = (
(595,156,l)
);
},
{
attr = {
lineCapEnd = "1";
lineCapStart = "1";
strokeWidth = 20;
};
closed = 0;
nodes = (
(551,100,l)
);
},
{
attr = {
lineCapEnd = "1";
lineCapStart = "1";
strokeWidth = 20;
};
closed = 0;
nodes = (
(547,85,l)
);
},
{
attr = {
lineCapEnd = "1";
lineCapStart = "1";
strokeWidth = 20;
};
closed = 0;
nodes = (
(491,-2,l)
);
},
{
attr = {
lineCapEnd = "1";
lineCapStart = "1";
strokeWidth = 20;
};
closed = 0;
nodes = (
(520,73,l)
);
},
{
attr = {
lineCapEnd = "1";
lineCapStart = "1";
strokeWidth = 20;
};
closed = 0;
nodes = (
(524,118,l)
);
},
{
attr = {
lineCapEnd = "1";
lineCapStart = "1";
strokeWidth = 20;
};
closed = 0;
nodes = (
(536,138,l)
);
},
{
attr = {
lineCapEnd = "1";
lineCapStart = "1";
strokeWidth = 20;
};
closed = 0;
nodes = (
(613,232,l)
);
},
{
attr = {
lineCapEnd = "1";
lineCapStart = "1";
strokeWidth = 20;
};
closed = 0;
nodes = (
(613,162,l)
);
},
{
attr = {
lineCapEnd = "1";
lineCapStart = "1";
strokeWidth = 20;
};
closed = 0;
nodes = (
(595,106,l)
);
},
{
attr = {
lineCapEnd = "1";
lineCapStart = "1";
strokeWidth = 20;
};
closed = 0;
nodes = (
(590,81,l)
);
},
{
attr = {
lineCapEnd = "1";
lineCapStart = "1";
strokeWidth = 20;
};
closed = 0;
nodes = (
(1019,209,l)
);
},
{
attr = {
lineCapEnd = "1";
lineCapStart = "1";
strokeWidth = 20;
};
closed = 0;
nodes = (
(1056,181,l)
);
},
{
attr = {
lineCapEnd = "1";
lineCapStart = "1";
strokeWidth = 20;
};
closed = 0;
nodes = (
(1067,171,l)
);
},
{
attr = {
lineCapEnd = "1";
lineCapStart = "1";
strokeWidth = 20;
};
closed = 0;
nodes = (
(1094,129,l)
);
},
{
attr = {
lineCapEnd = "1";
lineCapStart = "1";
strokeWidth = 20;
};
closed = 0;
nodes = (
(1132,91,l)
);
},
{
attr = {
lineCapEnd = "1";
lineCapStart = "1";
strokeWidth = 20;
};
closed = 0;
nodes = (
(1067,209,l)
);
},
{
attr = {
lineCapEnd = "1";
lineCapStart = "1";
strokeWidth = 20;
};
closed = 0;
nodes = (
(1071,209,l)
);
},
{
attr = {
lineCapEnd = "1";
lineCapStart = "1";
strokeWidth = 20;
};
closed = 0;
nodes = (
(1104,156,l)
);
},
{
attr = {
lineCapEnd = "1";
lineCapStart = "1";
strokeWidth = 20;
};
closed = 0;
nodes = (
(1138,138,l)
);
},
{
attr = {
lineCapEnd = "1";
lineCapStart = "1";
strokeWidth = 20;
};
closed = 0;
nodes = (
(1142,129,l)
);
},
{
attr = {
lineCapEnd = "1";
lineCapStart = "1";
strokeWidth = 20;
};
closed = 0;
nodes = (
(1152,118,l)
);
},
{
attr = {
lineCapEnd = "1";
lineCapStart = "1";
strokeWidth = 20;
};
closed = 0;
nodes = (
(725,512,l)
);
},
{
attr = {
lineCapEnd = "1";
lineCapStart = "1";
strokeWidth = 20;
};
closed = 0;
nodes = (
(699,464,l)
);
},
{
attr = {
lineCapEnd = "1";
lineCapStart = "1";
strokeWidth = 20;
};
closed = 0;
nodes = (
(699,444,l)
);
},
{
attr = {
lineCapEnd = "1";
lineCapStart = "1";
strokeWidth = 20;
};
closed = 0;
nodes = (
(753,444,l)
);
},
{
attr = {
lineCapEnd = "1";
lineCapStart = "1";
strokeWidth = 20;
};
closed = 0;
nodes = (
(812,444,l)
);
},
{
attr = {
lineCapEnd = "1";
lineCapStart = "1";
strokeWidth = 20;
};
closed = 0;
nodes = (
(849,449,l)
);
},
{
attr = {
lineCapEnd = "1";
lineCapStart = "1";
strokeWidth = 20;
};
closed = 0;
nodes = (
(823,508,l)
);
},
{
attr = {
lineCapEnd = "1";
lineCapStart = "1";
strokeWidth = 20;
};
closed = 0;
nodes = (
(787,541,l)
);
},
{
attr = {
lineCapEnd = "1";
lineCapStart = "1";
strokeWidth = 20;
};
closed = 0;
nodes = (
(753,572,l)
);
},
{
attr = {
lineCapEnd = "1";
lineCapStart = "1";
strokeWidth = 20;
};
closed = 0;
nodes = (
(741,525,l)
);
},
{
attr = {
lineCapEnd = "1";
lineCapStart = "1";
strokeWidth = 20;
};
closed = 0;
nodes = (
(1092,542,l)
);
},
{
attr = {
lineCapEnd = "1";
lineCapStart = "1";
strokeWidth = 20;
};
closed = 0;
nodes = (
(996,580,l)
);
},
{
attr = {
lineCapEnd = "1";
lineCapStart = "1";
strokeWidth = 20;
};
closed = 0;
nodes = (
(1078,508,l)
);
},
{
attr = {
lineCapEnd = "1";
lineCapStart = "1";
strokeWidth = 20;
};
closed = 0;
nodes = (
(843,759,l)
);
},
{
attr = {
lineCapEnd = "1";
lineCapStart = "1";
strokeWidth = 20;
};
closed = 0;
nodes = (
(534,22,l)
);
}
);
};
layerId = m01;
shapes = (
{
attr = {
lineCapEnd = 1;
lineCapStart = 1;
strokeWidth = 22;
};
closed = 0;
nodes = (
(370,764,l),
(380,764,l)
);
},
{
attr = {
lineCapEnd = 1;
lineCapStart = 1;
strokeWidth = 22;
};
closed = 0;
nodes = (
(376,731,l),
(386,731,l)
);
},
{
attr = {
lineCapEnd = 1;
lineCapStart = 1;
strokeWidth = 22;
};
closed = 0;
nodes = (
(376,672,l),
(386,672,l)
);
},
{
attr = {
lineCapEnd = 1;
lineCapStart = 1;
strokeWidth = 22;
};
closed = 0;
nodes = (
(370,635,l),
(380,635,l)
);
},
{
attr = {
lineCapEnd = 1;
lineCapStart = 1;
strokeWidth = 22;
};
closed = 0;
nodes = (
(292,672,l),
(302,672,l)
);
},
{
attr = {
lineCapEnd = 1;
lineCapStart = 1;
strokeWidth = 22;
};
closed = 0;
nodes = (
(297,584,l),
(307,584,l)
);
},
{
attr = {
lineCapEnd = 1;
lineCapStart = 1;
strokeWidth = 22;
};
closed = 0;
nodes = (
(315,630,l),
(325,630,l)
);
},
{
attr = {
lineCapEnd = 1;
lineCapStart = 1;
strokeWidth = 22;
};
closed = 0;
nodes = (
(315,542,l),
(325,542,l)
);
},
{
attr = {
lineCapEnd = 1;
lineCapStart = 1;
strokeWidth = 22;
};
closed = 0;
nodes = (
(269,477,l),
(279,477,l)
);
},
{
attr = {
lineCapEnd = 1;
lineCapStart = 1;
strokeWidth = 22;
};
closed = 0;
nodes = (
(241,556,l),
(251,556,l)
);
},
{
attr = {
lineCapEnd = 1;
lineCapStart = 1;
strokeWidth = 22;
};
closed = 0;
nodes = (
(265,523,l),
(275,523,l)
);
},
{
attr = {
lineCapEnd = 1;
lineCapStart = 1;
strokeWidth = 22;
};
closed = 0;
nodes = (
(273,431,l),
(283,431,l)
);
},
{
attr = {
lineCapEnd = 1;
lineCapStart = 1;
strokeWidth = 22;
};
closed = 0;
nodes = (
(218,403,l),
(228,403,l)
);
},
{
attr = {
lineCapEnd = 1;
lineCapStart = 1;
strokeWidth = 22;
};
closed = 0;
nodes = (
(195,441,l),
(205,441,l)
);
},
{
attr = {
lineCapEnd = 1;
lineCapStart = 1;
strokeWidth = 22;
};
closed = 0;
nodes = (
(191,380,l),
(201,380,l)
);
},
{
attr = {
lineCapEnd = 1;
lineCapStart = 1;
strokeWidth = 22;
};
closed = 0;
nodes = (
(223,372,l),
(233,372,l)
);
},
{
attr = {
lineCapEnd = 1;
lineCapStart = 1;
strokeWidth = 22;
};
closed = 0;
nodes = (
(191,292,l),
(201,292,l)
);
},
{
attr = {
lineCapEnd = 1;
lineCapStart = 1;
strokeWidth = 22;
};
closed = 0;
nodes = (
(135,353,l),
(145,353,l)
);
},
{
attr = {
lineCapEnd = 1;
lineCapStart = 1;
strokeWidth = 22;
};
closed = 0;
nodes = (
(98,265,l),
(108,265,l)
);
},
{
attr = {
lineCapEnd = 1;
lineCapStart = 1;
strokeWidth = 22;
};
closed = 0;
nodes = (
(153,311,l),
(163,311,l)
);
},
{
attr = {
lineCapEnd = 1;
lineCapStart = 1;
strokeWidth = 22;
};
closed = 0;
nodes = (
(122,204,l),
(132,204,l)
);
},
{
attr = {
lineCapEnd = 1;
lineCapStart = 1;
strokeWidth = 22;
};
closed = 0;
nodes = (
(61,168,l),
(71,168,l)
);
},
{
attr = {
lineCapEnd = 1;
lineCapStart = 1;
strokeWidth = 22;
};
closed = 0;
nodes = (
(158,265,l),
(168,265,l)
);
},
{
attr = {
lineCapEnd = 1;
lineCapStart = 1;
strokeWidth = 22;
};
closed = 0;
nodes = (
(149,130,l),
(158,130,l)
);
},
{
attr = {
lineCapEnd = 1;
lineCapStart = 1;
strokeWidth = 22;
};
closed = 0;
nodes = (
(107,112,l),
(116,112,l)
);
},
{
attr = {
lineCapEnd = 1;
lineCapStart = 1;
strokeWidth = 22;
};
closed = 0;
nodes = (
(93,158,l),
(115,158,l)
);
},
{
attr = {
lineCapEnd = 1;
lineCapStart = 1;
strokeWidth = 22;
};
closed = 0;
nodes = (
(70,214,l),
(80,214,l)
);
},
{
attr = {
lineCapEnd = 1;
lineCapStart = 1;
strokeWidth = 22;
};
closed = 0;
nodes = (
(61,112,l),
(75,112,l)
);
},
{
attr = {
lineCapEnd = 1;
lineCapStart = 1;
strokeWidth = 22;
};
closed = 0;
nodes = (
(98,57,l),
(116,57,l)
);
},
{
attr = {
lineCapEnd = 1;
lineCapStart = 1;
strokeWidth = 22;
};
closed = 0;
nodes = (
(445,256,l),
(455,256,l)
);
},
{
attr = {
lineCapEnd = 1;
lineCapStart = 1;
strokeWidth = 22;
};
closed = 0;
nodes = (
(464,252,l),
(474,252,l)
);
},
{
attr = {
lineCapEnd = 1;
lineCapStart = 1;
strokeWidth = 22;
};
closed = 0;
nodes = (
(514,252,l),
(524,252,l)
);
},
{
attr = {
lineCapEnd = 1;
lineCapStart = 1;
strokeWidth = 22;
};
closed = 0;
nodes = (
(574,260,l),
(584,260,l)
);
},
{
attr = {
lineCapEnd = 1;
lineCapStart = 1;
strokeWidth = 22;
};
closed = 0;
nodes = (
(588,265,l),
(598,265,l)
);
},
{
attr = {
lineCapEnd = 1;
lineCapStart = 1;
strokeWidth = 22;
};
closed = 0;
nodes = (
(672,260,l),
(682,260,l)
);
},
{
attr = {
lineCapEnd = 1;
lineCapStart = 1;
strokeWidth = 22;
};
closed = 0;
nodes = (
(690,260,l),
(700,260,l)
);
},
{
attr = {
lineCapEnd = 1;
lineCapStart = 1;
strokeWidth = 22;
};
closed = 0;
nodes = (
(731,260,l),
(741,260,l)
);
},
{
attr = {
lineCapEnd = 1;
lineCapStart = 1;
strokeWidth = 22;
};
closed = 0;
nodes = (
(759,260,l),
(769,260,l)
);
},
{
attr = {
lineCapEnd = 1;
lineCapStart = 1;
strokeWidth = 22;
};
closed = 0;
nodes = (
(773,237,l),
(783,237,l)
);
},
{
attr = {
lineCapEnd = 1;
lineCapStart = 1;
strokeWidth = 22;
};
closed = 0;
nodes = (
(773,223,l),
(783,223,l)
);
},
{
attr = {
lineCapEnd = 1;
lineCapStart = 1;
strokeWidth = 22;
};
closed = 0;
nodes = (
(607,214,l),
(617,214,l)
);
},
{
attr = {
lineCapEnd = 1;
lineCapStart = 1;
strokeWidth = 22;
};
closed = 0;
nodes = (
(556,204,l),
(566,204,l)
);
},
{
attr = {
lineCapEnd = 1;
lineCapStart = 1;
strokeWidth = 22;
};
closed = 0;
nodes = (
(491,187,l),
(501,187,l)
);
},
{
attr = {
lineCapEnd = 1;
lineCapStart = 1;
strokeWidth = 22;
};
closed = 0;
nodes = (
(426,181,l),
(436,181,l)
);
},
{
attr = {
lineCapEnd = 1;
lineCapStart = 1;
strokeWidth = 22;
};
closed = 0;
nodes = (
(477,200,l),
(487,200,l)
);
},
{
attr = {
lineCapEnd = 1;
lineCapStart = 1;
strokeWidth = 22;
};
closed = 0;
nodes = (
(607,204,l),
(617,204,l)
);
},
{
attr = {
lineCapEnd = 1;
lineCapStart = 1;
strokeWidth = 22;
};
closed = 0;
nodes = (
(653,210,l),
(663,210,l)
);
},
{
attr = {
lineCapEnd = 1;
lineCapStart = 1;
strokeWidth = 22;
};
closed = 0;
nodes = (
(666,210,l),
(676,210,l)
);
},
{
attr = {
lineCapEnd = 1;
lineCapStart = 1;
strokeWidth = 22;
};
closed = 0;
nodes = (
(723,210,l),
(733,210,l)
);
},
{
attr = {
lineCapEnd = 1;
lineCapStart = 1;
strokeWidth = 22;
};
closed = 0;
nodes = (
(741,210,l),
(751,210,l)
);
},
{
attr = {
lineCapEnd = 1;
lineCapStart = 1;
strokeWidth = 22;
};
closed = 0;
nodes = (
(805,223,l),
(815,223,l)
);
},
{
attr = {
lineCapEnd = 1;
lineCapStart = 1;
strokeWidth = 22;
};
closed = 0;
nodes = (
(824,223,l),
(834,223,l)
);
},
{
attr = {
lineCapEnd = 1;
lineCapStart = 1;
strokeWidth = 22;
};
closed = 0;
nodes = (
(880,223,l),
(890,223,l)
);
},
{
attr = {
lineCapEnd = 1;
lineCapStart = 1;
strokeWidth = 22;
};
closed = 0;
nodes = (
(880,242,l),
(890,242,l)
);
},
{
attr = {
lineCapEnd = 1;
lineCapStart = 1;
strokeWidth = 22;
};
closed = 0;
nodes = (
(1059,362,l),
(1069,362,l)
);
},
{
attr = {
lineCapEnd = 1;
lineCapStart = 1;
strokeWidth = 22;
};
closed = 0;
nodes = (
(990,413,l),
(1000,413,l)
);
},
{
attr = {
lineCapEnd = 1;
lineCapStart = 1;
strokeWidth = 22;
};
closed = 0;
nodes = (
(967,454,l),
(977,454,l)
);
},
{
attr = {
lineCapEnd = 1;
lineCapStart = 1;
strokeWidth = 22;
};
closed = 0;
nodes = (
(962,460,l),
(972,460,l)
);
},
{
attr = {
lineCapEnd = 1;
lineCapStart = 1;
strokeWidth = 22;
};
closed = 0;
nodes = (
(897,570,l),
(907,570,l)
);
},
{
attr = {
lineCapEnd = 1;
lineCapStart = 1;
strokeWidth = 22;
};
closed = 0;
nodes = (
(842,635,l),
(852,635,l)
);
},
{
attr = {
lineCapEnd = 1;
lineCapStart = 1;
strokeWidth = 22;
};
closed = 0;
nodes = (
(824,653,l),
(834,653,l)
);
},
{
attr = {
lineCapEnd = 1;
lineCapStart = 1;
strokeWidth = 22;
};
closed = 0;
nodes = (
(805,676,l),
(815,676,l)
);
},
{
attr = {
lineCapEnd = 1;
lineCapStart = 1;
strokeWidth = 22;
};
closed = 0;
nodes = (
(769,714,l),
(779,714,l)
);
},
{
attr = {
lineCapEnd = 1;
lineCapStart = 1;
strokeWidth = 22;
};
closed = 0;
nodes = (
(750,727,l),
(760,727,l)
);
},
{
attr = {
lineCapEnd = 1;
lineCapStart = 1;
strokeWidth = 22;
};
closed = 0;
nodes = (
(718,764,l),
(728,764,l)
);
},
{
attr = {
lineCapEnd = 1;
lineCapStart = 1;
strokeWidth = 22;
};
closed = 0;
nodes = (
(626,769,l),
(636,769,l)
);
},
{
attr = {
lineCapEnd = 1;
lineCapStart = 1;
strokeWidth = 22;
};
closed = 0;
nodes = (
(643,699,l),
(653,699,l)
);
},
{
attr = {
lineCapEnd = 1;
lineCapStart = 1;
strokeWidth = 22;
};
closed = 0;
nodes = (
(727,695,l),
(737,695,l)
);
},
{
attr = {
lineCapEnd = 1;
lineCapStart = 1;
strokeWidth = 22;
};
closed = 0;
nodes = (
(731,691,l),
(741,691,l)
);
},
{
attr = {
lineCapEnd = 1;
lineCapStart = 1;
strokeWidth = 22;
};
closed = 0;
nodes = (
(796,616,l),
(806,616,l)
);
},
{
attr = {
lineCapEnd = 1;
lineCapStart = 1;
strokeWidth = 22;
};
closed = 0;
nodes = (
(805,607,l),
(815,607,l)
);
},
{
attr = {
lineCapEnd = 1;
lineCapStart = 1;
strokeWidth = 22;
};
closed = 0;
nodes = (
(847,523,l),
(857,523,l)
);
},
{
attr = {
lineCapEnd = 1;
lineCapStart = 1;
strokeWidth = 22;
};
closed = 0;
nodes = (
(861,515,l),
(871,515,l)
);
},
{
attr = {
lineCapEnd = 1;
lineCapStart = 1;
strokeWidth = 22;
};
closed = 0;
nodes = (
(889,477,l),
(899,477,l)
);
},
{
attr = {
lineCapEnd = 1;
lineCapStart = 1;
strokeWidth = 22;
};
closed = 0;
nodes = (
(926,445,l),
(936,445,l)
);
},
{
attr = {
lineCapEnd = 1;
lineCapStart = 1;
strokeWidth = 22;
};
closed = 0;
nodes = (
(972,403,l),
(982,403,l)
);
},
{
attr = {
lineCapEnd = 1;
lineCapStart = 1;
strokeWidth = 22;
};
closed = 0;
nodes = (
(1013,357,l),
(1023,357,l)
);
},
{
attr = {
lineCapEnd = 1;
lineCapStart = 1;
strokeWidth = 22;
};
closed = 0;
nodes = (
(1046,325,l),
(1056,325,l)
);
},
{
attr = {
lineCapEnd = 1;
lineCapStart = 1;
strokeWidth = 22;
};
closed = 0;
nodes = (
(1069,283,l),
(1079,283,l)
);
},
{
attr = {
lineCapEnd = 1;
lineCapStart = 1;
strokeWidth = 22;
};
closed = 0;
nodes = (
(1092,246,l),
(1102,246,l)
);
},
{
attr = {
lineCapEnd = 1;
lineCapStart = 1;
strokeWidth = 22;
};
closed = 0;
nodes = (
(1120,214,l),
(1130,214,l)
);
},
{
attr = {
lineCapEnd = 1;
lineCapStart = 1;
strokeWidth = 22;
};
closed = 0;
nodes = (
(1143,172,l),
(1153,172,l)
);
},
{
attr = {
lineCapEnd = 1;
lineCapStart = 1;
strokeWidth = 22;
};
closed = 0;
nodes = (
(1180,112,l),
(1190,112,l)
);
},
{
attr = {
lineCapEnd = 1;
lineCapStart = 1;
strokeWidth = 22;
};
closed = 0;
nodes = (
(75,94,l),
(83,94,l)
);
},
{
attr = {
lineCapEnd = 1;
lineCapStart = 1;
strokeWidth = 22;
};
closed = 0;
nodes = (
(75,38,l),
(84,38,l)
);
},
{
attr = {
lineCapEnd = 1;
lineCapStart = 1;
strokeWidth = 22;
};
closed = 0;
nodes = (
(75,-4,l),
(89,-4,l)
);
},
{
attr = {
lineCapEnd = 1;
lineCapStart = 1;
strokeWidth = 22;
};
closed = 0;
nodes = (
(80,-78,l),
(92,-78,l)
);
},
{
attr = {
lineCapEnd = 1;
lineCapStart = 1;
strokeWidth = 22;
};
closed = 0;
nodes = (
(80,-82,l),
(89,-82,l)
);
},
{
attr = {
lineCapEnd = 1;
lineCapStart = 1;
strokeWidth = 22;
};
closed = 0;
nodes = (
(445,140,l),
(455,140,l)
);
},
{
attr = {
lineCapEnd = 1;
lineCapStart = 1;
strokeWidth = 22;
};
closed = 0;
nodes = (
(403,84,l),
(413,84,l)
);
},
{
attr = {
lineCapEnd = 1;
lineCapStart = 1;
strokeWidth = 22;
};
closed = 0;
nodes = (
(399,71,l),
(409,71,l)
);
},
{
attr = {
lineCapEnd = 1;
lineCapStart = 1;
strokeWidth = 22;
};
closed = 0;
nodes = (
(343,-17,l),
(356,-17,l)
);
},
{
attr = {
lineCapEnd = 1;
lineCapStart = 1;
strokeWidth = 22;
};
closed = 0;
nodes = (
(370,57,l),
(380,57,l)
);
},
{
attr = {
lineCapEnd = 1;
lineCapStart = 1;
strokeWidth = 22;
};
closed = 0;
nodes = (
(376,103,l),
(386,103,l)
);
},
{
attr = {
lineCapEnd = 1;
lineCapStart = 1;
strokeWidth = 22;
};
closed = 0;
nodes = (
(389,122,l),
(399,122,l)
);
},
{
attr = {
lineCapEnd = 1;
lineCapStart = 1;
strokeWidth = 22;
};
closed = 0;
nodes = (
(389,126,l),
(399,126,l)
);
},
{
attr = {
lineCapEnd = 1;
lineCapStart = 1;
strokeWidth = 22;
};
closed = 0;
nodes = (
(464,214,l),
(474,214,l)
);
},
{
attr = {
lineCapEnd = 1;
lineCapStart = 1;
strokeWidth = 22;
};
closed = 0;
nodes = (
(464,145,l),
(474,145,l)
);
},
{
attr = {
lineCapEnd = 1;
lineCapStart = 1;
strokeWidth = 22;
};
closed = 0;
nodes = (
(445,89,l),
(455,89,l)
);
},
{
attr = {
lineCapEnd = 1;
lineCapStart = 1;
strokeWidth = 22;
};
closed = 0;
nodes = (
(441,66,l),
(451,66,l)
);
},
{
attr = {
lineCapEnd = 1;
lineCapStart = 1;
strokeWidth = 22;
};
closed = 0;
nodes = (
(861,191,l),
(871,191,l)
);
},
{
attr = {
lineCapEnd = 1;
lineCapStart = 1;
strokeWidth = 22;
};
closed = 0;
nodes = (
(897,163,l),
(907,163,l)
);
},
{
attr = {
lineCapEnd = 1;
lineCapStart = 1;
strokeWidth = 22;
};
closed = 0;
nodes = (
(907,154,l),
(917,154,l)
);
},
{
attr = {
lineCapEnd = 1;
lineCapStart = 1;
strokeWidth = 22;
};
closed = 0;
nodes = (
(935,112,l),
(945,112,l)
);
},
{
attr = {
lineCapEnd = 1;
lineCapStart = 1;
strokeWidth = 22;
};
closed = 0;
nodes = (
(972,75,l),
(982,75,l)
);
},
{
attr = {
lineCapEnd = 1;
lineCapStart = 1;
strokeWidth = 22;
};
closed = 0;
nodes = (
(907,191,l),
(917,191,l)
);
},
{
attr = {
lineCapEnd = 1;
lineCapStart = 1;
strokeWidth = 22;
};
closed = 0;
nodes = (
(912,191,l),
(922,191,l)
);
},
{
attr = {
lineCapEnd = 1;
lineCapStart = 1;
strokeWidth = 22;
};
closed = 0;
nodes = (
(944,140,l),
(954,140,l)
);
},
{
attr = {
lineCapEnd = 1;
lineCapStart = 1;
strokeWidth = 22;
};
closed = 0;
nodes = (
(977,122,l),
(987,122,l)
);
},
{
attr = {
lineCapEnd = 1;
lineCapStart = 1;
strokeWidth = 22;
};
closed = 0;
nodes = (
(981,112,l),
(991,112,l)
);
},
{
attr = {
lineCapEnd = 1;
lineCapStart = 1;
strokeWidth = 22;
};
closed = 0;
nodes = (
(574,487,l),
(584,487,l)
);
},
{
attr = {
lineCapEnd = 1;
lineCapStart = 1;
strokeWidth = 22;
};
closed = 0;
nodes = (
(546,441,l),
(556,441,l)
);
},
{
attr = {
lineCapEnd = 1;
lineCapStart = 1;
strokeWidth = 22;
};
closed = 0;
nodes = (
(546,422,l),
(556,422,l)
);
},
{
attr = {
lineCapEnd = 1;
lineCapStart = 1;
strokeWidth = 22;
};
closed = 0;
nodes = (
(603,422,l),
(613,422,l)
);
},
{
attr = {
lineCapEnd = 1;
lineCapStart = 1;
strokeWidth = 22;
};
closed = 0;
nodes = (
(658,422,l),
(668,422,l)
);
},
{
attr = {
lineCapEnd = 1;
lineCapStart = 1;
strokeWidth = 22;
};
closed = 0;
nodes = (
(695,427,l),
(705,427,l)
);
},
{
attr = {
lineCapEnd = 1;
lineCapStart = 1;
strokeWidth = 22;
};
closed = 0;
nodes = (
(666,483,l),
(676,483,l)
);
},
{
attr = {
lineCapEnd = 1;
lineCapStart = 1;
strokeWidth = 22;
};
closed = 0;
nodes = (
(635,515,l),
(645,515,l)
);
},
{
attr = {
lineCapEnd = 1;
lineCapStart = 1;
strokeWidth = 22;
};
closed = 0;
nodes = (
(603,547,l),
(613,547,l)
);
},
{
attr = {
lineCapEnd = 1;
lineCapStart = 1;
strokeWidth = 22;
};
closed = 0;
nodes = (
(588,500,l),
(598,500,l)
);
},
{
attr = {
lineCapEnd = 1;
lineCapStart = 1;
strokeWidth = 22;
};
closed = 0;
nodes = (
(932,517,l),
(942,517,l)
);
},
{
attr = {
lineCapEnd = 1;
lineCapStart = 1;
strokeWidth = 22;
};
closed = 0;
nodes = (
(839,555,l),
(849,555,l)
);
},
{
attr = {
lineCapEnd = 1;
lineCapStart = 1;
strokeWidth = 22;
};
closed = 0;
nodes = (
(918,483,l),
(928,483,l)
);
},
{
attr = {
lineCapEnd = 1;
lineCapStart = 1;
strokeWidth = 22;
};
closed = 0;
nodes = (
(688,729,l),
(698,729,l)
);
},
{
attr = {
lineCapEnd = 1;
lineCapStart = 1;
strokeWidth = 22;
};
closed = 0;
nodes = (
(385,9,l),
(395,9,l)
);
}
);
width = 1251;
}
);
},
{
glyphname = B.ss01;
lastChange = "2022-10-24 04:53:30 +0000";
layers = (
{
layerId = m01;
shapes = (
{
attr = {
lineCapEnd = 1;
lineCapStart = 1;
strokeWidth = 20;
};
closed = 1;
nodes = (
(202,700,ls),
(226,700,o),
(250,686,o),
(275,686,cs),
(315,686,o),
(397,679,o),
(418,640,cs),
(429,619,o),
(416,604,o),
(394,582,cs),
(380,567,o),
(359,536,o),
(383,519,cs),
(430,485,ls),
(445,474,o),
(487,485,o),
(512,496,cs),
(565,520,o),
(625,489,o),
(666,457,cs),
(703,428,o),
(715,374,o),
(715,333,cs),
(715,288,o),
(727,225,o),
(701,180,cs),
(685,153,o),
(656,162,o),
(631,150,cs),
(518,98,o),
(501,90,o),
(481,75,cs),
(459,58,o),
(464,31,o),
(448,11,cs),
(421,-22,o),
(388,-2,o),
(359,15,cs),
(348,21,o),
(337,27,o),
(328,30,cs),
(283,42,o),
(283,118,o),
(275,152,cs),
(269,176,o),
(234,196,o),
(212,197,cs),
(180,199,o),
(163,228,o),
(144,248,cs),
(122,273,o),
(129,306,o),
(118,333,cs),
(106,366,o),
(109,393,o),
(142,393,cs),
(178,393,o),
(191,397,o),
(191,424,cs),
(192,509,o),
(163,579,o),
(111,624,cs),
(104,630,o),
(80,669,o),
(80,681,cs),
(80,694,o),
(112,700,o),
(129,700,cs)
);
},
{
attr = {
lineCapEnd = 1;
lineCapStart = 1;
strokeWidth = 20;
};
closed = 0;
nodes = (
(631,197,l),
(665,244,o),
(688,318,o),
(637,364,cs),
(616,382,o),
(603,382,o),
(587,407,cs),
(571,434,o),
(557,442,o),
(527,442,c)
);
},
{
attr = {
lineCapEnd = 1;
lineCapStart = 1;
strokeWidth = 20;
};
closed = 0;
nodes = (
(310,567,l),
(284,604,o),
(265,642,o),
(212,616,c)
);
}
);
width = 788;
}
);
},
{
glyphname = C.ss01;
lastChange = "2022-10-25 01:20:47 +0000";
layers = (
{
layerId = m01;
shapes = (
{
attr = {
strokeWidth = 20;
};
closed = 1;
nodes = (
(259,-2,o),
(342,6,o),
(415,17,cs),
(425,19,o),
(429,26,o),
(428,34,cs),
(418,98,ls),
(416,108,o),
(422,115,o),
(431,115,cs),
(510,117,ls),
(516,117,o),
(524,112,o),
(524,104,cs),
(524,93,ls),
(524,84,o),
(530,77,o),
(540,77,cs),
(554,77,ls),
(563,77,o),
(571,84,o),
(570,92,cs),
(569,103,ls),
(568,109,o),
(575,117,o),
(581,117,cs),
(658,123,ls),
(665,124,o),
(673,132,o),
(672,139,cs),
(670,162,ls),
(669,170,o),
(675,176,o),
(683,177,cs),
(744,181,ls),
(755,182,o),
(760,190,o),
(757,201,cs),
(751,221,ls),
(749,228,o),
(742,232,o),
(737,232,cs),
(664,237,ls),
(657,237,o),
(652,242,o),
(652,251,cs),
(653,283,ls),
(653,289,o),
(659,295,o),
(665,295,cs),
(689,295,ls),
(696,295,o),
(702,301,o),
(702,308,cs),
(702,335,ls),
(702,341,o),
(696,347,o),
(690,347,cs),
(633,348,ls),
(626,348,o),
(621,342,o),
(620,335,cs),
(619,329,ls),
(617,319,o),
(613,316,o),
(605,315,cs),
(595,314,ls),
(587,313,o),
(578,305,o),
(578,297,cs),
(578,260,ls),
(578,254,o),
(583,249,o),
(589,249,cs),
(602,250,ls),
(609,251,o),
(614,245,o),
(615,238,cs),
(623,199,ls),
(625,189,o),
(620,185,o),
(612,183,cs),
(511,175,o),
(405,179,o),
(306,183,cs),
(299,183,o),
(292,191,o),
(292,198,cs),
(293,218,ls),
(294,231,o),
(296,233,o),
(306,235,cs),
(322,239,ls),
(329,241,o),
(335,248,o),
(336,256,cs),
(338,270,ls),
(340,285,o),
(331,292,o),
(320,289,cs),
(310,287,o),
(304,290,o),
(301,303,cs),
(294,337,ls),
(292,345,o),
(285,349,o),
(279,350,cs),
(226,358,ls),
(220,359,o),
(213,366,o),
(213,372,cs),
(213,464,ls),
(213,472,o),
(222,479,o),
(230,479,cs),
(305,476,ls),
(314,476,o),
(324,469,o),
(324,458,cs),
(324,447,ls),
(324,436,o),
(328,430,o),
(335,429,cs),
(351,426,ls),
(361,424,o),
(371,430,o),
(373,438,cs),
(377,456,ls),
(379,465,o),
(386,472,o),
(395,472,cs),
(405,472,o),
(412,464,o),
(412,456,cs),
(412,441,ls),
(412,431,o),
(420,428,o),
(427,428,cs),
(586,430,ls),
(599,430,o),
(605,438,o),
(604,452,cs),
(603,465,ls),
(602,476,o),
(594,484,o),
(583,483,cs),
(483,478,ls),
(474,478,o),
(466,484,o),
(466,495,cs),
(465,606,ls),
(465,623,o),
(461,625,o),
(442,625,cs),
(382,625,o),
(325,629,o),
(263,643,cs),
(254,645,o),
(245,652,o),
(245,662,cs),
(244,692,ls),
(244,703,o),
(239,706,o),
(228,706,cs),
(127,706,ls),
(116,706,o),
(111,700,o),
(111,691,cs),
(111,675,ls),
(111,662,o),
(105,656,o),
(94,656,cs),
(81,656,o),
(73,648,o),
(73,639,cs),
(73,620,ls),
(73,609,o),
(80,603,o),
(88,603,cs),
(96,603,o),
(102,599,o),
(102,587,cs),
(102,566,ls),
(102,554,o),
(111,550,o),
(118,550,cs),
(129,550,ls),
(140,550,o),
(144,544,o),
(145,534,cs),
(154,444,ls),
(155,434,o),
(149,427,o),
(139,426,cs),
(124,425,ls),
(117,425,o),
(112,417,o),
(112,410,cs),
(113,90,ls),
(113,81,o),
(120,76,o),
(126,75,cs),
(140,73,ls),
(145,72,o),
(151,68,o),
(152,63,cs),
(159,29,ls),
(161,21,o),
(166,14,o),
(176,12,cs)
);
},
{
attr = {
strokeWidth = 20;
};
closed = 1;
nodes = (
(303,84,o),
(297,91,o),
(297,99,cs),
(297,103,ls),
(297,108,o),
(300,116,o),
(308,118,cs),
(322,122,ls),
(331,125,o),
(338,118,o),
(338,108,cs),
(338,105,ls),
(338,96,o),
(331,89,o),
(325,88,cs),
(313,86,ls)
);
},
{
attr = {
strokeWidth = 20;
};
closed = 1;
nodes = (
(301,526,o),
(290,534,o),
(289,542,cs),
(287,559,ls),
(286,571,o),
(293,577,o),
(302,580,cs),
(316,584,ls),
(325,587,o),
(337,580,o),
(337,567,cs),
(337,551,ls),
(337,544,o),
(331,533,o),
(322,531,cs),
(309,528,ls)
);
}
);
width = 818;
}
);
},
{
glyphname = E.ss01;
lastChange = "2022-10-21 05:26:44 +0000";
layers = (
{
layerId = m01;
shapes = (
{
attr = {
lineCapEnd = 1;
lineCapStart = 1;
strokeWidth = 20;
};
closed = 1;
nodes = (
(661,-25,o),
(730,-15,o),
(784,14,cs),
(806,25,o),
(811,34,o),
(811,46,cs),
(811,57,o),
(798,71,o),
(781,61,cs),
(762,50,o),
(727,47,o),
(695,35,cs),
(657,23,o),
(494,33,o),
(467,38,cs),
(434,44,o),
(338,63,o),
(324,68,cs),
(286,81,o),
(264,112,o),
(264,130,cs),
(264,142,o),
(269,150,o),
(284,150,cs),
(492,150,ls),
(569,150,o),
(646,143,o),
(725,143,cs),
(785,143,o),
(806,152,o),
(806,185,cs),
(805,200,o),
(798,209,o),
(785,210,cs),
(559,231,o),
(472,205,o),
(260,235,cs),
(232,239,o),
(186,248,o),
(186,283,cs),
(186,315,o),
(192,341,o),
(213,367,cs),
(257,424,o),
(352,413,o),
(413,413,cs),
(504,413,o),
(647,357,o),
(706,320,cs),
(737,300,o),
(778,283,o),
(812,270,cs),
(843,259,o),
(997,239,o),
(1028,254,cs),
(1110,295,o),
(1149,354,o),
(1145,428,cs),
(1145,460,o),
(1150,526,o),
(1105,588,cs),
(1063,646,o),
(894,729,o),
(828,758,cs),
(787,775,o),
(742,794,o),
(698,806,cs),
(678,812,o),
(526,865,o),
(492,905,cs),
(471,930,o),
(434,967,o),
(417,967,cs),
(397,967,o),
(364,933,o),
(364,915,cs),
(364,897,o),
(383,842,o),
(406,825,cs),
(500,756,o),
(597,700,o),
(707,660,cs),
(764,639,o),
(821,627,o),
(878,611,cs),
(909,603,o),
(1013,561,o),
(1026,546,cs),
(1056,510,o),
(1059,430,o),
(1039,388,cs),
(1021,352,o),
(990,344,o),
(953,344,cs),
(920,344,o),
(877,348,o),
(848,363,cs),
(798,390,o),
(701,422,o),
(646,434,cs),
(553,455,o),
(457,472,o),
(361,472,cs),
(323,472,o),
(287,458,o),
(248,457,cs),
(215,455,o),
(126,395,o),
(101,350,cs),
(88,322,o),
(65,267,o),
(65,237,cs),
(65,132,o),
(147,37,o),
(245,1,cs),
(352,-40,o),
(477,-25,o),
(589,-25,cs)
);
}
);
width = 1205;
}
);
},
{
glyphname = F.ss01;
lastChange = "2022-10-21 05:32:33 +0000";
layers = (
{
layerId = m01;
shapes = (
{
attr = {
lineCapEnd = 1;
lineCapStart = 1;
strokeWidth = 20;
};
closed = 1;
nodes = (
(427,4,o),
(425,14,o),
(422,22,cs),
(420,28,o),
(418,34,o),
(424,34,cs),
(435,34,o),
(444,37,o),
(445,48,cs),
(446,57,o),
(441,65,o),
(431,67,cs),
(420,69,o),
(409,73,o),
(409,94,cs),
(409,109,o),
(439,277,o),
(439,306,cs),
(439,318,o),
(437,336,o),
(449,379,cs),
(450,383,o),
(453,385,o),
(456,385,cs),
(513,386,o),
(565,370,o),
(622,370,cs),
(683,370,o),
(771,346,o),
(832,346,cs),
(840,346,o),
(849,354,o),
(849,363,cs),
(849,374,o),
(853,394,o),
(856,405,cs),
(857,409,o),
(856,412,o),
(851,413,cs),
(836,415,o),
(818,422,o),
(806,427,cs),
(789,434,o),
(781,462,o),
(781,482,cs),
(781,498,o),
(787,509,o),
(799,506,cs),
(820,502,o),
(843,502,o),
(865,502,cs),
(869,502,o),
(872,505,o),
(873,509,c),
(875,534,o),
(885,586,o),
(881,598,cs),
(878,607,o),
(822,635,o),
(808,642,cs),
(768,663,o),
(700,679,o),
(669,679,cs),
(667,679,o),
(591,676,o),
(577,682,cs),
(564,687,o),
(445,706,o),
(388,706,cs),
(353,706,o),
(317,703,o),
(282,703,cs),
(268,703,o),
(252,698,o),
(246,680,cs),
(243,672,o),
(234,669,o),
(214,674,cs),
(183,682,o),
(132,685,o),
(102,694,cs),
(92,697,o),
(79,695,o),
(77,685,cs),
(75,675,o),
(85,656,o),
(93,654,cs),
(104,652,o),
(108,646,o),
(104,620,cs),
(97,572,ls),
(95,560,o),
(100,526,o),
(142,494,cs),
(146,491,o),
(159,452,o),
(139,443,cs),
(129,439,o),
(96,412,o),
(106,391,cs),
(109,385,o),
(107,378,o),
(100,376,cs),
(81,369,o),
(81,361,o),
(91,344,cs),
(102,326,o),
(94,314,o),
(82,309,cs),
(75,306,o),
(70,304,o),
(70,295,cs),
(70,278,o),
(107,271,o),
(120,284,cs),
(131,295,o),
(145,289,o),
(143,278,cs),
(136,250,o),
(156,242,o),
(177,251,cs),
(184,254,o),
(192,249,o),
(196,243,cs),
(199,239,o),
(226,203,o),
(230,196,cs),
(235,190,o),
(230,185,o),
(230,177,cs),
(230,163,o),
(260,159,o),
(262,146,cs),
(265,128,o),
(262,114,o),
(280,113,cs),
(300,111,o),
(319,92,o),
(304,83,cs),
(296,78,o),
(292,76,o),
(292,71,cs),
(292,64,o),
(304,56,o),
(316,53,cs),
(329,49,o),
(339,41,o),
(343,31,cs),
(346,21,o),
(353,20,o),
(364,27,cs),
(376,33,o),
(400,30,o),
(400,17,cs),
(400,7,o),
(406,4,o),
(415,4,cs)
);
}
);
width = 936;
}
);
},
{
glyphname = M.ss01;
lastChange = "2022-10-21 05:15:03 +0000";
layers = (
{
layerId = m01;
shapes = (
{
attr = {
lineCapEnd = 1;
lineCapStart = 1;
strokeWidth = 20;
};
closed = 1;
nodes = (
(315,-19,o),
(320,-11,o),
(320,1,cs),
(320,51,o),
(312,103,o),
(312,196,cs),
(312,201,o),
(315,204,o),
(320,204,cs),
(334,204,o),
(353,205,o),
(367,204,cs),
(371,204,o),
(375,201,o),
(375,197,cs),
(383,113,ls),
(383,109,o),
(387,106,o),
(391,106,cs),
(408,104,o),
(443,100,o),
(449,108,cs),
(461,121,o),
(448,181,o),
(448,196,cs),
(448,239,o),
(455,282,o),
(456,325,cs),
(457,341,o),
(453,372,o),
(459,389,cs),
(461,392,o),
(464,394,o),
(468,393,cs),
(509,386,o),
(539,391,o),
(539,373,cs),
(538,357,o),
(536,343,o),
(537,328,cs),
(539,313,o),
(548,298,o),
(549,283,cs),
(563,116,ls),
(563,112,o),
(568,109,o),
(572,109,cs),
(599,112,ls),
(604,113,o),
(608,109,o),
(609,104,cs),
(631,14,ls),
(632,10,o),
(634,8,o),
(638,8,cs),
(710,8,o),
(783,6,o),
(854,9,cs),
(878,10,o),
(900,15,o),
(958,25,cs),
(963,25,o),
(966,30,o),
(965,34,cs),
(944,183,ls),
(944,186,o),
(941,189,o),
(938,189,cs),
(929,189,o),
(921,186,o),
(914,185,cs),
(897,184,o),
(880,184,o),
(879,202,cs),
(878,224,o),
(876,245,o),
(875,265,cs),
(875,269,o),
(878,272,o),
(881,273,cs),
(941,286,ls),
(945,287,o),
(948,291,o),
(947,295,cs),
(943,314,o),
(929,364,o),
(926,368,cs),
(921,378,o),
(896,376,o),
(886,376,cs),
(864,377,o),
(870,398,o),
(870,416,cs),
(870,570,ls),
(870,589,o),
(912,577,o),
(927,580,cs),
(952,584,o),
(933,653,o),
(933,671,cs),
(933,690,o),
(910,689,o),
(896,689,cs),
(829,689,o),
(763,695,o),
(697,697,cs),
(633,698,o),
(569,704,o),
(505,704,cs),
(491,704,o),
(487,697,o),
(487,682,cs),
(487,584,ls),
(487,579,o),
(483,575,o),
(478,576,cs),
(434,581,o),
(280,592,o),
(240,595,cs),
(236,595,o),
(232,591,o),
(232,587,cs),
(232,401,ls),
(232,397,o),
(234,394,o),
(239,393,cs),
(284,388,ls),
(313,385,o),
(308,366,o),
(308,342,cs),
(308,327,o),
(312,321,o),
(295,321,cs),
(278,321,o),
(262,327,o),
(245,331,cs),
(218,337,o),
(223,367,o),
(222,391,cs),
(222,400,o),
(217,405,o),
(207,406,cs),
(194,407,o),
(177,405,o),
(167,404,cs),
(163,404,o),
(159,406,o),
(159,411,cs),
(153,495,ls),
(153,499,o),
(149,501,o),
(146,502,cs),
(128,503,o),
(111,503,o),
(93,506,cs),
(88,507,o),
(83,503,o),
(83,497,cs),
(84,325,o),
(69,218,o),
(77,111,cs),
(78,98,o),
(92,93,o),
(120,97,cs),
(130,98,o),
(140,94,o),
(138,79,cs),
(135,52,o),
(131,17,o),
(131,1,cs),
(131,-9,o),
(143,-17,o),
(157,-18,cs),
(203,-22,o),
(258,-19,o),
(304,-19,cs)
);
}
);
width = 1040;
}
);
},
{
glyphname = O.ss01;
lastChange = "2022-10-24 05:05:45 +0000";
layers = (
{
layerId = m01;
shapes = (
{
attr = {
strokeWidth = 20;
};
closed = 1;
nodes = (
(439,0,o),
(526,44,o),
(580,134,cs),
(626,211,o),
(651,278,o),
(651,352,cs),
(651,495,o),
(626,534,o),
(541,636,cs),
(533,645,o),
(519,662,o),
(496,676,cs),
(457,699,o),
(409,719,o),
(382,719,cs),
(351,719,o),
(291,700,o),
(253,672,cs),
(168,610,o),
(139,572,o),
(104,506,cs),
(75,452,o),
(70,374,o),
(70,348,cs),
(70,222,o),
(99,160,o),
(139,103,cs),
(168,61,o),
(226,0,o),
(354,0,cs)
);
}
);
width = 721;
}
);
},
{
glyphname = Q.ss01;
lastChange = "2022-10-21 05:09:31 +0000";
layers = (
{
layerId = m01;
shapes = (
{
attr = {
lineCapEnd = 1;
lineCapStart = 1;
strokeWidth = 20;
};
closed = 0;
nodes = (
(280,483,l),
(222,461,o),
(88,479,o),
(73,393,cs),
(58,310,o),
(113,258,o),
(149,191,cs),
(173,148,o),
(247,95,o),
(247,43,cs),
(247,-15,o),
(238,-71,o),
(293,-108,cs),
(325,-130,o),
(368,-141,o),
(403,-162,cs),
(428,-177,o),
(463,-202,o),
(492,-208,cs),
(542,-219,o),
(570,-196,o),
(588,-155,cs),
(593,-143,o),
(585,-99,o),
(575,-89,cs),
(566,-82,o),
(531,-88,o),
(521,-88,cs),
(489,-88,o),
(450,-94,o),
(418,-87,cs),
(404,-84,o),
(385,-20,o),
(405,-14,cs),
(435,-6,o),
(464,-6,o),
(494,5,cs),
(570,33,o),
(651,77,o),
(720,121,cs),
(789,164,o),
(902,228,o),
(858,325,cs),
(837,372,o),
(777,411,o),
(764,459,cs),
(759,477,o),
(702,578,o),
(690,599,cs),
(665,641,o),
(648,677,o),
(610,711,cs),
(592,727,o),
(549,718,o),
(526,718,cs),
(475,718,o),
(430,772,o),
(388,794,cs),
(329,823,o),
(272,720,o),
(251,678,cs),
(222,621,o),
(254,571,o),
(254,517,c)
);
},
{
attr = {
lineCapEnd = 1;
lineCapStart = 1;
strokeWidth = 20;
};
closed = 1;
nodes = (
(497,447,o),
(513,455,o),
(546,473,cs),
(569,486,o),
(594,453,o),
(588,431,cs),
(575,380,o),
(532,343,o),
(490,315,cs),
(454,291,o),
(373,276,o),
(393,347,cs),
(407,396,o),
(415,409,o),
(462,431,cs)
);
}
);
width = 938;
}
);
},
{
glyphname = E.ss02;
lastChange = "2022-10-21 05:34:06 +0000";
layers = (
{
layerId = m01;
shapes = (
{
attr = {
lineCapEnd = 1;
lineCapStart = 1;
strokeWidth = 20;
};
closed = 0;
nodes = (
(395,754,l),
(362,730,o),
(236,692,o),
(219,692,cs),
(202,692,o),
(186,698,o),
(184,708,cs),
(181,720,o),
(169,727,o),
(151,727,cs),
(127,727,o),
(83,712,o),
(83,684,cs),
(83,675,o),
(82,649,o),
(87,642,cs),
(101,624,o),
(104,588,o),
(98,566,cs),
(93,549,o),
(86,470,o),
(86,449,cs),
(86,414,o),
(92,385,o),
(117,360,cs),
(141,336,o),
(190,287,o),
(228,285,cs),
(260,284,o),
(291,284,o),
(322,285,cs),
(361,287,o),
(378,344,o),
(415,344,cs),
(457,344,o),
(499,341,o),
(540,351,cs),
(562,356,o),
(600,362,o),
(616,376,cs),
(635,392,o),
(655,406,o),
(675,420,cs),
(740,463,o),
(800,419,o),
(867,412,cs),
(904,409,o),
(937,391,o),
(976,391,cs),
(1000,391,o),
(1034,395,o),
(1048,416,c)
);
},
{
attr = {
lineCapEnd = 1;
lineCapStart = 1;
strokeWidth = 20;
};
closed = 0;
nodes = (
(478,630,l),
(429,630,o),
(384,622,o),
(369,571,cs),
(360,538,o),
(323,512,o),
(290,511,cs),
(252,509,o),
(209,507,o),
(171,500,cs),
(148,496,o),
(97,478,o),
(75,471,cs)
);
},
{
attr = {
lineCapEnd = 1;
lineCapStart = 1;
strokeWidth = 20;
};
closed = 0;
nodes = (
(311,278,l),
(364,278,o),
(370,285,o),
(402,249,cs),
(431,218,o),
(452,191,o),
(497,179,cs),
(532,170,o),
(559,229,o),
(587,245,cs),
(624,265,o),
(667,271,o),
(709,271,cs),
(758,271,o),
(814,276,o),
(860,256,cs),
(886,244,o),
(914,246,o),
(943,246,cs),
(996,246,o),
(1057,253,o),
(1088,300,c)
);
},
{
attr = {
lineCapEnd = 1;
lineCapStart = 1;
strokeWidth = 20;
};
closed = 0;
nodes = (
(468,173,l),
(519,135,o),
(585,115,o),
(647,104,cs),
(678,98,o),
(709,91,o),
(741,87,cs),
(792,80,o),
(858,71,o),
(908,89,cs),
(964,108,o),
(1011,136,o),
(1061,147,cs),
(1113,159,o),
(1210,235,o),
(1215,246,c)
);
},
{
attr = {
lineCapEnd = 1;
lineCapStart = 1;
strokeWidth = 20;
};
closed = 0;
nodes = (
(126,311,l),
(115,300,o),
(97,291,o),
(97,275,cs),
(97,240,o),
(125,158,o),
(188,158,cs),
(214,158,o),
(294,155,o),
(308,155,cs),
(322,155,o),
(329,167,o),
(340,173,c)
);
},
{
attr = {
lineCapEnd = 1;
lineCapStart = 1;
strokeWidth = 20;
};
closed = 0;
nodes = (
(181,147,l),
(188,113,o),
(198,81,o),
(235,72,cs),
(283,61,o),
(427,57,o),
(451,57,cs),
(474,57,o),
(489,20,o),
(511,35,c)
);
}
);
width = 1250;
}
);
},
{
glyphname = a;
lastChange = "2022-06-25 05:24:07 +0000";
layers = (
{
backgroundImage = {
imagePath = "../../../Screenshots/Screen Shot 2022-06-25 at 3.17.52 pm.png";
locked = 1;
pos = (1,-155);
scale = (3.1592,3.1592);
};
layerId = m01;
shapes = (
{
closed = 1;
nodes = (
(316,508,l),
(406,423,o),
(496,377,o),
(572,339,cs),
(647,302,o),
(697,276,o),
(733,229,c),
(677,141,l),
(631,168,o),
(582,194,o),
(525,194,cs),
(430,194,o),
(331,-9,o),
(259,-9,cs),
(236,-9,o),
(215,10,o),
(215,129,cs),
(215,156,o),
(202,165,o),
(184,170,cs),
(83,193,l),
(82,222,l),
(186,248,l),
(189,310,l),
(236,311,l),
(288,283,l),
(318,244,l),
(490,245,l),
(490,296,l),
(406,363,l),
(268,446,l),
(117,402,l),
(121,475,l)
);
},
{
closed = 1;
nodes = (
(95,376,l),
(266,424,l),
(394,347,l),
(470,286,l),
(470,265,l),
(328,264,l),
(302,299,l),
(240,331,l),
(169,330,l),
(166,264,l),
(60,238,l),
(65,177,l),
(180,150,ls),
(193,147,o),
(195,145,o),
(195,129,cs),
(195,-1,o),
(226,-29,o),
(259,-29,cs),
(343,-29,o),
(442,174,o),
(525,174,cs),
(584,174,o),
(632,144,o),
(683,113,c),
(757,229,l),
(717,288,o),
(661,318,o),
(580,357,cs),
(502,395,o),
(412,441,o),
(322,530,c),
(101,493,l)
);
},
{
closed = 1;
nodes = (
(331,173,l),
(286,135,l),
(287,170,ls),
(287,173,o),
(287,173,o),
(292,173,cs)
);
},
{
closed = 1;
nodes = (
(276,193,o),
(267,184,o),
(267,170,cs),
(266,135,ls),
(266,114,o),
(285,106,o),
(299,120,c),
(345,159,ls),
(359,170,o),
(355,193,o),
(331,193,cs),
(292,193,ls)
);
}
);
width = 787;
}
);
unicode = 97;
},
{
glyphname = b;
lastChange = "2022-06-25 05:38:56 +0000";
layers = (
{
backgroundImage = {
imagePath = "../../../Screenshots/Screen Shot 2022-06-25 at 3.24.33 pm.png";
locked = 1;
pos = (-102,-106);
scale = (2.4866,2.4187);
};
layerId = m01;
shapes = (
{
closed = 1;
nodes = (
(65,772,o),
(78,732,o),
(78,703,cs),
(78,674,o),
(59,618,o),
(59,575,cs),
(59,532,o),
(98,432,o),
(98,406,cs),
(98,392,o),
(89,395,o),
(89,345,cs),
(89,306,o),
(150,200,o),
(150,168,cs),
(150,135,o),
(133,80,o),
(133,52,cs),
(133,18,o),
(181,2,o),
(208,2,cs),
(232,2,o),
(330,4,o),
(388,4,cs),
(448,4,o),
(495,21,o),
(524,21,cs),
(553,21,o),
(605,-3,o),
(652,-3,cs),
(698,-3,o),
(789,16,o),
(816,16,cs),
(851,16,o),
(861,16,o),
(861,37,cs),
(861,76,o),
(668,140,o),
(578,140,cs),
(560,140,o),
(536,145,o),
(536,156,cs),
(536,183,o),
(643,260,o),
(643,289,cs),
(643,341,o),
(480,373,o),
(438,373,cs),
(358,373,o),
(353,342,o),
(336,342,cs),
(301,342,o),
(242,377,o),
(242,416,cs),
(242,452,o),
(273,478,o),
(330,478,cs),
(353,478,o),
(362,490,o),
(362,501,cs),
(362,514,o),
(353,523,o),
(336,531,cs),
(299,549,o),
(251,583,o),
(218,609,cs),
(200,623,o),
(187,650,o),
(188,686,cs),
(188,702,o),
(196,731,o),
(204,747,cs),
(216,770,o),
(192,785,o),
(172,785,cs),
(159,785,o),
(97,774,o),
(60,768,c),
(64,748,l),
(101,754,o),
(161,765,o),
(172,765,cs),
(182,765,o),
(189,762,o),
(186,755,cs),
(178,739,o),
(168,704,o),
(168,686,cs),
(167,645,o),
(184,611,o),
(206,593,cs),
(239,567,o),
(289,531,o),
(328,513,cs),
(340,508,o),
(342,505,o),
(342,501,cs),
(342,499,o),
(341,498,o),
(330,498,cs),
(265,498,o),
(222,464,o),
(222,416,cs),
(222,363,o),
(295,322,o),
(336,322,cs),
(367,322,o),
(376,353,o),
(438,353,cs),
(479,353,o),
(623,322,o),
(623,289,cs),
(623,272,o),
(516,193,o),
(516,156,cs),
(516,130,o),
(551,120,o),
(578,120,cs),
(664,120,o),
(841,58,o),
(841,37,cs),
(841,38,o),
(846,36,o),
(816,36,cs),
(787,36,o),
(696,17,o),
(652,17,cs),
(609,17,o),
(557,41,o),
(524,41,cs),
(491,41,o),
(444,24,o),
(388,24,cs),
(330,24,o),
(232,22,o),
(208,22,cs),
(186,22,o),
(153,33,o),
(153,52,cs),
(153,76,o),
(170,131,o),
(170,168,cs),
(170,206,o),
(109,312,o),
(109,345,cs),
(109,377,o),
(118,374,o),
(118,406,cs),
(118,436,o),
(79,536,o),
(79,575,cs),
(79,614,o),
(98,670,o),
(98,703,cs),
(98,736,o),
(83,780,o),
(73,800,c),
(55,792,l)
);
},
{
closed = 1;
nodes = (
(309,238,o),
(324,246,o),
(341,246,cs),
(361,246,o),
(368,232,o),
(368,174,cs),
(368,158,o),
(365,153,o),
(357,151,cs),
(344,148,o),
(314,140,o),
(300,140,cs),
(289,140,o),
(279,145,o),
(273,153,cs),
(262,165,o),
(246,191,o),
(246,211,cs),
(246,229,o),
(255,235,o),
(275,236,cs)
);
},
{
closed = 1;
nodes = (
(247,255,o),
(226,240,o),
(226,211,cs),
(226,185,o),
(246,153,o),
(257,139,c),
(267,129,o),
(284,120,o),
(300,120,cs),
(316,120,o),
(348,128,o),
(361,131,cs),
(380,136,o),
(388,153,o),
(388,174,cs),
(388,239,o),
(374,266,o),
(341,266,cs),
(320,266,o),
(303,258,o),
(273,256,cs)
);
}
);
width = 881;
}
);
unicode = 98;
},
{
glyphname = c;
lastChange = "2022-06-25 06:01:43 +0000";
layers = (
{
backgroundImage = {
imagePath = "../../../Screenshots/Screen Shot 2022-06-25 at 3.55.53 pm.png";
locked = 1;
pos = (-62,-79);
scale = (2.1944,2.1944);
};
layerId = m01;
shapes = (
{
closed = 1;
nodes = (
(297,-4,ls),
(328,-4,o),
(432,38,o),
(455,58,cs),
(471,72,o),
(478,91,o),
(478,106,cs),
(478,149,o),
(495,154,o),
(495,197,cs),
(495,224,o),
(483,238,o),
(462,238,cs),
(419,238,o),
(366,210,o),
(348,171,cs),
(342,159,o),
(331,151,o),
(317,151,cs),
(306,151,o),
(299,160,o),
(299,175,cs),
(299,196,o),
(335,308,o),
(335,319,cs),
(335,329,o),
(340,333,o),
(352,327,cs),
(411,298,ls),
(430,289,o),
(448,289,o),
(461,294,cs),
(578,335,ls),
(596,341,o),
(609,357,o),
(609,378,cs),
(609,432,ls),
(609,464,o),
(565,489,o),
(490,489,cs),
(420,489,o),
(379,518,o),
(339,518,cs),
(312,518,o),
(285,496,o),
(251,496,cs),
(144,496,ls),
(114,496,o),
(85,473,o),
(85,452,cs),
(85,436,o),
(102,430,o),
(112,420,cs),
(120,411,o),
(134,405,o),
(152,407,cs),
(218,414,ls),
(236,416,o),
(250,408,o),
(250,390,cs),
(250,375,o),
(249,371,o),
(238,362,cs),
(202,331,ls),
(188,319,o),
(181,301,o),
(181,281,cs),
(181,255,o),
(199,245,o),
(199,227,cs),
(199,219,o),
(198,216,o),
(189,210,cs),
(179,202,o),
(115,167,o),
(93,163,cs),
(67,158,o),
(49,146,o),
(38,125,c),
(153,-4,l)
);
},
{
closed = 1;
nodes = (
(63,127,l),
(71,135,o),
(81,140,o),
(97,143,cs),
(123,149,o),
(189,186,o),
(201,194,cs),
(215,204,o),
(219,214,o),
(219,227,cs),
(219,257,o),
(201,267,o),
(201,281,cs),
(201,297,o),
(205,307,o),
(216,317,cs),
(250,346,ls),
(266,359,o),
(270,371,o),
(270,390,cs),
(270,420,o),
(242,436,o),
(216,434,cs),
(150,427,ls),
(138,425,o),
(132,428,o),
(126,434,cs),
(117,443,o),
(105,449,o),
(105,452,cs),
(105,461,o),
(122,476,o),
(144,476,cs),
(251,476,ls),
(291,476,o),
(319,498,o),
(339,498,cs),
(373,498,o),
(414,469,o),
(490,469,cs),
(557,469,o),
(589,450,o),
(589,432,cs),
(589,378,ls),
(589,365,o),
(583,357,o),
(572,353,cs),
(455,312,ls),
(445,309,o),
(434,309,o),
(419,316,cs),
(360,345,ls),
(335,358,o),
(315,339,o),
(315,319,cs),
(315,312,o),
(279,199,o),
(279,175,cs),
(279,151,o),
(295,131,o),
(317,131,cs),
(338,131,o),
(358,145,o),
(366,163,cs),
(381,195,o),
(424,218,o),
(462,218,cs),
(473,218,o),
(475,215,o),
(475,197,cs),
(475,166,o),
(458,165,o),
(458,106,cs),
(458,95,o),
(454,84,o),
(441,74,c),
(422,56,o),
(324,16,o),
(297,16,cs),
(161,16,l)
);
}
);
width = 620;
}
);
unicode = 99;
},
{
glyphname = d;
lastChange = "2022-07-25 08:05:46 +0000";
layers = (
{
backgroundImage = {
imagePath = "../../../Screenshots/Screen Shot 2022-07-25 at 6.01.00 pm.png";
locked = 1;
pos = (-77,-85);
scale = (1.9733,1.9733);
};
layerId = m01;
shapes = (
{
closed = 1;
nodes = (
(434,-4,o),
(465,5,o),
(477,18,cs),
(492,34,o),
(506,45,o),
(514,45,cs),
(530,45,o),
(551,60,o),
(564,81,cs),
(568,88,o),
(580,101,o),
(595,108,cs),
(626,123,o),
(645,187,o),
(645,210,cs),
(645,236,o),
(587,296,o),
(562,318,cs),
(518,359,o),
(467,410,o),
(411,466,cs),
(330,548,o),
(240,638,o),
(153,714,cs),
(144,721,o),
(134,728,o),
(126,734,cs),
(117,740,o),
(109,745,o),
(105,749,cs),
(96,758,o),
(96,759,o),
(103,768,cs),
(131,801,ls),
(132,802,o),
(133,805,o),
(133,807,cs),
(133,813,o),
(129,817,o),
(123,817,cs),
(120,817,o),
(117,816,o),
(115,813,cs),
(87,780,ls),
(73,764,o),
(77,749,o),
(91,735,cs),
(97,729,o),
(105,723,o),
(114,717,cs),
(123,711,o),
(132,705,o),
(139,698,cs),
(226,624,o),
(316,534,o),
(397,452,cs),
(452,396,o),
(504,344,o),
(548,304,cs),
(573,281,o),
(625,226,o),
(625,210,cs),
(625,190,o),
(609,137,o),
(587,126,cs),
(568,117,o),
(552,100,o),
(546,91,cs),
(537,75,o),
(523,65,o),
(514,65,cs),
(498,65,o),
(478,49,o),
(463,32,cs),
(455,23,o),
(431,16,o),
(372,16,cs),
(343,16,o),
(242,48,o),
(217,58,cs),
(190,69,o),
(157,76,o),
(131,82,cs),
(112,86,o),
(86,109,o),
(86,121,cs),
(86,175,ls),
(86,194,o),
(118,258,o),
(142,286,cs),
(187,338,o),
(275,437,o),
(351,500,cs),
(354,502,o),
(355,505,o),
(355,508,cs),
(355,514,o),
(351,518,o),
(345,518,cs),
(343,518,o),
(340,517,o),
(339,516,cs),
(261,451,o),
(171,352,o),
(126,298,cs),
(101,269,o),
(66,199,o),
(66,175,cs),
(66,121,ls),
(66,99,o),
(101,68,o),
(127,62,cs),
(153,56,o),
(184,49,o),
(209,40,cs),
(236,30,o),
(339,-4,o),
(372,-4,cs)
);
},
{
closed = 1;
nodes = (
(476,141,ls),
(497,151,o),
(499,172,o),
(482,188,cs),
(462,209,o),
(417,236,o),
(389,236,cs),
(355,236,o),
(289,206,o),
(289,164,cs),
(289,140,o),
(312,120,o),
(381,95,c)
);
},
{
closed = 1;
nodes = (
(322,138,o),
(309,151,o),
(309,164,cs),
(309,192,o),
(359,216,o),
(389,216,cs),
(411,216,o),
(450,193,o),
(468,174,cs),
(477,165,o),
(477,163,o),
(468,159,cs),
(379,117,l)
);
}
);
width = 700;
}
);
unicode = 100;
},
{
glyphname = e;
lastChange = "2022-07-25 08:11:25 +0000";
layers = (
{
backgroundImage = {
imagePath = "../../../Screenshots/Screen Shot 2022-07-25 at 6.06.46 pm.png";
locked = 1;
pos = (0,-75);
scale = (2.6616,2.6616);
};
layerId = m01;
shapes = (
{
closed = 1;
nodes = (
(179,236,o),
(192,240,o),
(204,256,cs),
(219,275,o),
(245,302,o),
(291,302,cs),
(340,302,o),
(374,328,o),
(374,353,cs),
(374,374,o),
(356,388,o),
(339,388,cs),
(329,388,o),
(324,394,o),
(324,403,cs),
(324,423,o),
(313,431,o),
(301,431,cs),
(292,431,o),
(282,426,o),
(273,421,cs),
(263,416,o),
(255,412,o),
(247,412,cs),
(216,412,ls),
(189,412,o),
(170,391,o),
(170,369,cs),
(170,334,ls),
(170,327,o),
(166,318,o),
(162,318,cs),
(145,318,o),
(131,304,o),
(131,285,cs),
(131,272,ls),
(131,249,o),
(148,236,o),
(167,236,cs)
);
},
{
closed = 1;
nodes = (
(156,256,o),
(151,260,o),
(151,272,cs),
(151,285,ls),
(151,295,o),
(154,298,o),
(162,298,cs),
(178,298,o),
(190,319,o),
(190,334,cs),
(190,369,ls),
(190,381,o),
(199,392,o),
(216,392,cs),
(247,392,ls),
(260,392,o),
(273,399,o),
(283,404,cs),
(291,408,o),
(297,411,o),
(301,411,cs),
(304,411,o),
(304,411,o),
(304,403,cs),
(304,385,o),
(318,368,o),
(339,368,cs),
(348,368,o),
(354,363,o),
(354,353,cs),
(354,340,o),
(332,322,o),
(291,322,cs),
(237,322,o),
(204,289,o),
(188,268,cs),
(180,258,o),
(175,256,o),
(167,256,cs)
);
},
{
closed = 1;
nodes = (
(227,476,o),
(235,486,o),
(246,486,cs),
(346,483,ls),
(368,482,o),
(434,437,o),
(432,401,cs),
(428,328,ls),
(426,295,o),
(392,261,o),
(261,202,cs),
(233,190,o),
(220,185,o),
(208,184,cs),
(181,182,o),
(169,171,o),
(169,152,cs),
(169,131,o),
(205,94,o),
(236,94,cs),
(314,94,l),
(310,104,o),
(329,112,o),
(354,123,cs),
(380,135,o),
(411,148,o),
(411,171,cs),
(411,187,o),
(399,196,o),
(387,202,cs),
(378,207,o),
(375,209,o),
(375,212,cs),
(375,225,o),
(377,228,o),
(397,228,cs),
(452,228,o),
(499,198,o),
(499,187,cs),
(499,60,o),
(365,16,o),
(278,16,cs),
(260,16,o),
(229,39,o),
(188,74,cs),
(152,104,o),
(138,131,o),
(135,179,cs),
(134,196,o),
(127,209,o),
(112,218,c),
(112,287,ls),
(112,356,o),
(121,381,o),
(146,398,cs),
(155,403,o),
(161,410,o),
(167,416,cs),
(182,431,o),
(194,445,o),
(228,445,cs),
(234,445,o),
(238,449,o),
(238,455,cs),
(238,461,o),
(234,465,o),
(228,465,cs),
(186,465,o),
(167,445,o),
(153,430,cs),
(147,424,o),
(142,418,o),
(136,414,cs),
(104,394,o),
(92,361,o),
(92,287,cs),
(92,206,l),
(110,198,o),
(114,193,o),
(115,177,cs),
(118,125,o),
(136,92,o),
(176,58,cs),
(217,23,o),
(253,-4,o),
(278,-4,cs),
(369,-4,o),
(519,45,o),
(519,187,cs),
(519,212,o),
(459,248,o),
(397,248,cs),
(367,248,o),
(355,234,o),
(355,212,cs),
(355,199,o),
(366,192,o),
(377,185,cs),
(386,180,o),
(391,177,o),
(391,171,cs),
(391,161,o),
(371,153,o),
(346,141,cs),
(328,134,o),
(309,125,o),
(300,114,c),
(236,114,ls),
(215,114,o),
(189,141,o),
(189,152,cs),
(189,160,o),
(191,162,o),
(210,164,cs),
(224,165,o),
(241,172,o),
(269,184,cs),
(405,245,o),
(446,285,o),
(448,326,cs),
(452,399,ls),
(454,448,o),
(376,502,o),
(346,503,cs),
(246,506,ls),
(224,506,o),
(205,483,o),
(210,455,cs),
(211,451,o),
(215,447,o),
(220,447,cs),
(226,447,o),
(231,453,o),
(230,459,cs)
);
}
);
width = 600;
}
);
unicode = 101;
},
{
glyphname = f;
lastChange = "2022-08-11 03:40:43 +0000";
layers = (
{
backgroundImage = {
imagePath = "../../../Screenshots/Screen Shot 2022-08-11 at 1.37.07 pm.png";
locked = 1;
pos = (-115,-139);
scale = (2.8202,2.8202);
};
layerId = m01;
shapes = (
{
closed = 1;
nodes = (
(240,-15,o),
(252,-5,o),
(252,11,cs),
(252,22,o),
(246,33,o),
(240,44,cs),
(229,64,o),
(215,89,o),
(215,134,cs),
(215,229,o),
(239,281,o),
(282,281,cs),
(370,281,o),
(400,313,o),
(400,375,cs),
(400,395,o),
(383,406,o),
(356,406,cs),
(346,406,o),
(337,416,o),
(326,430,cs),
(315,444,o),
(304,458,o),
(288,458,cs),
(275,458,o),
(266,445,o),
(266,429,cs),
(266,424,o),
(268,417,o),
(270,412,cs),
(272,406,o),
(274,400,o),
(274,395,cs),
(274,386,o),
(272,380,o),
(267,380,cs),
(258,380,o),
(251,389,o),
(243,400,cs),
(236,410,o),
(228,419,o),
(218,419,cs),
(205,419,o),
(193,411,o),
(194,384,cs),
(196,350,ls),
(197,338,o),
(192,330,o),
(185,330,cs),
(181,330,o),
(175,338,o),
(175,358,cs),
(175,389,o),
(182,409,o),
(190,428,cs),
(195,443,o),
(201,458,o),
(202,475,cs),
(208,549,o),
(211,557,o),
(230,557,cs),
(258,557,ls),
(281,557,o),
(302,587,o),
(302,613,cs),
(302,637,o),
(286,651,o),
(259,651,cs),
(194,651,ls),
(183,651,o),
(183,651,o),
(183,652,cs),
(183,657,o),
(198,669,o),
(233,678,cs),
(262,687,o),
(270,704,o),
(270,740,cs),
(270,777,o),
(269,810,o),
(242,810,cs),
(187,810,o),
(149,775,o),
(139,740,cs),
(136,728,o),
(134,718,o),
(128,710,cs),
(105,677,o),
(90,647,o),
(90,524,cs),
(90,491,o),
(98,470,o),
(105,452,cs),
(113,431,o),
(120,413,o),
(118,380,cs),
(104,164,ls),
(101,124,o),
(125,118,o),
(141,138,cs),
(157,158,ls),
(162,163,o),
(163,162,o),
(163,138,cs),
(163,113,o),
(170,90,o),
(176,71,cs),
(181,56,o),
(185,44,o),
(185,35,cs),
(185,11,o),
(210,-15,o),
(229,-15,cs)
);
},
{
closed = 1;
nodes = (
(220,5,o),
(205,20,o),
(205,35,cs),
(205,48,o),
(200,62,o),
(196,77,cs),
(189,96,o),
(183,117,o),
(183,138,cs),
(183,180,o),
(158,190,o),
(141,170,cs),
(125,150,ls),
(123,147,o),
(123,147,o),
(124,162,cs),
(138,378,ls),
(140,417,o),
(132,439,o),
(124,459,cs),
(117,477,o),
(110,494,o),
(110,524,cs),
(110,642,o),
(123,667,o),
(144,698,cs),
(152,710,o),
(156,722,o),
(159,734,cs),
(167,764,o),
(196,790,o),
(242,790,cs),
(251,790,o),
(250,769,o),
(250,740,cs),
(250,709,o),
(247,703,o),
(227,698,cs),
(184,686,o),
(163,667,o),
(163,652,cs),
(163,642,o),
(172,631,o),
(194,631,cs),
(259,631,ls),
(277,631,o),
(282,627,o),
(282,613,cs),
(282,594,o),
(269,577,o),
(258,577,cs),
(230,577,ls),
(198,577,o),
(188,557,o),
(182,477,cs),
(181,462,o),
(176,450,o),
(171,435,cs),
(164,416,o),
(155,392,o),
(155,358,cs),
(155,327,o),
(171,310,o),
(185,310,cs),
(203,310,o),
(217,329,o),
(216,352,cs),
(214,386,ls),
(213,399,o),
(213,399,o),
(218,399,cs),
(219,399,o),
(221,396,o),
(227,388,cs),
(235,377,o),
(248,360,o),
(267,360,cs),
(286,360,o),
(294,379,o),
(294,395,cs),
(294,404,o),
(291,412,o),
(289,418,cs),
(287,424,o),
(286,427,o),
(286,429,cs),
(286,436,o),
(287,438,o),
(288,438,cs),
(295,438,o),
(301,430,o),
(311,418,cs),
(322,404,o),
(336,386,o),
(356,386,cs),
(374,386,o),
(380,383,o),
(380,375,cs),
(380,322,o),
(359,301,o),
(282,301,cs),
(225,301,o),
(195,233,o),
(195,134,cs),
(195,84,o),
(211,54,o),
(222,34,cs),
(228,23,o),
(232,17,o),
(232,11,cs),
(232,6,o),
(231,5,o),
(229,5,cs)
);
}
);
width = 440;
}
);
unicode = 102;
},
{
glyphname = g;
lastChange = "2022-07-26 09:32:49 +0000";
layers = (
{
backgroundImage = {
imagePath = "../../../Screenshots/Screen Shot 2022-07-26 at 7.17.14 pm.png";
locked = 1;
pos = (-103,-299);
scale = (2.6539,2.6539);
};
layerId = m01;
shapes = (
{
closed = 1;
nodes = (
(340,-224,o),
(372,-208,o),
(384,-175,cs),
(390,-160,o),
(405,-144,o),
(420,-143,cs),
(451,-142,o),
(479,-106,o),
(479,-67,cs),
(479,3,ls),
(479,34,o),
(466,59,o),
(453,84,cs),
(438,111,o),
(424,138,o),
(424,176,cs),
(424,206,ls),
(424,220,o),
(429,227,o),
(436,237,cs),
(444,247,o),
(453,261,o),
(453,284,cs),
(453,303,o),
(447,317,o),
(442,328,cs),
(437,338,o),
(434,345,o),
(434,353,cs),
(434,361,o),
(439,368,o),
(447,378,cs),
(457,392,o),
(471,411,o),
(471,440,cs),
(471,482,o),
(426,519,o),
(395,521,cs),
(389,521,o),
(385,517,o),
(385,511,cs),
(385,505,o),
(389,501,o),
(395,501,cs),
(417,499,o),
(451,471,o),
(451,440,cs),
(451,418,o),
(441,404,o),
(431,390,cs),
(423,380,o),
(414,368,o),
(414,353,cs),
(414,340,o),
(419,329,o),
(423,320,cs),
(428,309,o),
(433,298,o),
(433,284,cs),
(433,267,o),
(427,259,o),
(420,248,cs),
(413,238,o),
(404,226,o),
(404,206,cs),
(404,176,ls),
(404,133,o),
(421,102,o),
(435,74,cs),
(448,50,o),
(459,29,o),
(459,3,cs),
(459,-67,ls),
(459,-98,o),
(439,-122,o),
(420,-123,cs),
(396,-124,o),
(373,-149,o),
(366,-167,cs),
(356,-193,o),
(335,-204,o),
(312,-204,cs),
(294,-204,o),
(261,-185,o),
(240,-155,cs),
(216,-120,o),
(179,-105,o),
(133,-105,cs),
(77,-105,ls),
(24,-105,o),
(1,-87,o),
(1,-75,cs),
(1,-62,o),
(15,-27,o),
(73,57,cs),
(86,76,o),
(100,85,o),
(119,90,cs),
(174,108,o),
(214,125,o),
(214,152,cs),
(214,174,o),
(197,205,o),
(172,205,cs),
(164,205,o),
(161,210,o),
(155,219,cs),
(149,229,o),
(141,240,o),
(126,240,cs),
(114,240,o),
(105,254,o),
(105,293,cs),
(105,319,o),
(112,336,o),
(120,358,cs),
(125,371,o),
(130,385,o),
(135,403,cs),
(146,449,o),
(180,500,o),
(211,500,cs),
(228,500,o),
(238,496,o),
(249,492,cs),
(258,489,o),
(268,485,o),
(281,485,cs),
(340,485,o),
(352,502,o),
(360,513,cs),
(363,518,o),
(363,518,o),
(367,518,cs),
(418,518,ls),
(424,518,o),
(428,522,o),
(428,528,cs),
(428,534,o),
(424,538,o),
(418,538,cs),
(367,538,ls),
(355,538,o),
(349,532,o),
(343,524,cs),
(336,515,o),
(329,505,o),
(281,505,cs),
(271,505,o),
(265,507,o),
(256,511,cs),
(245,515,o),
(232,520,o),
(211,520,cs),
(169,520,o),
(128,458,o),
(115,407,cs),
(111,391,o),
(106,378,o),
(101,365,cs),
(93,343,o),
(85,322,o),
(85,293,cs),
(85,246,o),
(102,220,o),
(126,220,cs),
(131,220,o),
(133,217,o),
(138,208,cs),
(144,199,o),
(152,185,o),
(172,185,cs),
(184,185,o),
(194,167,o),
(194,152,cs),
(194,139,o),
(165,126,o),
(113,110,cs),
(92,103,o),
(72,90,o),
(57,69,cs),
(-3,-18,o),
(-19,-57,o),
(-19,-75,cs),
(-19,-99,o),
(16,-125,o),
(77,-125,cs),
(133,-125,ls),
(174,-125,o),
(203,-137,o),
(224,-167,cs),
(247,-201,o),
(288,-224,o),
(312,-224,cs)
);
},
{
closed = 1;
nodes = (
(199,-63,o),
(235,-61,o),
(270,-59,cs),
(304,-57,o),
(337,-55,o),
(360,-55,cs),
(381,-55,o),
(402,-38,o),
(402,-17,cs),
(402,10,o),
(383,17,o),
(372,22,cs),
(362,26,o),
(359,27,o),
(359,33,cs),
(359,39,o),
(355,43,o),
(349,43,cs),
(343,43,o),
(339,39,o),
(339,33,cs),
(339,16,o),
(350,9,o),
(364,4,cs),
(376,-1,o),
(382,-4,o),
(382,-17,cs),
(382,-27,o),
(373,-35,o),
(360,-35,cs),
(336,-35,o),
(303,-37,o),
(269,-39,cs),
(234,-41,o),
(198,-43,o),
(172,-43,cs),
(151,-43,o),
(137,-32,o),
(137,-21,cs),
(137,-6,o),
(153,7,o),
(177,7,cs),
(219,7,ls),
(241,7,o),
(255,13,o),
(268,19,cs),
(287,26,o),
(307,35,o),
(357,35,cs),
(363,35,o),
(367,39,o),
(367,45,cs),
(367,51,o),
(363,55,o),
(357,55,cs),
(303,55,o),
(279,45,o),
(261,37,cs),
(247,31,o),
(237,27,o),
(219,27,cs),
(177,27,ls),
(146,27,o),
(117,6,o),
(117,-21,cs),
(117,-44,o),
(144,-63,o),
(172,-63,cs)
);
},
{
closed = 1;
nodes = (
(323,291,o),
(340,329,o),
(321,384,cs),
(320,388,o),
(316,391,o),
(312,391,cs),
(303,391,o),
(301,383,o),
(303,378,cs),
(317,333,o),
(309,311,o),
(273,311,cs),
(245,311,o),
(208,359,o),
(208,385,cs),
(208,398,o),
(225,412,o),
(245,412,cs),
(265,412,o),
(282,403,o),
(304,387,cs),
(306,386,o),
(308,385,o),
(310,385,cs),
(316,385,o),
(320,389,o),
(320,395,cs),
(320,398,o),
(318,401,o),
(316,403,cs),
(292,421,o),
(269,432,o),
(245,432,cs),
(218,432,o),
(188,410,o),
(188,385,cs),
(188,351,o),
(233,291,o),
(273,291,cs)
);
}
);
width = 600;
}
);
unicode = 103;
},
{
glyphname = h;
lastChange = "2022-07-26 09:40:04 +0000";
layers = (
{
backgroundImage = {
angle = 180;
imagePath = "../../../Screenshots/Screen Shot 2022-07-26 at 7.33.43 pm.png";
locked = 1;
pos = (759,988);
scale = (6.6556,6.6556);
};
layerId = m01;
shapes = (
{
closed = 1;
nodes = (
(461,-52,o),
(468,-49,o),
(473,-46,cs),
(478,-43,o),
(480,-42,o),
(483,-42,cs),
(490,-42,o),
(496,-43,o),
(502,-45,cs),
(507,-46,o),
(513,-48,o),
(519,-48,cs),
(534,-48,o),
(544,-38,o),
(544,-20,cs),
(544,-8,o),
(534,8,o),
(524,25,cs),
(510,50,o),
(493,79,o),
(493,105,cs),
(493,130,o),
(508,147,o),
(519,147,cs),
(539,147,o),
(551,159,o),
(551,180,cs),
(551,204,o),
(530,219,o),
(511,219,cs),
(497,219,o),
(496,227,o),
(509,227,cs),
(547,227,o),
(547,272,o),
(507,272,cs),
(495,272,o),
(491,277,o),
(491,294,cs),
(491,328,o),
(471,355,o),
(434,371,cs),
(417,378,o),
(413,384,o),
(407,400,cs),
(397,430,o),
(373,447,o),
(346,453,cs),
(314,460,o),
(270,542,o),
(263,581,cs),
(256,622,o),
(230,674,o),
(200,674,cs),
(193,674,o),
(192,675,o),
(192,682,cs),
(192,685,o),
(193,687,o),
(196,692,cs),
(200,699,o),
(205,709,o),
(205,724,cs),
(205,753,o),
(186,763,o),
(155,763,cs),
(122,763,o),
(114,776,o),
(105,789,cs),
(98,800,o),
(91,809,o),
(77,809,cs),
(58,809,o),
(43,786,o),
(43,760,cs),
(43,735,o),
(58,716,o),
(74,697,cs),
(100,667,o),
(130,630,o),
(130,548,cs),
(130,524,o),
(126,510,o),
(123,499,cs),
(122,494,o),
(120,489,o),
(120,485,cs),
(118,466,o),
(133,450,o),
(147,453,cs),
(174,459,o),
(180,451,o),
(180,447,cs),
(180,443,o),
(176,440,o),
(171,434,cs),
(165,428,o),
(159,422,o),
(159,414,cs),
(159,399,o),
(172,388,o),
(207,394,cs),
(240,400,o),
(284,363,o),
(284,333,cs),
(284,310,o),
(274,297,o),
(264,283,cs),
(255,271,o),
(245,257,o),
(245,239,cs),
(245,229,o),
(249,221,o),
(253,215,cs),
(258,207,o),
(262,200,o),
(262,185,cs),
(262,158,o),
(255,143,o),
(230,143,cs),
(203,143,o),
(196,133,o),
(196,121,cs),
(196,109,o),
(208,99,o),
(221,95,cs),
(237,91,o),
(249,78,o),
(249,65,cs),
(249,63,o),
(247,59,o),
(245,52,c),
(241,45,o),
(237,34,o),
(237,25,cs),
(237,7,o),
(257,-4,o),
(275,18,cs),
(280,25,o),
(289,29,o),
(304,29,cs),
(328,29,o),
(337,39,o),
(337,55,cs),
(337,66,o),
(331,78,o),
(325,89,cs),
(316,105,o),
(307,122,o),
(307,144,cs),
(307,158,o),
(315,171,o),
(324,186,cs),
(333,201,o),
(343,218,o),
(343,238,cs),
(343,299,ls),
(343,326,o),
(350,335,o),
(357,335,cs),
(398,335,o),
(441,275,o),
(441,24,cs),
(441,4,o),
(437,-3,o),
(433,-10,cs),
(430,-15,o),
(428,-21,o),
(428,-27,cs),
(428,-41,o),
(438,-52,o),
(455,-52,cs)
);
},
{
closed = 1;
nodes = (
(448,-32,o),
(448,-32,o),
(448,-27,cs),
(448,-25,o),
(449,-24,o),
(451,-19,c),
(455,-13,o),
(461,-1,o),
(461,24,cs),
(461,284,o),
(411,355,o),
(357,355,cs),
(338,355,o),
(323,335,o),
(323,299,cs),
(323,238,ls),
(323,224,o),
(315,211,o),
(306,196,cs),
(297,181,o),
(287,164,o),
(287,144,cs),
(287,117,o),
(298,96,o),
(307,80,cs),
(313,69,o),
(317,61,o),
(317,55,cs),
(317,49,o),
(317,49,o),
(304,49,cs),
(283,49,o),
(266,40,o),
(256,26,c),
(257,25,l),
(257,30,o),
(260,37,o),
(263,45,cs),
(266,52,o),
(269,60,o),
(269,65,cs),
(269,87,o),
(248,109,o),
(227,115,c),
(220,116,o),
(216,119,o),
(216,121,cs),
(216,123,o),
(216,123,o),
(230,123,cs),
(268,123,o),
(282,153,o),
(282,185,cs),
(282,206,o),
(275,217,o),
(270,226,cs),
(267,232,o),
(265,234,o),
(265,239,cs),
(265,251,o),
(271,259,o),
(280,271,cs),
(290,285,o),
(304,303,o),
(304,333,cs),
(304,374,o),
(247,422,o),
(203,414,cs),
(181,410,o),
(179,411,o),
(179,414,c),
(179,414,o),
(180,415,o),
(185,420,cs),
(192,427,o),
(200,436,o),
(200,447,cs),
(200,459,o),
(186,482,o),
(143,473,c),
(141,472,o),
(139,476,o),
(140,483,cs),
(140,486,o),
(141,489,o),
(142,493,cs),
(145,504,o),
(150,521,o),
(150,548,cs),
(150,637,o),
(115,679,o),
(90,710,cs),
(74,729,o),
(63,742,o),
(63,760,cs),
(63,777,o),
(69,789,o),
(77,789,cs),
(81,789,o),
(83,787,o),
(88,778,cs),
(97,765,o),
(111,743,o),
(155,743,cs),
(179,743,o),
(185,740,o),
(185,724,cs),
(185,714,o),
(182,708,o),
(178,701,cs),
(175,695,o),
(172,688,o),
(172,682,cs),
(172,666,o),
(183,654,o),
(200,654,cs),
(216,654,o),
(236,616,o),
(243,577,cs),
(251,535,o),
(299,442,o),
(342,433,cs),
(364,429,o),
(381,417,o),
(389,394,cs),
(395,374,o),
(404,362,o),
(426,353,cs),
(458,339,o),
(471,321,o),
(471,294,cs),
(471,269,o),
(484,252,o),
(507,252,cs),
(524,252,o),
(524,247,o),
(509,247,cs),
(471,247,o),
(475,199,o),
(511,199,cs),
(523,199,o),
(531,193,o),
(531,180,cs),
(531,168,o),
(530,167,o),
(519,167,cs),
(496,167,o),
(473,138,o),
(473,105,cs),
(473,74,o),
(492,40,o),
(507,15,cs),
(517,-2,o),
(524,-14,o),
(524,-20,cs),
(524,-28,o),
(524,-28,o),
(519,-28,cs),
(515,-28,o),
(512,-27,o),
(507,-26,cs),
(501,-24,o),
(493,-22,o),
(483,-22,cs),
(476,-22,o),
(469,-25,o),
(463,-28,cs),
(459,-31,o),
(457,-32,o),
(455,-32,cs)
);
}
);
width = 600;
}
);
unicode = 104;
},
{
glyphname = i;
lastChange = "2022-08-11 03:28:17 +0000";
layers = (
{
backgroundImage = {
imagePath = "../../../Screenshots/Screen Shot 2022-07-26 at 7.34.20 pm.png";
locked = 1;
pos = (-83,-192);
scale = (3.1904,3.1904);
};
layerId = m01;
shapes = (
{
closed = 1;
nodes = (
(186,492,o),
(169,496,o),
(152,499,cs),
(142,502,o),
(132,504,o),
(124,504,cs),
(100,504,o),
(88,487,o),
(88,466,cs),
(88,462,o),
(87,454,o),
(86,445,cs),
(85,435,o),
(84,423,o),
(84,417,cs),
(84,412,o),
(88,403,o),
(93,391,cs),
(101,374,o),
(110,353,o),
(110,339,cs),
(110,327,o),
(107,311,o),
(104,298,cs),
(103,289,o),
(101,280,o),
(101,275,cs),
(101,264,o),
(113,206,o),
(150,128,cs),
(160,109,o),
(180,96,o),
(197,92,cs),
(263,79,o),
(287,57,o),
(292,19,cs),
(296,-4,o),
(330,-2,o),
(328,23,cs),
(323,85,o),
(312,125,o),
(305,153,cs),
(300,172,o),
(297,185,o),
(297,196,cs),
(297,221,o),
(296,261,o),
(289,289,cs),
(284,308,o),
(277,327,o),
(270,343,cs),
(262,363,o),
(256,379,o),
(256,389,cs),
(256,409,o),
(250,428,o),
(231,446,cs),
(225,452,o),
(211,495,o),
(211,503,cs),
(211,538,o),
(257,589,o),
(287,589,cs),
(305,589,o),
(332,559,o),
(332,547,cs),
(332,528,o),
(296,489,o),
(276,489,cs),
(268,489,o),
(261,491,o),
(252,493,cs),
(238,496,o),
(220,500,o),
(199,495,cs)
);
},
{
closed = 1;
nodes = (
(220,479,o),
(234,476,o),
(248,473,cs),
(257,471,o),
(266,469,o),
(276,469,cs),
(306,469,o),
(352,518,o),
(352,547,cs),
(352,568,o),
(315,609,o),
(287,609,cs),
(247,609,o),
(191,547,o),
(191,503,cs),
(191,491,o),
(207,441,o),
(217,432,cs),
(232,418,o),
(236,405,o),
(236,389,cs),
(236,375,o),
(244,356,o),
(252,336,cs),
(258,319,o),
(265,302,o),
(269,285,cs),
(276,259,o),
(277,221,o),
(277,196,cs),
(277,183,o),
(281,168,o),
(286,148,cs),
(293,120,o),
(303,81,o),
(308,21,cs),
(308,20,o),
(312,20,o),
(312,23,cs),
(305,68,o),
(274,97,o),
(201,112,cs),
(188,114,o),
(175,123,o),
(168,136,cs),
(133,212,o),
(121,266,o),
(121,275,cs),
(121,278,o),
(122,285,o),
(124,294,cs),
(127,307,o),
(130,325,o),
(130,339,cs),
(130,357,o),
(119,382,o),
(111,399,cs),
(107,409,o),
(104,416,o),
(104,417,cs),
(104,422,o),
(105,432,o),
(106,443,cs),
(107,452,o),
(108,461,o),
(108,466,cs),
(108,480,o),
(111,484,o),
(124,484,cs),
(130,484,o),
(138,482,o),
(148,480,cs),
(164,476,o),
(185,472,o),
(203,475,cs)
);
}
);
width = 432;
}
);
unicode = 105;
},
{
glyphname = j;
lastChange = "2022-08-10 10:08:52 +0000";
layers = (
{
backgroundImage = {
imagePath = "../../../Screenshots/Screen Shot 2022-07-26 at 7.34.50 pm.png";
locked = 1;
pos = (-407,-288);
scale = (3.382,3.382);
};
layerId = m01;
shapes = (
{
closed = 1;
nodes = (
(415,640,o),
(399,638,o),
(382,636,cs),
(373,635,o),
(363,634,o),
(353,632,cs),
(348,631,o),
(345,627,o),
(345,622,cs),
(345,616,o),
(351,611,o),
(357,612,cs),
(366,614,o),
(375,615,o),
(384,616,cs),
(401,619,o),
(420,621,o),
(443,630,cs),
(446,631,o),
(449,635,o),
(449,639,cs),
(449,646,o),
(442,651,o),
(435,648,cs)
);
},
{
closed = 1;
nodes = (
(54,-54,o),
(84,-40,o),
(161,-11,cs),
(176,-6,o),
(188,-2,o),
(206,-2,cs),
(257,-2,ls),
(335,-2,o),
(368,54,o),
(368,124,cs),
(368,288,o),
(374,340,o),
(383,378,cs),
(384,384,o),
(379,390,o),
(373,390,cs),
(368,390,o),
(364,387,o),
(363,382,cs),
(354,344,o),
(348,290,o),
(348,124,cs),
(348,61,o),
(322,18,o),
(257,18,cs),
(206,18,ls),
(186,18,o),
(170,14,o),
(153,7,cs),
(76,-22,o),
(44,-36,o),
(28,-48,cs),
(26,-50,o),
(24,-53,o),
(24,-56,cs),
(24,-62,o),
(28,-66,o),
(34,-66,cs),
(36,-66,o),
(38,-65,o),
(40,-64,cs)
);
}
);
width = 600;
}
);
unicode = 106;
},
{
glyphname = k;
lastChange = "2022-08-10 10:12:55 +0000";
layers = (
{
backgroundImage = {
imagePath = "../../../Screenshots/Screen Shot 2022-07-26 at 7.35.19 pm.png";
locked = 1;
pos = (-145,-177);
scale = (6.3591,6.3591);
};
layerId = m01;
shapes = (
{
closed = 1;
nodes = (
(278,-17,o),
(303,16,o),
(324,43,cs),
(341,65,o),
(353,81,o),
(357,81,cs),
(362,81,o),
(379,64,o),
(401,44,cs),
(425,21,o),
(452,-5,o),
(468,-5,cs),
(494,-5,o),
(546,50,o),
(546,67,cs),
(546,89,o),
(515,104,o),
(482,106,cs),
(472,107,o),
(466,112,o),
(466,120,cs),
(466,152,o),
(454,185,o),
(384,289,cs),
(399,266,o),
(362,292,o),
(379,277,cs),
(393,265,o),
(414,256,o),
(432,256,cs),
(498,256,o),
(529,270,o),
(568,312,cs),
(668,415,ls),
(745,494,o),
(779,568,o),
(779,650,cs),
(779,684,o),
(767,735,o),
(758,748,c),
(714,734,o),
(679,712,o),
(644,673,cs),
(638,665,o),
(632,658,o),
(626,651,cs),
(596,615,o),
(584,601,o),
(569,601,cs),
(543,601,o),
(525,589,o),
(514,576,cs),
(492,552,o),
(469,533,o),
(443,512,cs),
(414,488,o),
(382,462,o),
(350,426,cs),
(347,422,o),
(347,422,o),
(347,425,cs),
(347,471,ls),
(347,490,o),
(335,505,o),
(313,511,cs),
(277,521,o),
(245,526,o),
(218,526,cs),
(177,526,o),
(158,505,o),
(160,473,cs),
(173,287,ls),
(175,264,o),
(160,234,o),
(147,220,cs),
(133,204,o),
(113,180,o),
(96,148,cs),
(64,83,ls),
(52,60,o),
(66,34,o),
(91,18,cs),
(109,6,o),
(148,-2,o),
(173,-2,cs),
(186,-2,o),
(199,1,o),
(209,4,cs),
(218,6,o),
(224,8,o),
(228,8,cs),
(229,8,o),
(230,6,o),
(234,0,cs),
(239,-9,o),
(246,-17,o),
(256,-17,cs)
);
},
{
closed = 1;
nodes = (
(256,3,o),
(255,4,o),
(251,10,cs),
(246,19,o),
(239,28,o),
(228,28,cs),
(221,28,o),
(212,26,o),
(204,24,cs),
(194,21,o),
(183,18,o),
(173,18,cs),
(150,18,o),
(117,24,o),
(101,34,cs),
(83,47,o),
(75,61,o),
(82,75,cs),
(114,138,ls),
(129,168,o),
(149,190,o),
(163,206,cs),
(177,223,o),
(195,260,o),
(193,289,cs),
(180,475,ls),
(178,496,o),
(187,506,o),
(218,506,cs),
(243,506,o),
(273,501,o),
(307,491,cs),
(322,487,o),
(327,481,o),
(327,471,cs),
(327,425,ls),
(327,395,o),
(346,390,o),
(366,412,cs),
(396,448,o),
(427,472,o),
(456,496,cs),
(481,517,o),
(506,537,o),
(528,562,cs),
(539,573,o),
(549,581,o),
(569,581,cs),
(593,581,o),
(611,602,o),
(642,638,cs),
(647,645,o),
(653,652,o),
(660,659,cs),
(687,691,o),
(714,710,o),
(747,723,c),
(753,703,o),
(759,673,o),
(759,650,cs),
(759,573,o),
(728,505,o),
(654,429,cs),
(554,326,ls),
(517,287,o),
(493,276,o),
(432,276,cs),
(418,276,o),
(403,283,o),
(391,293,cs),
(373,308,o),
(356,295,o),
(368,277,cs),
(436,176,o),
(446,148,o),
(446,120,cs),
(446,101,o),
(463,87,o),
(480,86,cs),
(506,84,o),
(526,76,o),
(526,67,cs),
(526,60,o),
(484,15,o),
(468,15,cs),
(460,15,o),
(438,36,o),
(414,58,cs),
(391,81,o),
(370,101,o),
(357,101,cs),
(343,101,o),
(327,80,o),
(308,56,cs),
(287,29,o),
(268,3,o),
(256,3,c)
);
}
);
width = 794;
}
);
unicode = 107;
},
{
glyphname = l;
lastChange = "2022-08-10 10:15:07 +0000";
layers = (
{
backgroundImage = {
imagePath = "/var/folders/cz/f9wll2wd5s737zxnwmzwlpbw0000gn/T/TemporaryItems/NSIRD_screencaptureui_AvJk21/Screen Shot 2022-08-10 at 8.13.29 pm.png";
locked = 1;
pos = (-38,-179);
scale = (3.8174,3.8174);
};
layerId = m01;
shapes = (
{
closed = 1;
nodes = (
(306,-5,o),
(331,35,o),
(333,70,cs),
(336,114,o),
(352,155,o),
(369,173,c),
(369,279,o),
(359,336,o),
(343,367,cs),
(332,390,o),
(322,439,o),
(322,482,cs),
(322,495,o),
(319,531,o),
(316,571,cs),
(312,623,o),
(308,683,o),
(308,710,cs),
(308,743,o),
(290,759,o),
(269,759,cs),
(229,759,o),
(192,698,o),
(193,654,cs),
(201,376,ls),
(203,319,o),
(199,282,o),
(193,264,cs),
(185,245,o),
(180,210,o),
(180,171,cs),
(180,59,o),
(224,-5,o),
(269,-5,cs)
);
},
{
closed = 1;
nodes = (
(236,15,o),
(200,67,o),
(200,171,cs),
(200,208,o),
(205,239,o),
(211,258,cs),
(219,278,o),
(223,319,o),
(221,376,cs),
(213,654,ls),
(212,692,o),
(242,739,o),
(269,739,cs),
(281,739,o),
(288,733,o),
(288,710,cs),
(288,682,o),
(292,622,o),
(296,569,cs),
(299,529,o),
(302,494,o),
(302,482,cs),
(302,437,o),
(312,384,o),
(325,359,cs),
(339,330,o),
(349,279,o),
(349,180,c),
(332,157,o),
(316,115,o),
(313,72,cs),
(311,42,o),
(294,15,o),
(269,15,cs)
);
}
);
width = 600;
}
);
unicode = 108;
},
{
glyphname = m;
lastChange = "2022-08-10 10:23:03 +0000";
layers = (
{
backgroundImage = {
imagePath = "../../../Screenshots/Screen Shot 2022-08-10 at 8.15.37 pm.png";
locked = 1;
pos = (-174,-78);
scale = (3.0381,3.0381);
};
layerId = m01;
shapes = (
{
closed = 1;
nodes = (
(86,5,o),
(96,24,o),
(100,42,cs),
(103,59,o),
(109,64,o),
(124,58,cs),
(138,52,o),
(157,49,o),
(168,49,cs),
(216,49,o),
(257,102,o),
(257,213,cs),
(257,241,o),
(262,261,o),
(272,272,cs),
(283,284,o),
(286,285,o),
(301,272,cs),
(350,229,ls),
(359,222,o),
(364,215,o),
(364,207,cs),
(364,157,o),
(401,112,o),
(480,112,cs),
(486,112,o),
(490,116,o),
(490,122,cs),
(490,128,o),
(486,132,o),
(480,132,cs),
(411,132,o),
(384,166,o),
(384,207,cs),
(384,222,o),
(374,235,o),
(364,245,c),
(313,288,ls),
(291,306,o),
(274,305,o),
(258,286,cs),
(244,271,o),
(237,244,o),
(237,213,cs),
(237,110,o),
(204,69,o),
(168,69,cs),
(159,69,o),
(144,72,o),
(132,76,cs),
(105,87,o),
(85,72,o),
(80,46,cs),
(77,31,o),
(70,19,o),
(54,8,cs),
(43,0,o),
(40,2,o),
(40,16,cs),
(40,86,l),
(84,134,o),
(130,195,o),
(135,243,cs),
(137,257,o),
(147,270,o),
(159,286,cs),
(171,301,o),
(185,319,o),
(186,338,cs),
(187,368,o),
(245,405,o),
(296,405,cs),
(316,405,o),
(330,397,o),
(373,366,cs),
(381,360,o),
(384,355,o),
(383,344,cs),
(380,312,ls),
(379,304,o),
(383,282,o),
(392,269,cs),
(414,234,ls),
(430,209,o),
(451,203,o),
(473,231,cs),
(514,281,o),
(535,397,o),
(549,487,cs),
(551,498,o),
(551,498,o),
(563,486,cs),
(630,415,l),
(660,414,o),
(686,399,o),
(739,340,cs),
(753,324,o),
(771,298,o),
(774,263,cs),
(783,149,ls),
(788,95,o),
(761,70,o),
(710,70,cs),
(695,70,o),
(690,75,o),
(688,93,cs),
(675,210,ls),
(671,242,o),
(646,262,o),
(601,289,c),
(589,248,o),
(580,220,o),
(554,207,cs),
(512,184,ls),
(494,173,o),
(491,154,o),
(511,132,c),
(512,130,o),
(515,129,o),
(518,129,cs),
(524,129,o),
(528,133,o),
(528,139,cs),
(528,142,o),
(527,144,o),
(525,146,cs),
(514,159,o),
(514,162,o),
(522,166,cs),
(564,189,ls),
(590,203,o),
(602,228,o),
(613,259,c),
(641,240,o),
(653,227,o),
(655,208,cs),
(668,91,ls),
(671,64,o),
(686,50,o),
(710,50,cs),
(771,50,o),
(809,85,o),
(803,151,cs),
(794,265,ls),
(791,306,o),
(769,336,o),
(753,354,cs),
(703,410,o),
(671,430,o),
(640,435,c),
(577,500,ls),
(555,522,o),
(534,516,o),
(529,491,cs),
(515,401,o),
(496,289,o),
(457,243,cs),
(444,227,o),
(441,228,o),
(430,244,cs),
(408,279,ls),
(402,289,o),
(399,305,o),
(400,310,cs),
(403,342,ls),
(404,360,o),
(397,373,o),
(385,382,cs),
(340,415,o),
(321,425,o),
(296,425,cs),
(239,425,o),
(167,382,o),
(166,338,cs),
(166,326,o),
(156,313,o),
(144,298,cs),
(131,283,o),
(117,265,o),
(115,245,cs),
(110,201,o),
(65,142,o),
(20,94,c),
(20,16,ls),
(20,-14,o),
(43,-23,o),
(66,-8,cs)
);
}
);
width = 839;
}
);
unicode = 109;
},
{
glyphname = n;
lastChange = "2022-07-12 04:12:08 +0000";
layers = (
{
backgroundImage = {
imagePath = "../../../Screenshots/Screen Shot 2022-07-12 at 12.06.17 pm.png";
locked = 1;
pos = (40,-69);
scale = (1.9067,1.9067);
};
layerId = m01;
shapes = (
{
closed = 1;
nodes = (
(669,-56,o),
(675,-51,o),
(675,-45,cs),
(675,-40,o),
(672,-36,o),
(667,-35,cs),
(595,-21,o),
(574,-9,o),
(534,31,cs),
(500,65,o),
(483,84,o),
(483,98,cs),
(483,118,o),
(481,131,o),
(479,143,cs),
(477,155,o),
(475,166,o),
(475,183,cs),
(475,194,o),
(477,206,o),
(479,218,cs),
(481,231,o),
(483,245,o),
(483,257,cs),
(483,265,o),
(488,282,o),
(495,303,cs),
(504,331,o),
(515,365,o),
(515,391,cs),
(515,479,o),
(464,512,o),
(406,512,cs),
(395,512,o),
(384,509,o),
(375,506,cs),
(367,504,o),
(361,502,o),
(355,502,cs),
(347,502,o),
(339,499,o),
(331,496,cs),
(321,493,o),
(312,490,o),
(301,490,cs),
(266,490,ls),
(248,490,o),
(238,487,o),
(231,485,cs),
(226,484,o),
(224,483,o),
(222,484,c),
(207,488,o),
(191,479,o),
(183,469,c),
(168,455,o),
(155,443,o),
(145,433,cs),
(107,396,o),
(98,388,o),
(85,392,c),
(89,375,l),
(96,382,o),
(105,389,o),
(114,397,cs),
(137,419,o),
(164,443,o),
(178,466,c),
(169,481,l),
(157,481,o),
(137,479,o),
(119,470,c),
(108,453,o),
(91,413,o),
(91,386,cs),
(91,370,o),
(94,356,o),
(97,345,cs),
(99,335,o),
(100,328,o),
(100,321,c),
(113,307,o),
(129,294,o),
(129,277,cs),
(129,266,o),
(126,258,o),
(122,247,cs),
(117,234,o),
(110,217,o),
(111,193,c),
(127,178,o),
(137,162,o),
(137,122,cs),
(137,79,o),
(136,47,o),
(129,2,cs),
(128,-4,o),
(133,-10,o),
(139,-10,cs),
(144,-10,o),
(148,-6,o),
(149,-2,cs),
(156,45,o),
(157,79,o),
(157,122,cs),
(157,162,o),
(146,185,o),
(131,201,c),
(132,217,o),
(136,228,o),
(140,240,cs),
(145,251,o),
(149,263,o),
(149,277,cs),
(149,300,o),
(131,317,o),
(120,329,c),
(119,336,o),
(117,342,o),
(116,349,cs),
(114,360,o),
(111,372,o),
(111,386,cs),
(111,407,o),
(123,437,o),
(133,454,c),
(138,456,o),
(143,458,o),
(148,459,c),
(135,443,o),
(118,428,o),
(100,412,cs),
(87,401,o),
(74,389,o),
(65,379,c),
(98,360,o),
(114,375,o),
(158,418,cs),
(169,429,o),
(182,441,o),
(197,455,cs),
(203,462,o),
(210,466,o),
(218,464,cs),
(224,463,o),
(230,464,o),
(237,466,cs),
(243,468,o),
(251,470,o),
(266,470,cs),
(301,470,ls),
(315,470,o),
(327,474,o),
(337,478,cs),
(345,480,o),
(350,482,o),
(355,482,cs),
(364,482,o),
(373,485,o),
(381,487,cs),
(390,490,o),
(398,492,o),
(406,492,cs),
(457,492,o),
(495,467,o),
(495,391,cs),
(495,368,o),
(485,337,o),
(476,309,cs),
(469,288,o),
(463,268,o),
(463,257,cs),
(463,246,o),
(461,234,o),
(459,222,cs),
(457,209,o),
(455,195,o),
(455,183,cs),
(455,164,o),
(457,152,o),
(459,140,cs),
(461,128,o),
(463,116,o),
(463,98,cs),
(463,76,o),
(485,51,o),
(520,17,cs),
(562,-25,o),
(587,-39,o),
(663,-55,cs)
);
}
);
width = 705;
}
);
unicode = 110;
},
{
glyphname = o;
lastChange = "2022-06-25 05:54:43 +0000";
layers = (
{
backgroundImage = {
imagePath = "../../../Screenshots/Screen Shot 2022-06-25 at 3.41.15 pm.png";
locked = 1;
pos = (-150,-111);
scale = (2.0198,2.0198);
};
layerId = m01;
shapes = (
{
closed = 1;
nodes = (
(463,-20,o),
(562,197,o),
(571,265,c),
(522,291,o),
(534,429,o),
(551,463,c),
(529,485,o),
(462,508,o),
(406,508,cs),
(357,508,o),
(245,532,o),
(206,532,cs),
(149,532,o),
(45,466,o),
(45,408,cs),
(45,376,o),
(58,320,o),
(58,173,cs),
(58,130,o),
(72,104,o),
(112,74,cs),
(126,64,o),
(140,54,o),
(156,39,cs),
(187,11,o),
(281,-20,o),
(320,-20,cs)
);
},
{
closed = 1;
nodes = (
(285,0,o),
(197,29,o),
(170,53,cs),
(152,70,o),
(138,80,o),
(124,90,cs),
(88,117,o),
(78,135,o),
(78,173,cs),
(78,322,o),
(65,378,o),
(65,408,cs),
(65,453,o),
(155,512,o),
(206,512,cs),
(243,512,o),
(355,488,o),
(406,488,cs),
(451,488,o),
(501,473,o),
(527,456,c),
(513,408,o),
(507,297,o),
(549,256,c),
(532,182,o),
(442,0,o),
(320,0,cs)
);
},
{
closed = 1;
nodes = (
(138,313,o),
(126,227,o),
(126,190,cs),
(126,156,o),
(150,107,o),
(206,107,cs),
(239,107,o),
(263,78,o),
(304,78,cs),
(327,78,o),
(336,110,o),
(385,127,cs),
(415,137,o),
(449,171,o),
(449,202,cs),
(449,226,o),
(471,280,o),
(471,303,cs),
(471,329,o),
(434,392,o),
(336,392,cs),
(275,392,o),
(206,376,o),
(144,352,c),
(150,334,l),
(212,356,o),
(277,372,o),
(336,372,cs),
(422,372,o),
(451,321,o),
(451,303,cs),
(451,284,o),
(429,230,o),
(429,202,cs),
(429,180,o),
(404,154,o),
(379,145,cs),
(321,126,o),
(314,98,o),
(304,98,cs),
(272,98,o),
(248,127,o),
(206,127,cs),
(163,127,o),
(146,161,o),
(146,190,cs),
(146,225,o),
(158,307,o),
(180,355,c),
(162,363,l)
);
}
);
width = 616;
},
{
associatedMasterId = m01;
layerId = "B8928BE9-F309-40FC-913A-8BB5C027330E";
name = "25 Jun 22, 15:41";
shapes = (
{
closed = 1;
nodes = (
(428,-16,o),
(529,84,o),
(529,250,cs),
(529,416,o),
(428,516,o),
(281,516,cs),
(134,516,o),
(33,416,o),
(33,250,cs),
(33,84,o),
(134,-16,o),
(281,-16,cs)
);
},
{
closed = 1;
nodes = (
(404,250,ls),
(404,134,o),
(360,81,o),
(281,81,cs),
(202,81,o),
(158,134,o),
(158,250,cs),
(158,366,o),
(202,419,o),
(281,419,cs),
(360,419,o),
(404,394,o),
(404,278,cs)
);
}
);
width = 562;
}
);
unicode = 111;
},
{
glyphname = p;
lastChange = "2022-08-15 07:46:44 +0000";
layers = (
{
backgroundImage = {
imagePath = "../../../Screenshots/Screen Shot 2022-08-11 at 1.45.07 pm.png";
locked = 1;
pos = (-130,-320);
scale = (1.7672,1.7672);
};
layerId = m01;
shapes = (
{
closed = 1;
nodes = (
(107,-173,o),
(124,-157,o),
(146,-154,cs),
(160,-152,o),
(170,-145,o),
(173,-133,cs),
(189,-55,o),
(190,-18,o),
(190,81,cs),
(190,87,o),
(190,87,o),
(194,87,cs),
(213,87,o),
(231,87,o),
(240,91,cs),
(245,93,o),
(245,93,o),
(248,87,c),
(258,56,o),
(301,25,o),
(344,25,cs),
(396,25,o),
(471,77,o),
(502,142,cs),
(509,155,o),
(506,169,o),
(498,178,cs),
(490,189,o),
(479,207,o),
(465,230,cs),
(440,270,o),
(409,323,o),
(375,362,cs),
(352,389,o),
(342,404,o),
(341,412,cs),
(339,431,o),
(324,464,o),
(309,475,cs),
(297,485,o),
(277,511,o),
(274,517,cs),
(264,538,o),
(249,538,o),
(237,525,cs),
(224,512,o),
(198,495,o),
(177,482,cs),
(169,477,o),
(157,464,o),
(157,446,cs),
(157,413,o),
(149,382,o),
(139,345,cs),
(125,295,o),
(109,235,o),
(109,147,cs),
(109,130,o),
(100,92,o),
(93,59,cs),
(86,32,o),
(80,6,o),
(81,-3,cs),
(82,-19,o),
(59,-182,o),
(56,-197,cs),
(51,-222,o),
(75,-228,o),
(88,-206,cs)
);
},
{
closed = 1;
nodes = (
(79,-186,o),
(102,-19,o),
(101,-1,cs),
(101,5,o),
(106,27,o),
(112,54,cs),
(120,88,o),
(129,128,o),
(129,147,cs),
(129,232,o),
(145,290,o),
(158,340,cs),
(168,377,o),
(177,410,o),
(177,446,cs),
(177,456,o),
(183,462,o),
(187,466,c),
(208,479,o),
(236,496,o),
(251,511,cs),
(253,513,o),
(253,513,o),
(256,507,cs),
(261,499,o),
(283,471,o),
(297,459,cs),
(308,451,o),
(319,425,o),
(321,410,cs),
(322,397,o),
(336,377,o),
(359,350,cs),
(392,311,o),
(423,260,o),
(448,219,cs),
(461,197,o),
(473,178,o),
(482,166,cs),
(487,160,o),
(487,157,o),
(484,150,cs),
(455,91,o),
(389,45,o),
(344,45,cs),
(308,45,o),
(274,69,o),
(266,93,cs),
(260,112,o),
(247,116,o),
(232,109,cs),
(227,107,o),
(213,107,o),
(194,107,cs),
(180,107,o),
(170,100,o),
(170,81,cs),
(170,-18,o),
(169,-53,o),
(153,-129,cs),
(152,-132,o),
(151,-133,o),
(144,-134,cs),
(114,-138,o),
(91,-160,o),
(70,-196,cs),
(66,-203,o),
(76,-201,o),
(76,-201,c)
);
},
{
closed = 1;
nodes = (
(394,154,o),
(400,171,o),
(388,185,cs),
(362,212,o),
(349,244,o),
(338,271,cs),
(332,286,o),
(327,299,o),
(320,309,cs),
(314,317,o),
(309,320,o),
(303,320,cs),
(289,320,o),
(282,303,o),
(291,294,cs),
(300,285,o),
(314,266,o),
(314,253,cs),
(314,247,o),
(310,240,o),
(302,240,cs),
(293,240,o),
(284,248,o),
(284,256,cs),
(284,260,o),
(284,262,o),
(286,265,cs),
(294,281,o),
(274,294,o),
(260,280,cs),
(252,271,o),
(247,259,o),
(247,245,cs),
(247,192,o),
(346,154,o),
(377,154,cs)
);
},
{
closed = 1;
nodes = (
(376,169,o),
(377,174,o),
(377,174,c),
(350,174,o),
(267,208,o),
(267,245,cs),
(267,255,o),
(270,261,o),
(274,266,cs),
(275,267,o),
(265,267,o),
(268,273,c),
(266,268,o),
(264,262,o),
(264,256,cs),
(264,236,o),
(285,220,o),
(302,220,cs),
(319,220,o),
(334,237,o),
(334,253,cs),
(334,273,o),
(316,298,o),
(305,308,cs),
(309,304,o),
(306,300,o),
(303,300,cs),
(302,300,o),
(301,301,o),
(304,297,cs),
(309,290,o),
(314,278,o),
(320,263,cs),
(331,237,o),
(345,201,o),
(374,171,cs)
);
}
);
width = 556;
}
);
unicode = 112;
},
{
glyphname = q;
lastChange = "2022-08-10 10:28:01 +0000";
layers = (
{
backgroundImage = {
imagePath = "../../../Screenshots/Screen Shot 2022-08-10 at 8.16.32 pm.png";
locked = 1;
pos = (-47,-376);
scale = (1.5501,1.5501);
};
layerId = m01;
shapes = (
{
closed = 1;
nodes = (
(292,-179,o),
(293,-156,o),
(293,-132,cs),
(293,-100,o),
(289,-48,o),
(285,-2,cs),
(282,36,o),
(279,71,o),
(279,89,cs),
(279,99,o),
(280,116,o),
(281,135,cs),
(283,157,o),
(284,182,o),
(284,199,cs),
(284,247,o),
(314,330,o),
(331,358,cs),
(337,366,o),
(347,388,o),
(347,404,cs),
(347,454,o),
(269,503,o),
(195,503,cs),
(126,503,o),
(81,456,o),
(81,398,cs),
(81,338,o),
(116,280,o),
(187,243,cs),
(215,229,o),
(235,212,o),
(247,191,cs),
(249,188,o),
(252,186,o),
(256,186,cs),
(265,186,o),
(268,195,o),
(265,201,cs),
(251,226,o),
(225,245,o),
(197,261,cs),
(131,295,o),
(101,345,o),
(101,398,cs),
(101,447,o),
(135,483,o),
(195,483,cs),
(263,483,o),
(327,441,o),
(327,404,cs),
(327,392,o),
(319,376,o),
(315,368,cs),
(296,338,o),
(264,251,o),
(264,199,cs),
(264,182,o),
(263,158,o),
(261,136,cs),
(260,117,o),
(259,99,o),
(259,89,cs),
(259,70,o),
(262,35,o),
(265,-4,cs),
(269,-50,o),
(273,-101,o),
(273,-132,cs),
(273,-156,o),
(272,-175,o),
(270,-181,cs),
(267,-188,o),
(272,-195,o),
(279,-195,cs),
(283,-195,o),
(287,-192,o),
(288,-189,cs)
);
}
);
width = 440;
}
);
unicode = 113;
},
{
glyphname = r;
lastChange = "2022-10-21 04:59:01 +0000";
layers = (
{
backgroundImage = {
angle = -13.39275;
imagePath = "../../../Screenshots/Screen Shot 2022-08-10 at 8.16.48 pm.png";
locked = 1;
pos = (-148,-69);
scale = (3.0834,3.0834);
};
layerId = m01;
shapes = (
{
closed = 1;
nodes = (
(278,444,o),
(270,452,o),
(259,462,cs),
(245,475,o),
(227,492,o),
(206,492,cs),
(175,492,o),
(149,467,o),
(149,426,cs),
(149,395,o),
(142,373,o),
(126,360,cs),
(94,333,o),
(80,309,o),
(74,289,cs),
(69,268,o),
(60,223,o),
(60,156,cs),
(60,114,o),
(84,89,o),
(109,89,cs),
(132,89,o),
(144,80,o),
(150,28,cs),
(154,3,o),
(163,-7,o),
(177,-7,cs),
(194,-7,o),
(212,24,o),
(212,67,cs),
(212,73,o),
(212,80,o),
(212,87,cs),
(211,116,o),
(210,144,o),
(217,150,cs),
(237,168,o),
(243,210,o),
(243,236,cs),
(243,267,o),
(243,303,o),
(250,318,cs),
(253,325,o),
(257,332,o),
(260,339,cs),
(270,358,o),
(279,377,o),
(282,392,cs),
(283,399,o),
(284,406,o),
(285,413,cs),
(288,427,o),
(289,438,o),
(292,442,c),
(305,467,o),
(342,499,o),
(371,499,cs),
(395,499,o),
(417,483,o),
(417,452,cs),
(417,431,o),
(389,404,o),
(368,404,cs),
(356,404,o),
(346,411,o),
(332,420,cs),
(319,428,o),
(304,438,o),
(285,442,cs)
);
},
{
closed = 1;
nodes = (
(296,419,o),
(309,411,o),
(321,403,cs),
(335,394,o),
(350,384,o),
(368,384,cs),
(399,384,o),
(437,421,o),
(437,452,cs),
(437,494,o),
(402,519,o),
(371,519,cs),
(334,519,o),
(289,480,o),
(274,452,cs),
(270,445,o),
(268,430,o),
(266,416,cs),
(265,409,o),
(263,402,o),
(262,396,cs),
(260,383,o),
(252,367,o),
(242,347,cs),
(239,341,o),
(235,334,o),
(232,326,cs),
(223,307,o),
(223,267,o),
(223,236,cs),
(223,212,o),
(218,178,o),
(203,164,cs),
(190,152,o),
(191,116,o),
(192,87,cs),
(192,80,o),
(192,73,o),
(192,67,cs),
(192,32,o),
(180,13,o),
(177,13,cs),
(174,13,o),
(173,15,o),
(170,30,cs),
(162,93,o),
(140,109,o),
(109,109,cs),
(94,109,o),
(80,123,o),
(80,156,cs),
(80,221,o),
(89,264,o),
(94,285,cs),
(98,301,o),
(110,320,o),
(138,344,cs),
(160,361,o),
(169,391,o),
(169,426,cs),
(169,458,o),
(185,472,o),
(206,472,cs),
(219,472,o),
(231,461,o),
(245,447,cs),
(256,437,o),
(268,426,o),
(281,422,cs)
);
}
);
width = 482;
}
);
unicode = 114;
},
{
glyphname = s;
lastChange = "2022-10-21 04:59:07 +0000";
layers = (
{
backgroundImage = {
imagePath = "../../../Screenshots/Screen Shot 2022-08-10 at 8.17.18 pm.png";
locked = 1;
pos = (-148,-351);
scale = (2.5514,2.5514);
};
layerId = m01;
shapes = (
{
closed = 1;
nodes = (
(256,-17,o),
(299,9,o),
(312,31,cs),
(325,49,o),
(346,69,o),
(366,87,cs),
(375,95,o),
(383,103,o),
(390,110,cs),
(402,122,o),
(408,137,o),
(408,152,cs),
(408,181,o),
(391,211,o),
(375,238,cs),
(361,263,o),
(348,285,o),
(348,303,cs),
(348,315,o),
(349,318,o),
(351,318,cs),
(358,318,o),
(371,303,o),
(379,283,cs),
(391,250,o),
(430,202,o),
(457,202,cs),
(484,202,o),
(530,257,o),
(530,285,cs),
(530,317,o),
(484,366,o),
(427,391,cs),
(371,416,o),
(336,464,o),
(336,490,cs),
(336,496,o),
(337,498,o),
(344,503,cs),
(357,514,o),
(351,531,o),
(330,531,cs),
(317,531,o),
(289,514,o),
(276,503,cs),
(267,495,o),
(261,485,o),
(261,475,cs),
(261,440,ls),
(261,427,o),
(260,424,o),
(254,421,cs),
(225,403,o),
(205,380,o),
(205,354,cs),
(205,338,o),
(215,314,o),
(230,289,cs),
(263,234,o),
(273,204,o),
(273,181,cs),
(273,163,o),
(270,153,o),
(265,146,cs),
(251,125,ls),
(245,117,o),
(242,115,o),
(239,115,cs),
(234,115,o),
(230,118,o),
(224,126,cs),
(194,168,ls),
(190,174,o),
(187,181,o),
(184,189,cs),
(182,196,o),
(179,204,o),
(174,210,cs),
(162,227,o),
(138,241,o),
(114,241,cs),
(76,241,o),
(46,218,o),
(46,191,cs),
(46,134,o),
(189,-17,o),
(233,-17,cs)
);
},
{
closed = 1;
nodes = (
(199,3,o),
(66,144,o),
(66,191,cs),
(66,206,o),
(84,221,o),
(114,221,cs),
(132,221,o),
(148,211,o),
(158,198,cs),
(161,194,o),
(163,189,o),
(165,182,cs),
(168,174,o),
(172,165,o),
(178,156,cs),
(208,114,ls),
(218,102,o),
(228,95,o),
(239,95,cs),
(248,95,o),
(258,100,o),
(267,113,cs),
(281,134,ls),
(288,145,o),
(293,159,o),
(293,181,cs),
(293,208,o),
(281,242,o),
(248,299,cs),
(233,324,o),
(225,342,o),
(225,354,cs),
(225,372,o),
(239,388,o),
(264,403,cs),
(278,412,o),
(281,424,o),
(281,440,cs),
(281,475,ls),
(281,479,o),
(283,483,o),
(288,487,cs),
(301,498,o),
(323,511,o),
(330,511,cs),
(341,511,o),
(325,514,o),
(332,519,cs),
(322,512,o),
(316,502,o),
(316,490,cs),
(316,457,o),
(357,400,o),
(419,373,cs),
(471,350,o),
(510,308,o),
(510,285,cs),
(510,266,o),
(473,222,o),
(457,222,cs),
(441,222,o),
(408,261,o),
(397,289,cs),
(388,314,o),
(368,338,o),
(351,338,cs),
(337,338,o),
(328,323,o),
(328,303,cs),
(328,280,o),
(343,253,o),
(358,228,cs),
(373,201,o),
(388,175,o),
(388,152,cs),
(388,141,o),
(385,133,o),
(376,124,cs),
(369,117,o),
(361,110,o),
(353,102,cs),
(333,83,o),
(310,62,o),
(296,41,cs),
(285,24,o),
(249,3,o),
(233,3,cs)
);
}
);
width = 590;
}
);
unicode = 115;
},
{
glyphname = germandbls;
lastChange = "2022-08-20 03:29:32 +0000";
layers = (
{
layerId = m01;
shapes = (
{
attr = {
lineCapEnd = 1;
lineCapStart = 1;
strokeHeight = 20;
strokeWidth = 20;
};
closed = 0;
nodes = (
(108,-184,l),
(108,-159,o),
(101,-82,o),
(92,-66,cs),
(80,-46,o),
(89,5,o),
(89,28,cs),
(89,87,o),
(95,151,o),
(95,212,cs),
(95,261,o),
(137,335,o),
(137,384,cs),
(137,492,o),
(173,643,o),
(221,691,cs),
(235,705,o),
(240,735,o),
(256,748,cs),
(305,787,o),
(347,800,o),
(411,800,cs),
(456,800,o),
(501,779,o),
(529,744,cs),
(559,708,o),
(543,643,o),
(527,605,cs),
(508,562,o),
(447,565,o),
(412,536,cs),
(367,500,o),
(329,474,o),
(329,412,cs),
(329,344,o),
(548,411,o),
(593,366,cs),
(621,338,o),
(610,277,o),
(597,246,cs),
(579,203,o),
(501,212,o),
(472,212,cs),
(419,212,o),
(381,187,o),
(381,130,cs),
(381,106,o),
(363,89,o),
(369,66,cs),
(376,40,o),
(373,17,o),
(363,2,cs)
);
}
);
width = 655;
}
);
unicode = 223;
},
{
glyphname = t;
lastChange = "2022-08-11 02:45:50 +0000";
layers = (
{
backgroundImage = {
imagePath = "../../../Screenshots/Screen Shot 2022-08-11 at 12.41.33 pm.png";
locked = 1;
pos = (692,-85);
scale = (-5.6098,5.6098);
};
layerId = m01;
shapes = (
{
closed = 1;
nodes = (
(201,-7,o),
(220,0,o),
(236,7,cs),
(253,14,o),
(267,20,o),
(281,20,cs),
(343,20,o),
(366,51,o),
(366,120,cs),
(366,147,o),
(354,160,o),
(344,171,cs),
(333,182,o),
(325,191,o),
(325,214,cs),
(325,221,o),
(329,226,o),
(336,235,cs),
(347,249,o),
(361,267,o),
(361,300,cs),
(361,315,o),
(354,341,o),
(354,347,cs),
(354,365,o),
(368,384,o),
(388,384,cs),
(413,384,o),
(433,388,o),
(452,391,cs),
(469,394,o),
(486,397,o),
(504,397,cs),
(509,397,o),
(517,394,o),
(526,391,cs),
(534,388,o),
(543,384,o),
(551,384,cs),
(561,384,o),
(570,392,o),
(579,402,cs),
(586,410,o),
(591,415,o),
(594,415,cs),
(615,415,o),
(632,438,o),
(632,451,cs),
(632,468,o),
(613,476,o),
(596,476,cs),
(590,476,o),
(578,477,o),
(565,478,cs),
(551,479,o),
(537,480,o),
(528,480,cs),
(515,480,o),
(510,487,o),
(503,498,cs),
(495,509,o),
(487,520,o),
(472,520,cs),
(462,520,o),
(449,516,o),
(437,513,cs),
(426,509,o),
(415,506,o),
(407,506,cs),
(393,506,o),
(381,510,o),
(370,514,cs),
(362,517,o),
(354,520,o),
(347,520,cs),
(338,520,o),
(330,517,o),
(323,514,cs),
(317,512,o),
(313,510,o),
(310,510,cs),
(303,510,o),
(289,522,o),
(289,530,cs),
(289,535,o),
(296,560,o),
(303,589,cs),
(312,623,o),
(322,661,o),
(322,672,cs),
(322,698,o),
(311,715,o),
(291,715,cs),
(272,715,o),
(253,698,o),
(240,686,cs),
(227,674,o),
(184,633,o),
(177,618,cs),
(172,608,o),
(154,594,o),
(143,594,cs),
(126,594,o),
(98,579,o),
(86,563,cs),
(77,550,o),
(57,538,o),
(46,536,cs),
(27,531,o),
(11,529,o),
(11,514,cs),
(11,505,o),
(20,498,o),
(30,491,cs),
(34,488,o),
(38,485,o),
(40,483,cs),
(53,470,o),
(67,455,o),
(87,455,cs),
(134,455,ls),
(144,455,o),
(152,448,o),
(152,440,cs),
(152,439,o),
(150,434,o),
(148,427,cs),
(143,415,o),
(137,398,o),
(137,386,cs),
(137,359,o),
(156,345,o),
(189,339,cs),
(219,335,o),
(224,329,o),
(224,317,cs),
(224,311,o),
(220,279,o),
(216,251,cs),
(214,233,o),
(212,216,o),
(211,208,cs),
(208,184,o),
(202,175,o),
(183,175,cs),
(150,175,o),
(140,156,o),
(140,138,cs),
(140,33,ls),
(140,10,o),
(162,-7,o),
(184,-7,cs)
);
},
{
closed = 1;
nodes = (
(170,13,o),
(160,22,o),
(160,33,cs),
(160,138,ls),
(160,149,o),
(163,155,o),
(183,155,cs),
(215,155,o),
(228,177,o),
(231,206,cs),
(232,214,o),
(234,230,o),
(236,248,cs),
(240,277,o),
(244,310,o),
(244,317,cs),
(244,338,o),
(230,353,o),
(193,359,cs),
(165,363,o),
(157,370,o),
(157,386,cs),
(157,395,o),
(162,408,o),
(166,420,cs),
(169,429,o),
(172,436,o),
(172,440,cs),
(172,460,o),
(152,475,o),
(134,475,cs),
(87,475,ls),
(75,475,o),
(67,484,o),
(54,497,cs),
(51,501,o),
(46,504,o),
(42,507,cs),
(34,512,o),
(31,519,o),
(31,514,cs),
(31,508,o),
(37,513,o),
(50,516,cs),
(65,520,o),
(91,535,o),
(102,551,cs),
(111,563,o),
(131,574,o),
(143,574,cs),
(161,574,o),
(188,594,o),
(195,610,cs),
(200,621,o),
(241,660,o),
(254,672,cs),
(267,684,o),
(280,695,o),
(291,695,cs),
(299,695,o),
(302,689,o),
(302,672,cs),
(302,664,o),
(293,628,o),
(284,594,cs),
(276,565,o),
(269,537,o),
(269,530,cs),
(269,511,o),
(294,490,o),
(310,490,cs),
(317,490,o),
(325,493,o),
(331,495,cs),
(337,498,o),
(342,500,o),
(347,500,cs),
(351,500,o),
(355,498,o),
(363,495,cs),
(374,491,o),
(389,486,o),
(407,486,cs),
(418,486,o),
(431,490,o),
(443,494,cs),
(455,497,o),
(465,500,o),
(472,500,cs),
(478,500,o),
(480,496,o),
(486,487,cs),
(493,476,o),
(504,460,o),
(528,460,cs),
(536,460,o),
(550,459,o),
(563,458,cs),
(576,457,o),
(589,456,o),
(596,456,cs),
(606,456,o),
(612,454,o),
(612,451,cs),
(612,446,o),
(604,435,o),
(594,435,cs),
(583,435,o),
(574,426,o),
(564,416,cs),
(557,408,o),
(553,404,o),
(551,404,cs),
(547,404,o),
(541,406,o),
(533,409,cs),
(524,413,o),
(513,417,o),
(504,417,cs),
(484,417,o),
(466,414,o),
(448,411,cs),
(430,407,o),
(411,404,o),
(388,404,cs),
(357,404,o),
(334,372,o),
(334,347,cs),
(334,332,o),
(341,319,o),
(341,300,cs),
(341,274,o),
(331,261,o),
(321,248,cs),
(313,238,o),
(305,228,o),
(305,214,cs),
(305,183,o),
(319,168,o),
(329,157,cs),
(339,146,o),
(346,139,o),
(346,120,cs),
(346,59,o),
(332,40,o),
(281,40,cs),
(264,40,o),
(245,33,o),
(229,26,cs),
(212,19,o),
(198,13,o),
(184,13,cs)
);
}
);
width = 600;
}
);
unicode = 116;
},
{
glyphname = u;
lastChange = "2022-08-18 03:55:45 +0000";
layers = (
{
backgroundImage = {
imagePath = "../../../Screenshots/Screen Shot 2022-08-18 at 1.51.14 pm.png";
locked = 1;
pos = (-122,-171);
scale = (1.4182,1.4182);
};
layerId = m01;
shapes = (
{
closed = 1;
nodes = (
(329,-8,o),
(353,3,o),
(360,30,cs),
(364,46,o),
(371,58,o),
(377,64,cs),
(387,72,o),
(392,84,o),
(392,95,cs),
(392,98,o),
(393,100,o),
(394,103,cs),
(395,107,o),
(397,112,o),
(397,116,cs),
(397,121,o),
(395,126,o),
(393,131,cs),
(390,136,o),
(388,140,o),
(388,146,cs),
(386,190,ls),
(385,205,o),
(387,218,o),
(392,225,cs),
(398,233,o),
(407,258,o),
(407,273,cs),
(407,287,o),
(412,303,o),
(422,317,cs),
(434,333,o),
(442,351,o),
(445,366,cs),
(447,374,o),
(449,383,o),
(452,392,cs),
(458,410,o),
(464,430,o),
(464,453,cs),
(464,474,o),
(453,484,o),
(438,484,cs),
(424,484,o),
(415,478,o),
(407,469,cs),
(403,465,o),
(402,464,o),
(398,464,cs),
(391,464,o),
(385,462,o),
(381,461,cs),
(377,459,o),
(373,458,o),
(367,458,cs),
(364,458,o),
(360,459,o),
(356,459,cs),
(351,460,o),
(345,461,o),
(338,461,cs),
(307,461,o),
(287,432,o),
(287,398,cs),
(287,390,o),
(285,384,o),
(283,376,cs),
(281,368,o),
(278,358,o),
(278,348,cs),
(278,338,o),
(274,329,o),
(269,316,cs),
(262,300,o),
(254,279,o),
(249,246,cs),
(248,235,o),
(246,234,o),
(244,234,cs),
(243,234,o),
(243,234,o),
(239,236,cs),
(236,238,o),
(230,242,o),
(221,243,cs),
(214,244,o),
(213,245,o),
(213,251,cs),
(213,270,o),
(222,281,o),
(232,293,cs),
(235,297,o),
(238,301,o),
(240,305,cs),
(256,330,o),
(261,343,o),
(261,370,cs),
(261,389,o),
(262,396,o),
(266,403,c),
(274,413,o),
(277,421,o),
(277,428,cs),
(277,438,o),
(271,444,o),
(264,450,cs),
(259,454,o),
(258,455,o),
(258,457,cs),
(258,458,o),
(259,461,o),
(260,465,cs),
(261,470,o),
(263,477,o),
(263,483,cs),
(263,492,o),
(258,502,o),
(240,504,cs),
(140,510,ls),
(134,510,o),
(130,506,o),
(130,500,cs),
(130,494,o),
(134,490,o),
(140,490,cs),
(238,484,ls),
(243,484,o),
(243,484,o),
(243,483,cs),
(243,479,o),
(242,475,o),
(240,470,cs),
(239,466,o),
(238,460,o),
(238,457,cs),
(238,447,o),
(244,440,o),
(251,434,cs),
(256,430,o),
(257,430,o),
(257,428,cs),
(257,425,o),
(255,422,o),
(250,413,cs),
(244,404,o),
(241,391,o),
(241,370,cs),
(241,347,o),
(238,338,o),
(224,315,c),
(222,313,o),
(219,310,o),
(216,306,cs),
(207,294,o),
(193,277,o),
(193,251,cs),
(193,236,o),
(203,225,o),
(219,223,cs),
(223,223,o),
(225,221,o),
(229,219,cs),
(234,216,o),
(239,214,o),
(244,214,cs),
(255,214,o),
(266,223,o),
(269,244,cs),
(273,274,o),
(281,293,o),
(287,308,cs),
(293,321,o),
(298,334,o),
(298,348,cs),
(298,356,o),
(300,362,o),
(302,370,cs),
(304,378,o),
(307,388,o),
(307,398,cs),
(307,425,o),
(318,441,o),
(338,441,cs),
(343,441,o),
(347,440,o),
(352,440,cs),
(357,439,o),
(362,438,o),
(367,438,cs),
(377,438,o),
(383,440,o),
(388,442,cs),
(392,443,o),
(394,444,o),
(398,444,cs),
(408,444,o),
(416,449,o),
(423,457,cs),
(428,462,o),
(430,464,o),
(438,464,cs),
(444,464,o),
(444,464,o),
(444,453,cs),
(444,433,o),
(439,416,o),
(433,398,cs),
(430,389,o),
(427,379,o),
(425,370,cs),
(422,357,o),
(416,343,o),
(406,329,cs),
(394,312,o),
(387,291,o),
(387,273,cs),
(387,262,o),
(380,243,o),
(376,237,cs),
(368,226,o),
(365,207,o),
(366,188,cs),
(368,144,ls),
(369,135,o),
(372,127,o),
(374,123,cs),
(376,119,o),
(377,117,o),
(377,116,cs),
(377,115,o),
(377,113,o),
(375,110,c),
(374,107,o),
(372,102,o),
(372,95,cs),
(372,89,o),
(370,84,o),
(363,78,cs),
(355,70,o),
(346,54,o),
(340,34,cs),
(336,18,o),
(324,12,o),
(295,12,cs),
(267,12,o),
(167,26,o),
(128,40,cs),
(121,43,o),
(121,43,o),
(121,46,cs),
(121,57,o),
(125,70,o),
(129,85,cs),
(133,99,o),
(137,114,o),
(137,126,cs),
(137,160,o),
(118,174,o),
(94,178,cs),
(75,180,o),
(70,190,o),
(70,204,cs),
(70,253,o),
(92,304,o),
(121,328,cs),
(141,345,o),
(149,372,o),
(149,421,cs),
(149,493,ls),
(149,499,o),
(145,503,o),
(139,503,cs),
(133,503,o),
(129,499,o),
(129,493,cs),
(129,421,ls),
(129,375,o),
(123,356,o),
(109,344,cs),
(75,316,o),
(50,257,o),
(50,204,cs),
(50,183,o),
(62,162,o),
(92,158,cs),
(109,156,o),
(117,149,o),
(117,126,cs),
(117,117,o),
(114,104,o),
(110,90,cs),
(106,76,o),
(101,60,o),
(101,46,cs),
(101,36,o),
(108,26,o),
(122,22,c),
(163,6,o),
(265,-8,o),
(295,-8,cs)
);
}
);
width = 524;
}
);
unicode = 117;
},
{
glyphname = v;
lastChange = "2022-08-10 10:45:37 +0000";
layers = (
{
backgroundImage = {
imagePath = "../../../Screenshots/Screen Shot 2022-08-10 at 8.34.53 pm.png";
locked = 1;
pos = (-99,-100);
scale = (2.5792,2.5792);
};
layerId = m01;
shapes = (
{
closed = 1;
nodes = (
(206,-12,o),
(212,-7,o),
(217,0,cs),
(218,2,o),
(219,3,o),
(220,4,cs),
(222,6,o),
(228,12,o),
(237,19,cs),
(246,28,o),
(258,38,o),
(263,44,cs),
(271,52,o),
(275,64,o),
(275,76,cs),
(275,90,o),
(273,107,o),
(272,115,c),
(272,115,o),
(272,115,o),
(275,115,c),
(290,109,o),
(310,108,o),
(327,108,cs),
(355,108,o),
(369,113,o),
(379,123,cs),
(385,129,o),
(390,135,o),
(394,140,cs),
(410,157,o),
(417,164,o),
(425,168,cs),
(444,179,o),
(483,216,o),
(498,280,cs),
(507,317,o),
(509,409,o),
(509,462,cs),
(509,468,o),
(505,472,o),
(499,472,cs),
(493,472,o),
(489,468,o),
(489,462,cs),
(489,409,o),
(487,319,o),
(478,284,cs),
(465,227,o),
(432,195,o),
(415,186,cs),
(404,180,o),
(395,170,o),
(380,153,cs),
(375,148,o),
(370,143,o),
(365,137,c),
(358,131,o),
(351,128,o),
(327,128,cs),
(310,128,o),
(294,129,o),
(281,133,cs),
(262,140,o),
(250,130,o),
(252,113,cs),
(253,105,o),
(255,88,o),
(255,76,cs),
(255,68,o),
(253,62,o),
(249,58,cs),
(244,52,o),
(233,43,o),
(223,34,cs),
(215,27,o),
(207,20,o),
(204,16,cs),
(203,15,o),
(202,13,o),
(201,12,cs),
(198,8,o),
(198,8,o),
(196,8,cs),
(192,8,o),
(187,14,o),
(187,22,cs),
(187,24,o),
(187,24,o),
(192,26,cs),
(203,30,o),
(209,42,o),
(209,57,cs),
(209,75,o),
(194,89,o),
(175,97,cs),
(161,103,o),
(156,110,o),
(156,152,cs),
(156,178,o),
(137,201,o),
(113,209,c),
(107,210,o),
(107,210,o),
(107,209,cs),
(107,207,o),
(107,207,o),
(114,208,cs),
(128,210,o),
(134,216,o),
(134,225,cs),
(134,235,o),
(126,240,o),
(108,243,cs),
(95,245,o),
(88,249,o),
(88,266,cs),
(88,269,o),
(90,278,o),
(93,289,cs),
(96,302,o),
(99,316,o),
(99,324,cs),
(99,328,o),
(97,334,o),
(95,339,cs),
(94,343,o),
(93,345,o),
(93,346,cs),
(93,343,o),
(93,346,o),
(96,350,cs),
(100,355,o),
(105,362,o),
(105,370,cs),
(105,377,o),
(102,385,o),
(100,391,cs),
(98,397,o),
(97,400,o),
(97,401,cs),
(97,403,o),
(93,399,o),
(96,399,cs),
(112,399,o),
(119,406,o),
(119,417,cs),
(119,423,o),
(116,429,o),
(114,433,c),
(112,435,o),
(113,431,o),
(113,432,cs),
(113,435,o),
(115,439,o),
(123,448,cs),
(125,450,o),
(127,452,o),
(129,454,c),
(132,459,o),
(135,459,o),
(132,459,cs),
(147,459,o),
(155,476,o),
(144,490,cs),
(119,519,ls),
(117,521,o),
(114,522,o),
(111,522,cs),
(105,522,o),
(101,518,o),
(101,512,cs),
(101,510,o),
(102,507,o),
(103,505,c),
(128,476,ls),
(130,474,o),
(132,479,o),
(132,479,c),
(124,479,o),
(119,474,o),
(113,467,c),
(112,465,o),
(110,464,o),
(109,462,c),
(97,449,o),
(93,439,o),
(93,432,cs),
(93,429,o),
(95,426,o),
(97,422,cs),
(98,419,o),
(99,418,o),
(99,417,cs),
(99,416,o),
(102,419,o),
(96,419,cs),
(84,419,o),
(77,412,o),
(77,401,cs),
(77,397,o),
(79,391,o),
(81,385,cs),
(83,379,o),
(85,374,o),
(85,370,cs),
(85,368,o),
(83,366,o),
(80,362,cs),
(77,357,o),
(73,351,o),
(73,346,cs),
(73,343,o),
(75,337,o),
(76,333,cs),
(78,328,o),
(79,325,o),
(79,324,cs),
(79,319,o),
(76,306,o),
(73,294,cs),
(71,283,o),
(68,271,o),
(68,266,cs),
(68,236,o),
(88,225,o),
(106,223,cs),
(114,222,o),
(114,222,o),
(114,225,cs),
(114,228,o),
(114,228,o),
(112,228,cs),
(98,226,o),
(87,220,o),
(87,209,cs),
(87,200,o),
(94,193,o),
(107,189,cs),
(124,184,o),
(136,169,o),
(136,152,cs),
(136,101,o),
(148,87,o),
(167,79,cs),
(182,73,o),
(189,66,o),
(189,57,cs),
(189,48,o),
(188,46,o),
(184,44,cs),
(171,39,o),
(167,31,o),
(167,22,cs),
(167,3,o),
(183,-12,o),
(196,-12,cs)
);
}
);
width = 600;
}
);
unicode = 118;
},
{
glyphname = w;
lastChange = "2022-08-10 10:48:34 +0000";
layers = (
{
backgroundImage = {
angle = 13.32315;
imagePath = "../../../Screenshots/Screen Shot 2022-08-10 at 8.35.31 pm.png";
locked = 1;
pos = (19,-437);
scale = (1.9402,1.9402);
};
layerId = m01;
shapes = (
{
closed = 1;
nodes = (
(283,54,o),
(328,100,o),
(328,151,cs),
(328,222,o),
(308,263,o),
(277,274,cs),
(265,279,o),
(261,282,o),
(262,285,cs),
(263,291,o),
(258,297,o),
(252,297,cs),
(247,297,o),
(243,294,o),
(242,289,cs),
(239,275,o),
(250,263,o),
(269,256,cs),
(293,247,o),
(308,217,o),
(308,151,cs),
(308,109,o),
(273,74,o),
(237,74,cs),
(194,74,o),
(133,105,o),
(83,142,cs),
(62,157,o),
(56,176,o),
(56,202,cs),
(56,246,o),
(80,269,o),
(106,295,cs),
(130,319,o),
(156,345,o),
(156,387,cs),
(156,398,o),
(153,417,o),
(149,434,cs),
(143,455,o),
(114,471,o),
(81,483,cs),
(74,486,o),
(67,481,o),
(67,474,cs),
(67,470,o),
(70,466,o),
(73,465,cs),
(105,453,o),
(126,441,o),
(129,430,cs),
(133,413,o),
(136,396,o),
(136,387,cs),
(136,353,o),
(116,333,o),
(92,309,cs),
(66,284,o),
(36,254,o),
(36,202,cs),
(36,172,o),
(45,145,o),
(71,126,cs),
(123,87,o),
(189,54,o),
(237,54,cs)
);
},
{
closed = 1;
nodes = (
(382,7,o),
(392,10,o),
(400,12,cs),
(408,14,o),
(414,15,o),
(419,15,cs),
(433,14,o),
(466,18,o),
(485,22,cs),
(516,28,o),
(534,56,o),
(531,88,cs),
(531,90,o),
(532,93,o),
(534,98,cs),
(537,103,o),
(539,110,o),
(539,115,cs),
(539,127,o),
(530,140,o),
(524,150,cs),
(518,158,o),
(513,165,o),
(512,171,cs),
(505,201,o),
(458,248,o),
(416,248,cs),
(410,248,o),
(406,244,o),
(406,238,cs),
(406,232,o),
(410,228,o),
(416,228,cs),
(449,228,o),
(487,190,o),
(492,167,cs),
(494,157,o),
(501,147,o),
(507,139,cs),
(514,128,o),
(519,121,o),
(519,115,cs),
(519,113,o),
(518,110,o),
(516,106,cs),
(513,99,o),
(510,92,o),
(511,86,cs),
(514,62,o),
(503,46,o),
(481,42,cs),
(462,38,o),
(433,34,o),
(421,35,cs),
(413,36,o),
(403,33,o),
(395,31,cs),
(387,29,o),
(379,27,o),
(372,27,cs),
(356,27,o),
(272,49,o),
(233,68,cs),
(228,71,o),
(219,67,o),
(219,59,cs),
(219,55,o),
(221,52,o),
(225,50,cs),
(266,31,o),
(354,7,o),
(372,7,cs)
);
}
);
width = 600;
}
);
unicode = 119;
},
{
glyphname = x;
lastChange = "2022-08-10 10:53:48 +0000";
layers = (
{
backgroundImage = {
imagePath = "../../../Screenshots/Screen Shot 2022-08-10 at 8.35.13 pm.png";
locked = 1;
pos = (-133,-104);
scale = (1.944,1.944);
};
layerId = m01;
shapes = (
{
closed = 1;
nodes = (
(154,279,ls),
(154,269,o),
(160,264,o),
(169,260,c),
(171,260,o),
(171,260,o),
(172,259,c),
(178,257,l),
(249,254,ls),
(258,254,o),
(264,259,o),
(268,263,cs),
(271,266,o),
(272,267,o),
(276,269,c),
(275,310,ls),
(275,309,o),
(275,309,o),
(277,310,cs),
(278,311,o),
(278,311,o),
(279,312,c),
(303,310,ls),
(315,310,o),
(329,320,o),
(329,332,cs),
(329,337,o),
(326,353,o),
(324,368,cs),
(322,376,o),
(321,385,o),
(320,392,c),
(320,578,l),
(320,578,o),
(317,577,o),
(323,575,cs),
(334,570,o),
(375,567,o),
(407,570,cs),
(410,570,o),
(410,570,o),
(410,563,cs),
(405,405,ls),
(405,386,o),
(415,379,o),
(427,379,cs),
(454,380,ls),
(458,380,o),
(458,380,o),
(458,372,cs),
(457,344,ls),
(457,340,o),
(457,340,o),
(450,340,cs),
(444,340,o),
(434,338,o),
(423,336,cs),
(405,332,o),
(386,329,o),
(380,331,cs),
(362,339,o),
(350,331,o),
(350,314,cs),
(350,238,o),
(350,185,o),
(355,143,cs),
(357,128,o),
(367,119,o),
(379,119,cs),
(400,119,ls),
(412,119,o),
(419,127,o),
(419,143,cs),
(418,192,ls),
(418,199,o),
(418,199,o),
(423,198,cs),
(463,192,ls),
(466,192,o),
(466,192,o),
(466,188,cs),
(462,85,ls),
(462,71,o),
(466,61,o),
(492,61,cs),
(516,62,o),
(522,58,o),
(521,49,cs),
(518,23,ls),
(517,15,o),
(517,15,o),
(512,15,cs),
(432,14,ls),
(428,14,o),
(428,14,o),
(428,17,cs),
(430,50,ls),
(430,65,o),
(421,74,o),
(406,73,cs),
(282,65,l),
(278,64,o),
(278,64,o),
(278,68,cs),
(277,73,o),
(277,106,o),
(277,114,cs),
(277,129,o),
(268,139,o),
(253,139,cs),
(248,139,o),
(238,140,o),
(226,141,cs),
(199,143,o),
(165,145,o),
(157,145,cs),
(148,145,o),
(138,141,o),
(130,139,cs),
(124,137,o),
(121,136,o),
(120,136,cs),
(100,139,o),
(91,125,o),
(99,99,cs),
(104,84,o),
(103,50,o),
(100,31,cs),
(97,11,o),
(105,1,o),
(125,1,cs),
(135,1,o),
(158,1,o),
(163,1,cs),
(184,1,o),
(191,13,o),
(184,32,cs),
(178,50,l),
(178,52,o),
(178,52,o),
(181,52,cs),
(202,51,ls),
(216,51,o),
(225,61,o),
(225,71,cs),
(225,86,o),
(223,118,o),
(213,135,c),
(212,188,ls),
(212,202,o),
(204,210,o),
(192,210,cs),
(123,213,ls),
(112,214,o),
(109,218,o),
(109,257,cs),
(109,273,o),
(101,283,o),
(87,283,cs),
(74,283,ls),
(68,283,o),
(68,283,o),
(68,284,cs),
(68,307,ls),
(68,327,o),
(57,333,o),
(43,332,cs),
(25,331,ls),
(16,330,o),
(18,327,o),
(18,330,c),
(23,341,o),
(24,373,o),
(24,379,cs),
(24,385,o),
(24,385,o),
(36,383,cs),
(53,380,o),
(65,390,o),
(65,403,cs),
(65,444,ls),
(65,446,o),
(70,450,o),
(77,449,cs),
(89,448,o),
(133,448,o),
(161,448,cs),
(167,448,o),
(171,452,o),
(171,458,cs),
(171,464,o),
(167,468,o),
(161,468,cs),
(133,468,o),
(89,468,o),
(79,469,cs),
(62,471,o),
(45,457,o),
(45,444,cs),
(45,403,ls),
(45,402,o),
(45,402,o),
(40,403,cs),
(15,407,o),
(4,398,o),
(4,379,cs),
(4,373,o),
(3,345,o),
(0,336,cs),
(-5,323,o),
(3,310,o),
(27,311,cs),
(45,312,ls),
(48,312,o),
(48,312,o),
(48,307,cs),
(48,284,ls),
(48,273,o),
(55,263,o),
(74,263,cs),
(87,263,ls),
(89,263,o),
(89,263,o),
(89,257,cs),
(89,209,o),
(100,194,o),
(121,193,cs),
(192,190,l),
(192,190,o),
(192,190,o),
(192,188,cs),
(193,128,l),
(203,120,o),
(205,87,o),
(205,71,c),
(205,71,o),
(205,71,o),
(202,71,cs),
(183,72,ls),
(163,74,o),
(153,60,o),
(160,44,cs),
(166,26,ls),
(167,21,o),
(167,21,o),
(163,21,cs),
(158,21,o),
(135,21,o),
(125,21,cs),
(119,21,o),
(119,21,o),
(120,27,cs),
(123,48,o),
(124,86,o),
(119,105,cs),
(115,116,o),
(115,116,o),
(118,116,cs),
(122,115,o),
(129,117,o),
(137,120,cs),
(144,123,o),
(151,125,o),
(157,125,cs),
(164,125,o),
(198,123,o),
(224,121,cs),
(236,120,o),
(247,119,o),
(253,119,cs),
(257,119,o),
(257,119,o),
(257,114,cs),
(257,106,o),
(257,71,o),
(258,66,cs),
(259,52,o),
(269,43,o),
(284,45,cs),
(408,53,ls),
(410,53,o),
(410,53,o),
(410,50,cs),
(408,17,ls),
(408,3,o),
(416,-6,o),
(432,-6,cs),
(512,-5,ls),
(525,-5,o),
(536,2,o),
(538,21,cs),
(541,47,ls),
(544,68,o),
(526,82,o),
(492,81,cs),
(482,81,o),
(482,81,o),
(482,85,cs),
(486,188,ls),
(486,201,o),
(478,210,o),
(465,212,cs),
(427,218,ls),
(409,221,o),
(398,212,o),
(398,192,cs),
(399,143,ls),
(399,136,o),
(400,139,o),
(400,139,c),
(379,139,ls),
(376,139,o),
(376,139,o),
(375,145,cs),
(370,187,o),
(370,238,o),
(370,314,cs),
(370,346,o),
(326,334,o),
(372,313,cs),
(383,308,o),
(408,313,o),
(427,316,cs),
(437,318,o),
(446,320,o),
(450,320,cs),
(468,320,o),
(477,329,o),
(477,344,cs),
(478,372,ls),
(478,390,o),
(468,400,o),
(454,400,cs),
(427,399,ls),
(425,399,o),
(425,399,o),
(425,405,cs),
(430,563,ls),
(430,581,o),
(420,591,o),
(405,590,cs),
(375,587,o),
(338,590,o),
(331,593,cs),
(313,601,o),
(300,592,o),
(300,578,cs),
(300,390,l),
(301,383,o),
(303,374,o),
(304,365,cs),
(307,349,o),
(309,335,o),
(309,332,c),
(309,332,o),
(306,330,o),
(303,330,cs),
(277,332,l),
(269,329,l),
(268,328,o),
(268,328,o),
(266,327,cs),
(260,323,o),
(255,318,o),
(255,310,cs),
(256,280,l),
(255,279,o),
(254,278,o),
(254,277,c),
(250,274,o),
(250,274,o),
(249,274,cs),
(181,277,l),
(179,278,o),
(177,279,o),
(176,279,c),
(174,280,o),
(174,280,o),
(174,279,cs),
(175,444,ls),
(175,450,o),
(171,454,o),
(165,454,cs),
(159,454,o),
(155,450,o),
(155,444,cs)
);
}
);
width = 600;
}
);
unicode = 120;
},
{
glyphname = y;
lastChange = "2022-08-16 04:54:37 +0000";
layers = (
{
backgroundImage = {
imagePath = "../../../Screenshots/Screen Shot 2022-08-10 at 8.36.01 pm.png";
locked = 1;
pos = (-205,-320);
scale = (2.3754,2.3754);
};
layerId = m01;
shapes = (
{
closed = 1;
nodes = (
(134,-216,o),
(143,-208,o),
(145,-192,cs),
(147,-154,ls),
(147,-151,o),
(147,-151,o),
(152,-151,cs),
(274,-149,ls),
(287,-149,o),
(296,-142,o),
(296,-126,cs),
(299,99,l),
(299,99,o),
(299,99,o),
(300,99,cs),
(303,99,o),
(307,99,o),
(311,98,c),
(323,98,o),
(339,97,o),
(346,100,cs),
(357,103,o),
(366,109,o),
(366,125,cs),
(365,479,ls),
(365,497,o),
(354,505,o),
(343,505,cs),
(315,506,ls),
(302,506,o),
(293,499,o),
(293,482,cs),
(293,450,ls),
(293,448,o),
(293,448,o),
(288,448,cs),
(259,449,ls),
(246,449,o),
(238,439,o),
(240,424,cs),
(242,409,o),
(245,377,o),
(245,310,cs),
(245,255,o),
(243,247,o),
(226,247,cs),
(209,247,o),
(205,251,o),
(206,265,cs),
(210,348,ls),
(211,364,o),
(205,374,o),
(189,379,cs),
(154,387,ls),
(153,387,o),
(153,387,o),
(153,388,cs),
(155,475,ls),
(155,497,o),
(147,520,o),
(120,520,cs),
(98,520,ls),
(82,520,o),
(73,510,o),
(76,497,cs),
(88,447,o),
(87,372,o),
(75,328,cs),
(70,309,o),
(79,301,o),
(93,301,cs),
(119,301,ls),
(125,301,o),
(125,301,o),
(125,299,cs),
(125,255,ls),
(125,251,o),
(125,251,o),
(119,251,cs),
(93,251,ls),
(81,251,o),
(73,245,o),
(73,230,cs),
(75,196,ls),
(75,184,o),
(82,175,o),
(99,173,cs),
(126,171,ls),
(128,171,o),
(128,171,o),
(128,169,cs),
(128,137,ls),
(128,124,o),
(135,114,o),
(152,114,cs),
(159,114,o),
(170,112,o),
(183,109,cs),
(195,107,o),
(208,104,o),
(219,103,cs),
(220,103,o),
(220,103,o),
(220,101,cs),
(220,78,o),
(223,40,o),
(225,15,cs),
(226,2,o),
(227,-7,o),
(227,-10,cs),
(227,-11,o),
(227,-11,o),
(227,-11,c),
(199,-10,ls),
(186,-10,o),
(179,-17,o),
(179,-31,cs),
(179,-64,ls),
(179,-67,o),
(179,-67,o),
(179,-67,c),
(176,-67,o),
(171,-68,o),
(166,-69,cs),
(160,-70,o),
(154,-71,o),
(150,-71,cs),
(146,-71,o),
(146,-71,o),
(146,-68,cs),
(146,-64,o),
(146,-47,o),
(147,-29,cs),
(147,-6,o),
(148,19,o),
(148,27,cs),
(148,46,o),
(138,58,o),
(117,58,cs),
(114,58,o),
(106,57,o),
(97,56,cs),
(84,54,o),
(66,51,o),
(56,51,cs),
(41,51,o),
(33,42,o),
(35,27,cs),
(38,-9,o),
(41,-77,o),
(37,-186,cs),
(37,-202,o),
(47,-211,o),
(60,-211,cs),
(73,-211,o),
(89,-213,o),
(102,-214,cs),
(110,-215,o),
(116,-216,o),
(119,-216,cs)
);
},
{
closed = 1;
nodes = (
(117,-196,o),
(112,-195,o),
(104,-195,c),
(92,-193,o),
(74,-191,o),
(60,-191,cs),
(57,-191,o),
(57,-191,o),
(57,-186,cs),
(61,-77,o),
(58,-7,o),
(55,29,cs),
(55,31,o),
(55,31,o),
(56,31,cs),
(68,31,o),
(86,34,o),
(100,36,cs),
(109,37,o),
(115,38,o),
(117,38,cs),
(127,38,o),
(128,37,o),
(128,27,cs),
(128,19,o),
(127,-6,o),
(127,-28,cs),
(126,-47,o),
(126,-63,o),
(126,-68,cs),
(126,-81,o),
(135,-91,o),
(150,-91,cs),
(155,-91,o),
(163,-90,o),
(169,-88,c),
(174,-88,o),
(178,-87,o),
(179,-87,cs),
(190,-87,o),
(199,-78,o),
(199,-64,cs),
(199,-31,ls),
(199,-30,o),
(199,-30,o),
(199,-30,c),
(227,-31,ls),
(240,-31,o),
(247,-24,o),
(247,-10,cs),
(247,-7,o),
(246,4,o),
(245,17,cs),
(243,42,o),
(240,79,o),
(240,101,cs),
(240,114,o),
(235,121,o),
(221,123,cs),
(210,124,o),
(199,126,o),
(187,129,cs),
(174,131,o),
(161,134,o),
(152,134,cs),
(148,134,o),
(148,134,o),
(148,137,cs),
(148,169,ls),
(148,181,o),
(141,189,o),
(128,191,cs),
(101,193,ls),
(95,194,o),
(95,194,o),
(95,196,cs),
(93,230,ls),
(93,231,o),
(93,231,o),
(93,231,c),
(119,231,ls),
(138,231,o),
(145,241,o),
(145,255,cs),
(145,299,ls),
(145,312,o),
(138,321,o),
(119,321,cs),
(93,321,ls),
(86,321,o),
(85,292,o),
(95,322,c),
(107,370,o),
(108,449,o),
(96,501,c),
(95,503,o),
(83,500,o),
(98,500,cs),
(120,500,ls),
(132,500,o),
(135,492,o),
(135,475,cs),
(133,388,ls),
(133,376,o),
(141,369,o),
(150,367,cs),
(185,359,ls),
(191,358,o),
(191,358,o),
(190,350,cs),
(186,267,ls),
(185,241,o),
(199,227,o),
(226,227,cs),
(260,227,o),
(265,252,o),
(265,310,cs),
(265,377,o),
(262,411,o),
(260,426,cs),
(259,434,o),
(258,429,o),
(259,429,cs),
(288,428,ls),
(306,428,o),
(313,435,o),
(313,450,cs),
(313,482,ls),
(313,486,o),
(313,486,o),
(315,486,cs),
(343,485,ls),
(345,485,o),
(345,485,o),
(345,479,cs),
(346,125,ls),
(346,120,o),
(346,120,o),
(340,118,cs),
(336,117,o),
(324,118,o),
(313,118,c),
(308,119,o),
(303,119,o),
(300,119,cs),
(287,119,o),
(279,112,o),
(279,99,cs),
(276,-126,ls),
(276,-129,o),
(276,-129,o),
(274,-129,cs),
(152,-131,ls),
(136,-131,o),
(127,-142,o),
(127,-154,cs),
(125,-190,ls),
(125,-196,o),
(125,-196,o),
(119,-196,cs)
);
}
);
width = 436;
}
);
unicode = 121;
},
{
glyphname = z;
lastChange = "2022-08-11 02:50:02 +0000";
layers = (
{
backgroundImage = {
imagePath = "../../../Screenshots/Screen Shot 2022-08-10 at 8.36.41 pm.png";
locked = 1;
pos = (-325,-248);
scale = (4.9025,4.9025);
};
layerId = m01;
shapes = (
{
closed = 1;
nodes = (
(770,30,o),
(774,34,o),
(774,40,cs),
(774,46,o),
(770,50,o),
(764,50,cs),
(699,47,o),
(612,76,o),
(577,93,cs),
(547,108,o),
(492,125,o),
(455,130,cs),
(425,134,o),
(421,138,o),
(421,151,cs),
(426,376,ls),
(427,415,o),
(398,437,o),
(366,437,cs),
(340,437,o),
(327,443,o),
(311,451,cs),
(292,460,o),
(269,472,o),
(216,472,cs),
(204,472,o),
(184,474,o),
(159,476,cs),
(119,479,o),
(67,483,o),
(15,483,cs),
(9,483,o),
(5,479,o),
(5,473,cs),
(5,467,o),
(9,463,o),
(15,463,cs),
(66,463,o),
(117,459,o),
(157,456,cs),
(182,454,o),
(203,452,o),
(216,452,cs),
(264,452,o),
(283,443,o),
(303,433,cs),
(318,425,o),
(335,417,o),
(366,417,cs),
(390,417,o),
(407,404,o),
(406,376,cs),
(401,151,ls),
(401,127,o),
(416,116,o),
(453,110,cs),
(488,105,o),
(539,90,o),
(569,75,cs),
(604,58,o),
(697,27,o),
(764,30,cs)
);
}
);
width = 779;
}
);
unicode = 122;
},
{
glyphname = a.ss01;
lastChange = "2022-10-21 04:49:21 +0000";
layers = (
{
layerId = m01;
shapes = (
{
attr = {
lineCapEnd = 1;
lineCapStart = 1;
strokeWidth = 20;
};
closed = 1;
nodes = (
(251,3,o),
(259,15,o),
(268,25,cs),
(283,41,o),
(295,37,o),
(313,37,c),
(332,40,o),
(360,75,o),
(348,90,cs),
(344,95,o),
(332,106,o),
(332,113,cs),
(331,126,o),
(337,137,o),
(345,148,cs),
(350,156,o),
(374,201,o),
(387,203,cs),
(418,207,o),
(424,225,o),
(416,256,cs),
(412,277,o),
(442,289,o),
(457,298,cs),
(491,320,o),
(505,349,o),
(522,366,cs),
(538,382,o),
(585,383,o),
(585,405,cs),
(585,425,o),
(566,436,o),
(561,455,cs),
(557,471,o),
(567,504,o),
(561,519,cs),
(550,550,o),
(518,520,o),
(517,499,cs),
(517,480,o),
(521,446,o),
(506,433,cs),
(500,427,o),
(493,428,o),
(484,431,cs),
(465,437,o),
(468,468,o),
(449,476,cs),
(434,482,o),
(416,473,o),
(409,459,cs),
(403,446,o),
(402,433,o),
(402,420,cs),
(402,413,o),
(388,371,o),
(371,368,cs),
(356,364,o),
(345,364,o),
(334,353,cs),
(326,345,o),
(316,345,o),
(306,347,cs),
(296,349,o),
(287,349,o),
(278,348,cs),
(267,346,o),
(255,336,o),
(251,328,cs),
(248,322,o),
(242,315,o),
(236,311,cs),
(223,304,o),
(220,296,o),
(230,274,cs),
(246,240,o),
(209,245,o),
(197,251,cs),
(180,260,o),
(168,268,o),
(144,272,cs),
(109,278,o),
(73,273,o),
(63,254,cs),
(56,241,o),
(66,235,o),
(78,229,cs),
(86,224,o),
(103,220,o),
(111,226,cs),
(128,238,o),
(143,235,o),
(154,223,cs),
(172,203,o),
(166,194,o),
(149,174,cs),
(129,151,o),
(128,129,o),
(138,98,cs),
(145,79,o),
(155,72,o),
(180,72,cs),
(205,72,o),
(210,51,o),
(215,32,cs),
(218,17,o),
(222,3,o),
(235,3,cs)
);
},
{
attr = {
lineCapEnd = 1;
lineCapStart = 1;
strokeWidth = 20;
};
closed = 1;
nodes = (
(229,131,o),
(222,145,o),
(232,163,cs),
(242,181,o),
(245,189,o),
(254,212,cs),
(260,227,o),
(264,238,o),
(286,238,cs),
(297,238,o),
(307,248,o),
(307,260,cs),
(307,271,o),
(306,277,o),
(304,287,cs),
(299,313,o),
(332,313,o),
(350,313,cs),
(362,313,o),
(373,312,o),
(382,321,cs),
(407,349,o),
(422,340,o),
(416,326,cs),
(407,306,o),
(397,287,o),
(386,267,cs),
(382,260,o),
(355,235,o),
(347,232,cs),
(319,218,o),
(290,192,o),
(280,164,cs),
(274,147,o),
(262,131,o),
(245,131,cs)
);
},
{
attr = {
lineCapEnd = 1;
lineCapStart = 1;
strokeWidth = 20;
};
closed = 0;
nodes = (
(580,329,l),
(563,319,o),
(553,308,o),
(571,295,cs),
(582,286,o),
(596,264,o),
(605,198,cs),
(607,186,o),
(605,173,o),
(596,167,cs),
(586,160,o),
(573,175,o),
(571,185,cs),
(568,195,o),
(541,237,o),
(507,244,cs),
(491,247,o),
(469,246,o),
(455,238,cs),
(436,227,o),
(445,188,o),
(438,167,cs),
(432,151,o),
(426,136,o),
(405,132,cs),
(394,130,o),
(384,128,o),
(381,122,cs),
(374,110,o),
(371,101,o),
(383,88,cs),
(395,76,o),
(413,52,o),
(427,23,c)
);
}
);
width = 676;
}
);
},
{
glyphname = c.ss01;
lastChange = "2022-10-21 05:01:29 +0000";
layers = (
{
layerId = m01;
shapes = (
{
attr = {
lineCapEnd = 1;
lineCapStart = 1;
strokeWidth = 20;
};
closed = 1;
nodes = (
(123,-23,o),
(137,-15,o),
(156,7,cs),
(179,33,o),
(225,31,o),
(277,26,cs),
(300,24,o),
(331,33,o),
(341,42,cs),
(349,48,o),
(361,49,o),
(374,44,cs),
(388,39,o),
(402,39,o),
(409,48,cs),
(417,58,o),
(430,63,o),
(449,60,cs),
(475,56,o),
(501,64,o),
(492,97,cs),
(486,118,o),
(460,132,o),
(370,132,cs),
(332,132,o),
(277,140,o),
(246,158,cs),
(226,170,o),
(201,204,o),
(201,229,cs),
(201,241,o),
(206,251,o),
(221,255,cs),
(242,261,o),
(256,279,o),
(270,298,cs),
(288,320,o),
(305,343,o),
(335,343,cs),
(360,343,o),
(382,353,o),
(405,363,cs),
(443,380,o),
(460,385,o),
(493,388,cs),
(556,394,o),
(619,411,o),
(647,460,cs),
(653,472,o),
(649,479,o),
(635,479,cs),
(545,481,o),
(465,520,o),
(374,500,cs),
(341,492,o),
(305,485,o),
(285,484,cs),
(252,483,o),
(225,446,o),
(170,317,cs),
(159,290,o),
(132,259,o),
(106,234,cs),
(85,213,o),
(72,188,o),
(75,167,cs),
(80,126,o),
(84,81,o),
(84,35,cs),
(84,21,o),
(96,-8,o),
(110,-16,cs)
);
}
);
width = 700;
}
);
},
